STARTFONT 2.1
COMMENT
COMMENT Converted from OpenType font "Lato-Bold.ttf" by "otf2bdf 3.0".
COMMENT
FONT -FreeType-Lato-Bold-R-Normal--46-330-100-100-P-240-ISO10646-1
SIZE 33 100 100
FONTBOUNDINGBOX 86 63 -24 -13
STARTPROPERTIES 19
FOUNDRY "FreeType"
FAMILY_NAME "Lato"
WEIGHT_NAME "Bold"
SLANT "R"
SETWIDTH_NAME "Normal"
ADD_STYLE_NAME ""
PIXEL_SIZE 46
POINT_SIZE 330
RESOLUTION_X 100
RESOLUTION_Y 100
SPACING "P"
AVERAGE_WIDTH 240
CHARSET_REGISTRY "ISO10646"
CHARSET_ENCODING "1"
FONT_ASCENT 45
FONT_DESCENT 9
COPYRIGHT "Copyright (c) 2011-2015 by tyPoland Lukasz Dziedzic (http://www.typoland.com/) with Reserved Font Name "Lato". Licensed under the SIL Open Font License, Version 1.1 (http://scripts.sil.org/OFL). "
_OTF_FONTFILE "Lato-Bold.ttf"
_OTF_PSNAME "Lato-Bold"
ENDPROPERTIES
CHARS 2164
STARTCHAR 0000
ENCODING 0
SWIDTH 0 0
DWIDTH 0 0
BBX 0 0 0 0
BITMAP
ENDCHAR
STARTCHAR 0020
ENCODING 32
SWIDTH 240 0
DWIDTH 11 0
BBX 0 0 0 0
BITMAP
ENDCHAR
STARTCHAR 0021
ENCODING 33
SWIDTH 283 0
DWIDTH 13 0
BBX 7 33 3 0
BITMAP
7C
7C
7C
7C
7C
7C
7C
7C
7C
7C
7C
7C
7C
7C
7C
7C
7C
7C
7C
7C
7C
78
00
00
00
00
38
7C
FE
FE
FE
FC
38
ENDCHAR
STARTCHAR 0022
ENCODING 34
SWIDTH 392 0
DWIDTH 18 0
BBX 13 12 2 21
BITMAP
F8F8
F8F8
F8F8
F8F8
F8F8
F8F8
F8F8
7878
7878
7878
7878
3030
ENDCHAR
STARTCHAR 0023
ENCODING 35
SWIDTH 589 0
DWIDTH 27 0
BBX 25 33 1 0
BITMAP
00787800
00F07C00
00F07C00
01F07800
01F07800
01F0F800
01E0F800
01E0F800
03E0F000
3FFFFF80
7FFFFF80
7FFFFF80
7FFFFF00
03C1F000
07C1F000
07C1E000
07C1E000
07C3E000
07C3E000
0783E000
FFFFFE00
FFFFFE00
FFFFFE00
FFFFFE00
0F87C000
0F07C000
1F07C000
1F078000
1F0F8000
1F0F8000
1E0F8000
3E0F8000
3C070000
ENDCHAR
STARTCHAR 0024
ENCODING 36
SWIDTH 589 0
DWIDTH 27 0
BBX 23 44 2 -6
BITMAP
000E00
000E00
000E00
000E00
001E00
00FF80
03FFE0
0FFFF8
1FFFFC
3FFFFC
3F1C78
7E1C10
7C1C00
7C1C00
7C1C00
7E1C00
7E3C00
7FBC00
3FFC00
1FFE00
0FFFC0
07FFF0
01FFF8
003FFC
003BFC
0038FE
00387E
00387E
00787E
00787E
00787C
78787C
FC78FC
FFFFF8
FFFFF0
7FFFE0
1FFFC0
07FF00
00F000
007000
00F000
00F000
00F000
00E000
ENDCHAR
STARTCHAR 0025
ENCODING 37
SWIDTH 829 0
DWIDTH 38 0
BBX 34 33 2 0
BITMAP
07C0001F00
1FF0003E00
3FF8007C00
7FFC00F800
FC7C01F800
F83E01F000
F01E03E000
F01E07C000
F01E0FC000
F01E0F8000
F83E1F0000
FC7C3E0000
7FFC7E0000
3FF8FC0000
1FF0F80000
07C1F00000
0003F1F800
0007E3FE00
0007C7FF00
000F8FFF80
001F1F0F80
003F1F0780
003E1E07C0
007C1E07C0
00F81E03C0
01F81E07C0
01F01E07C0
03E01F0780
07C01F0F80
0FC00FFF80
1F8007FF00
1F0003FE00
3E0001F800
ENDCHAR
STARTCHAR 0026
ENCODING 38
SWIDTH 720 0
DWIDTH 33 0
BBX 31 33 2 0
BITMAP
003F8000
00FFE000
03FFF000
03FFF800
07E1FC00
07C0FC00
0FC07C00
0F803800
0F800000
0FC00000
0FC00000
07C00000
07E00000
03F00000
03F80000
07FC01E0
1FFE01E0
3FFF01E0
7F3F83E0
7E1FC3E0
FC0FE3E0
FC07F7C0
FC03FFC0
F801FFC0
FC00FF80
FC007F00
FC003F80
7E00FFC0
7F83FFE0
3FFFFFF0
1FFFF3F8
0FFFC1FC
01FC00FE
ENDCHAR
STARTCHAR 0027
ENCODING 39
SWIDTH 218 0
DWIDTH 10 0
BBX 5 12 2 21
BITMAP
F8
F8
F8
F8
F8
F8
F8
78
78
78
78
30
ENDCHAR
STARTCHAR 0028
ENCODING 40
SWIDTH 283 0
DWIDTH 13 0
BBX 9 43 2 -7
BITMAP
0200
0780
0F80
0F80
1F80
1F00
3F00
3E00
3E00
7E00
7C00
7C00
7C00
F800
F800
F800
F800
F800
F800
F800
F800
F800
F800
F800
F800
F800
F800
F800
F800
F800
7C00
7C00
7C00
7C00
3E00
3E00
3F00
1F00
1F80
0F80
0F80
0780
0600
ENDCHAR
STARTCHAR 0029
ENCODING 41
SWIDTH 283 0
DWIDTH 13 0
BBX 10 43 1 -7
BITMAP
1000
7800
F800
7C00
7C00
7E00
3E00
3E00
1F00
1F00
1F00
0F80
0F80
0F80
0F80
0FC0
07C0
07C0
07C0
07C0
07C0
07C0
07C0
07C0
07C0
07C0
07C0
07C0
0F80
0F80
0F80
0F80
1F80
1F00
1F00
3F00
3E00
3E00
7C00
7C00
F800
7800
3000
ENDCHAR
STARTCHAR 002A
ENCODING 42
SWIDTH 436 0
DWIDTH 20 0
BBX 15 16 2 19
BITMAP
0380
0380
0380
6384
739E
FDBE
1FF8
0FE0
0FE0
1FF8
FDFE
7B9E
6384
0380
0380
0380
ENDCHAR
STARTCHAR 002B
ENCODING 43
SWIDTH 589 0
DWIDTH 27 0
BBX 23 23 2 4
BITMAP
007C00
007C00
007C00
007C00
007C00
007C00
007C00
007C00
007C00
FFFFFE
FFFFFE
FFFFFE
FFFFFE
007C00
007C00
007C00
007C00
007C00
007C00
007C00
007C00
007C00
007C00
ENDCHAR
STARTCHAR 002C
ENCODING 44
SWIDTH 240 0
DWIDTH 11 0
BBX 7 14 2 -7
BITMAP
38
FC
FE
FE
FE
7E
3C
1C
1C
38
78
F0
60
40
ENDCHAR
STARTCHAR 002D
ENCODING 45
SWIDTH 370 0
DWIDTH 17 0
BBX 12 5 3 12
BITMAP
FFF0
FFF0
FFF0
FFF0
FFF0
ENDCHAR
STARTCHAR 002E
ENCODING 46
SWIDTH 240 0
DWIDTH 11 0
BBX 7 7 2 0
BITMAP
38
7C
FE
FE
FE
7C
38
ENDCHAR
STARTCHAR 002F
ENCODING 47
SWIDTH 458 0
DWIDTH 21 0
BBX 19 36 1 -2
BITMAP
0001E0
0003E0
0003C0
0007C0
000780
000F80
000F80
000F00
001F00
001E00
003E00
003E00
003C00
007C00
007C00
00F800
00F800
00F000
01F000
01F000
01E000
03E000
03C000
07C000
07C000
078000
0F8000
0F0000
1F0000
1F0000
1E0000
3E0000
3E0000
7C0000
7C0000
F80000
ENDCHAR
STARTCHAR 0030
ENCODING 48
SWIDTH 589 0
DWIDTH 27 0
BBX 25 33 1 0
BITMAP
007F0000
03FFC000
07FFF000
0FFFF800
1FC3F800
1F80FC00
3F007E00
3E007E00
7E003E00
7E003F00
7E003F00
7C003F00
FC003F00
FC001F00
FC001F00
FC001F80
FC001F80
FC001F80
FC001F00
FC001F00
FC003F00
7C003F00
7E003F00
7E003F00
7E003E00
3E007E00
3F007E00
1F80FC00
1FC3F800
0FFFF800
07FFF000
03FFC000
007F0000
ENDCHAR
STARTCHAR 0031
ENCODING 49
SWIDTH 589 0
DWIDTH 27 0
BBX 21 33 3 0
BITMAP
003E00
00FE00
01FE00
03FE00
07FE00
0FFE00
1FFE00
3FFE00
FF7E00
FE7E00
7C7E00
307E00
007E00
007E00
007E00
007E00
007E00
007E00
007E00
007E00
007E00
007E00
007E00
007E00
007E00
007E00
007E00
007E00
007E00
3FFFF8
3FFFF8
3FFFF8
3FFFF8
ENDCHAR
STARTCHAR 0032
ENCODING 50
SWIDTH 589 0
DWIDTH 27 0
BBX 23 33 2 0
BITMAP
00FE00
03FFC0
0FFFE0
1FFFF0
3FFFF8
3F83F8
7F01FC
7E00FC
7C00FC
FC00FC
0000FC
0000FC
0000FC
0001F8
0001F8
0003F0
0007E0
000FE0
001FC0
003F80
007F00
00FE00
01FC00
03F800
07F000
0FE000
1FC000
3F8000
7F7FFC
FFFFFE
FFFFFE
FFFFFE
FFFFFE
ENDCHAR
STARTCHAR 0033
ENCODING 51
SWIDTH 589 0
DWIDTH 27 0
BBX 23 33 2 0
BITMAP
00FE00
03FFC0
0FFFE0
1FFFF0
3FFFF8
3F83F8
7F01FC
7E00FC
7C00FC
FC00FC
0000FC
0000F8
0001F8
0007F0
007FE0
007F80
007FE0
007FF0
0003F8
0000FC
0000FC
00007C
00007C
78007E
F8007C
FC00FC
FE01FC
7F83FC
7FFFF8
3FFFF0
1FFFE0
07FFC0
01FE00
ENDCHAR
STARTCHAR 0034
ENCODING 52
SWIDTH 589 0
DWIDTH 27 0
BBX 26 33 0 0
BITMAP
0000F800
0001F800
0003F800
0007F800
0007F800
000FF800
001FF800
003FF800
003EF800
007EF800
00FCF800
01F8F800
01F0F800
03F0F800
07E0F800
0FC0F800
0FC0F800
1F80F800
3F00F800
3E00F800
7E00F800
FFFFFFC0
FFFFFFC0
7FFFFFC0
7FFFFF80
0000F800
0000F800
0000F800
0000F800
0000F800
0000F800
0000F800
0000F800
ENDCHAR
STARTCHAR 0035
ENCODING 53
SWIDTH 589 0
DWIDTH 27 0
BBX 22 33 2 0
BITMAP
0FFFF8
0FFFF8
0FFFF8
0FFFF8
0FFFF0
0F0000
1F0000
1F0000
1F0000
1F0000
1F0000
3FFE00
3FFF80
3FFFE0
3FFFF0
0E07F8
0001F8
0000FC
0000FC
0000FC
0000FC
0000FC
0000FC
0000FC
0000FC
0001F8
3803F8
7E07F0
FFFFF0
7FFFE0
3FFFC0
0FFF00
03FC00
ENDCHAR
STARTCHAR 0036
ENCODING 54
SWIDTH 589 0
DWIDTH 27 0
BBX 23 33 2 0
BITMAP
0007F0
000FE0
001FC0
003F80
007F00
007E00
00FC00
01FC00
03F800
03F000
07E000
0FC000
1FBF80
1FFFE0
3FFFF0
7FFFF8
7F83FC
7E00FC
FE00FE
FC007E
FC007E
F8007E
F8007E
F8007E
FC007E
FC007E
7C00FC
7E01FC
3F83F8
1FFFF0
0FFFE0
07FFC0
00FE00
ENDCHAR
STARTCHAR 0037
ENCODING 55
SWIDTH 589 0
DWIDTH 27 0
BBX 23 33 2 0
BITMAP
FFFFFE
FFFFFE
FFFFFE
FFFFFE
FFFFFE
00007C
0000FC
0000F8
0001F8
0001F0
0003F0
0003E0
0007E0
0007C0
000FC0
000F80
001F80
001F00
003F00
003F00
007E00
007E00
00FC00
01FC00
01F800
03F800
03F000
07F000
07E000
0FE000
0FC000
1FC000
1F8000
ENDCHAR
STARTCHAR 0038
ENCODING 56
SWIDTH 589 0
DWIDTH 27 0
BBX 23 33 2 0
BITMAP
00FE00
07FF80
0FFFE0
1FFFF0
3F83F8
7E01F8
7E00F8
7E00FC
7C00FC
7E00FC
7E00FC
3E01F8
3F83F8
1FFFF0
07FFE0
0FFFC0
1FFFE0
3F83F0
7E01F8
FC00FC
FC007C
FC007E
FC007E
FC007E
FC007E
FC007E
FC00FC
7E01FC
7F83F8
3FFFF8
1FFFF0
07FFC0
01FE00
ENDCHAR
STARTCHAR 0039
ENCODING 57
SWIDTH 589 0
DWIDTH 27 0
BBX 22 33 2 0
BITMAP
00FE00
07FF80
0FFFE0
1FFFF0
3F83F8
7E01F8
7E00FC
FC00FC
FC007C
FC007C
FC007C
FC007C
FC00FC
FC00FC
7E01FC
7F83FC
3FFFF8
1FFFF8
0FFFF0
03F3F0
0007E0
000FC0
001FC0
001F80
003F00
007E00
00FE00
01FC00
03F800
03F800
07F000
0FE000
1FC000
ENDCHAR
STARTCHAR 003A
ENCODING 58
SWIDTH 261 0
DWIDTH 12 0
BBX 7 23 2 0
BITMAP
38
7C
FE
FE
FE
7C
38
00
00
00
00
00
00
00
00
00
38
7C
FE
FE
FE
7C
38
ENDCHAR
STARTCHAR 003B
ENCODING 59
SWIDTH 261 0
DWIDTH 12 0
BBX 7 30 3 -7
BITMAP
38
7C
FE
FE
FE
7C
38
00
00
00
00
00
00
00
00
00
38
FC
FE
FE
FE
7E
3C
1C
1C
38
78
F0
60
40
ENDCHAR
STARTCHAR 003C
ENCODING 60
SWIDTH 589 0
DWIDTH 27 0
BBX 19 21 3 5
BITMAP
000060
0000E0
0003E0
000FE0
003FE0
00FFC0
03FF00
0FFC00
3FF000
FFC000
FE0000
FFC000
3FF000
0FFC00
03FF00
00FF80
003FE0
000FE0
0003E0
0000E0
000060
ENDCHAR
STARTCHAR 003D
ENCODING 61
SWIDTH 589 0
DWIDTH 27 0
BBX 21 12 3 9
BITMAP
FFFFF8
FFFFF8
FFFFF8
FFFFF8
000000
000000
000000
000000
FFFFF8
FFFFF8
FFFFF8
FFFFF8
ENDCHAR
STARTCHAR 003E
ENCODING 62
SWIDTH 589 0
DWIDTH 27 0
BBX 18 21 5 5
BITMAP
800000
E00000
F80000
FE0000
FF8000
7FE000
1FF800
07FE00
01FF80
007FC0
000FC0
007FC0
01FF80
07FE00
1FF800
7FE000
FF8000
FE0000
F80000
E00000
800000
ENDCHAR
STARTCHAR 003F
ENCODING 63
SWIDTH 458 0
DWIDTH 21 0
BBX 17 33 2 0
BITMAP
07F000
3FFC00
FFFE00
FFFF00
783F80
601F80
000F80
000F80
000F80
000F80
001F80
003F00
007F00
01FE00
03F800
03F000
07E000
07C000
07C000
03C000
03C000
000000
000000
000000
000000
000000
038000
07C000
0FE000
0FE000
0FE000
07C000
038000
ENDCHAR
STARTCHAR 0040
ENCODING 64
SWIDTH 850 0
DWIDTH 39 0
BBX 35 38 2 -6
BITMAP
0003FC0000
001FFFC000
007FFFF000
00FFFFF800
01FE03FC00
07F0007E00
07C0001F00
0F80000F80
1F00000780
3E000007C0
3E007F83C0
7C01FFE3C0
7807FFC1E0
780FFFC1E0
781FC3C1E0
F81F0781E0
F03E0781E0
F03C0781E0
F07C0F81E0
F07C0F03E0
F0780F03C0
F0780F03C0
F87C1F07C0
787C3F8F80
787FFFFF00
783FF7FE00
7C1FE3FC00
3C0F81F000
3E00000000
1F00000000
0F80000000
0FC0000200
07F0000F00
03FE007F00
00FFFFFF00
007FFFFC00
001FFFF000
0001FF8000
ENDCHAR
STARTCHAR 0041
ENCODING 65
SWIDTH 698 0
DWIDTH 32 0
BBX 32 33 0 0
BITMAP
0007E000
000FF000
000FF000
001FF800
001FF800
001FF800
003FFC00
003FFC00
007E7E00
007E7E00
007E7E00
00FC3F00
00FC3F00
01F81F00
01F81F80
01F81F80
03F00FC0
03F00FC0
07F00FC0
07E007E0
07E007E0
0FFFFFF0
0FFFFFF0
0FFFFFF0
1FFFFFF8
1F8001F8
3F8001FC
3F0000FC
3F0000FC
7E00007E
7E00007E
FE00007F
FC00003F
ENDCHAR
STARTCHAR 0042
ENCODING 66
SWIDTH 654 0
DWIDTH 30 0
BBX 24 33 4 0
BITMAP
FFFF00
FFFFE0
FFFFF8
FFFFFC
FFFFFC
FC01FE
FC00FE
FC007E
FC007E
FC007E
FC007E
FC007E
FC00FC
FC03F8
FFFFF0
FFFFC0
FFFFF0
FFFFFC
FC01FE
FC007E
FC003F
FC003F
FC003F
FC003F
FC003F
FC003F
FC007F
FC01FE
FFFFFE
FFFFFC
FFFFF8
FFFFE0
FFFF80
ENDCHAR
STARTCHAR 0043
ENCODING 67
SWIDTH 654 0
DWIDTH 30 0
BBX 28 33 2 0
BITMAP
000FF000
007FFE00
01FFFF80
03FFFFE0
0FFFFFE0
0FF80FC0
1FE003C0
3F800080
3F800000
7F000000
7E000000
FE000000
FE000000
FC000000
FC000000
FC000000
FC000000
FC000000
FC000000
FC000000
FE000000
FE000000
7E000000
7F000000
7F800000
3FC00080
1FE003C0
1FF80FE0
0FFFFFF0
07FFFFC0
01FFFF80
00FFFE00
001FF000
ENDCHAR
STARTCHAR 0044
ENCODING 68
SWIDTH 763 0
DWIDTH 35 0
BBX 29 33 4 0
BITMAP
FFFF8000
FFFFF000
FFFFFC00
FFFFFE00
FFFFFF00
FC00FF80
FC003FC0
FC001FE0
FC000FE0
FC0007F0
FC0003F0
FC0003F8
FC0003F8
FC0001F8
FC0001F8
FC0001F8
FC0001F8
FC0001F8
FC0001F8
FC0001F8
FC0003F8
FC0003F8
FC0003F0
FC0007F0
FC000FE0
FC001FE0
FC003FC0
FC00FF80
FFFFFF00
FFFFFE00
FFFFFC00
FFFFF000
FFFF8000
ENDCHAR
STARTCHAR 0045
ENCODING 69
SWIDTH 567 0
DWIDTH 26 0
BBX 21 33 4 0
BITMAP
FFFFF8
FFFFF8
FFFFF8
FFFFF8
FFFFF8
FC0000
FC0000
FC0000
FC0000
FC0000
FC0000
FC0000
FC0000
FC0000
FFFFC0
FFFFC0
FFFFC0
FFFFC0
FFFFC0
FC0000
FC0000
FC0000
FC0000
FC0000
FC0000
FC0000
FC0000
FC0000
FFFFF8
FFFFF8
FFFFF8
FFFFF8
FFFFF8
ENDCHAR
STARTCHAR 0046
ENCODING 70
SWIDTH 567 0
DWIDTH 26 0
BBX 21 33 4 0
BITMAP
FFFFF8
FFFFF8
FFFFF8
FFFFF8
FFFFF8
FC0000
FC0000
FC0000
FC0000
FC0000
FC0000
FC0000
FC0000
FC0000
FFFFC0
FFFFC0
FFFFC0
FFFFC0
FFFFC0
FC0000
FC0000
FC0000
FC0000
FC0000
FC0000
FC0000
FC0000
FC0000
FC0000
FC0000
FC0000
FC0000
FC0000
ENDCHAR
STARTCHAR 0047
ENCODING 71
SWIDTH 720 0
DWIDTH 33 0
BBX 29 33 2 0
BITMAP
000FFC00
007FFF80
01FFFFE0
03FFFFF0
0FFFFFF8
0FF807F0
1FE001F0
3FC00060
3F800000
7F000000
7E000000
FE000000
FE000000
FC000000
FC000000
FC000000
FC003FF8
FC003FF8
FC003FF8
FC003FF8
FE0000F8
FE0000F8
7E0000F8
7F0000F8
3F8000F8
3FC000F8
1FE001F8
0FFC07F8
07FFFFF8
03FFFFF8
01FFFFE0
007FFF80
0007FC00
ENDCHAR
STARTCHAR 0048
ENCODING 72
SWIDTH 763 0
DWIDTH 35 0
BBX 28 33 4 0
BITMAP
FC0003F0
FC0003F0
FC0003F0
FC0003F0
FC0003F0
FC0003F0
FC0003F0
FC0003F0
FC0003F0
FC0003F0
FC0003F0
FC0003F0
FC0003F0
FC0003F0
FFFFFFF0
FFFFFFF0
FFFFFFF0
FFFFFFF0
FC0003F0
FC0003F0
FC0003F0
FC0003F0
FC0003F0
FC0003F0
FC0003F0
FC0003F0
FC0003F0
FC0003F0
FC0003F0
FC0003F0
FC0003F0
FC0003F0
FC0003F0
ENDCHAR
STARTCHAR 0049
ENCODING 73
SWIDTH 305 0
DWIDTH 14 0
BBX 6 33 4 0
BITMAP
FC
FC
FC
FC
FC
FC
FC
FC
FC
FC
FC
FC
FC
FC
FC
FC
FC
FC
FC
FC
FC
FC
FC
FC
FC
FC
FC
FC
FC
FC
FC
FC
FC
ENDCHAR
STARTCHAR 004A
ENCODING 74
SWIDTH 436 0
DWIDTH 20 0
BBX 15 33 1 0
BITMAP
007E
007E
007E
007E
007E
007E
007E
007E
007E
007E
007E
007E
007E
007E
007E
007E
007E
007E
007E
007E
007E
007E
007E
007E
007E
00FE
00FE
03FC
FFFC
FFF8
FFF0
FFE0
FF00
ENDCHAR
STARTCHAR 004B
ENCODING 75
SWIDTH 698 0
DWIDTH 32 0
BBX 28 33 4 0
BITMAP
FC000FE0
FC001FC0
FC003F80
FC007F00
FC00FE00
FC00FE00
FC01FC00
FC03F800
FC07F000
FC0FE000
FC0FE000
FC1FC000
FC3F8000
FC7F0000
FFFE0000
FFFC0000
FFFE0000
FFFF0000
FC3F8000
FC1FC000
FC0FE000
FC0FE000
FC07F000
FC03F800
FC01FC00
FC01FC00
FC00FE00
FC007F00
FC007F80
FC003F80
FC001FC0
FC000FE0
FC0007F0
ENDCHAR
STARTCHAR 004C
ENCODING 76
SWIDTH 523 0
DWIDTH 24 0
BBX 19 33 4 0
BITMAP
FC0000
FC0000
FC0000
FC0000
FC0000
FC0000
FC0000
FC0000
FC0000
FC0000
FC0000
FC0000
FC0000
FC0000
FC0000
FC0000
FC0000
FC0000
FC0000
FC0000
FC0000
FC0000
FC0000
FC0000
FC0000
FC0000
FC0000
FC0000
FFFFE0
FFFFE0
FFFFE0
FFFFE0
FFFFE0
ENDCHAR
STARTCHAR 004D
ENCODING 77
SWIDTH 938 0
DWIDTH 43 0
BBX 36 33 4 0
BITMAP
FC000007F0
FE000007F0
FE00000FF0
FF00000FF0
FF00001FF0
FF80001FF0
FF80003FF0
FFC0007FF0
FFE0007FF0
FFE000FFF0
FBF000FFF0
F9F001FBF0
F9F801FBF0
F8F803F3F0
F8FC03F3F0
F87C07E3F0
F87E07C3F0
F83E0FC3F0
F83F0F83F0
F81F1F83F0
F81F9F03F0
F80FBF03F0
F80FFE03F0
F807FE03F0
F807FC03F0
F803FC03F0
F801F803F0
F801F803F0
F800F003F0
F8000003F0
F8000003F0
F8000003F0
F8000003F0
ENDCHAR
STARTCHAR 004E
ENCODING 78
SWIDTH 763 0
DWIDTH 35 0
BBX 28 33 4 0
BITMAP
F80003F0
F80003F0
FC0003F0
FE0003F0
FF0003F0
FF8003F0
FF8003F0
FFC003F0
FFE003F0
FFF003F0
FFF003F0
FBF803F0
F9FC03F0
F8FE03F0
F87F03F0
F87F03F0
F83F83F0
F81FC3F0
F80FE3F0
F80FF3F0
F807F3F0
F803FBF0
F801FFF0
F800FFF0
F800FFF0
F8007FF0
F8003FF0
F8001FF0
F8000FF0
F8000FF0
F80007F0
F80003F0
F80001F0
ENDCHAR
STARTCHAR 004F
ENCODING 79
SWIDTH 807 0
DWIDTH 37 0
BBX 33 33 2 0
BITMAP
000FF80000
007FFF0000
01FFFFC000
03FFFFE000
07FFFFF800
0FF80FF800
1FE003FC00
3F8000FE00
3F80007F00
7F00007F00
7E00003F00
FE00003F80
FE00001F80
FC00001F80
FC00001F80
FC00001F80
FC00001F80
FC00001F80
FC00001F80
FC00001F80
FE00001F80
FE00003F80
7E00003F00
7F00007F00
3F00007F00
3F8000FE00
1FE003FC00
0FF80FFC00
07FFFFF800
03FFFFE000
01FFFFC000
007FFF0000
000FF80000
ENDCHAR
STARTCHAR 0050
ENCODING 80
SWIDTH 610 0
DWIDTH 28 0
BBX 23 33 4 0
BITMAP
FFFE00
FFFFC0
FFFFF0
FFFFF8
FFFFFC
FC03FC
FC00FE
FC00FE
FC007E
FC007E
FC007E
FC007E
FC007E
FC00FE
FC00FE
FC03FC
FFFFFC
FFFFF8
FFFFF0
FFFFC0
FFFE00
FC0000
FC0000
FC0000
FC0000
FC0000
FC0000
FC0000
FC0000
FC0000
FC0000
FC0000
FC0000
ENDCHAR
STARTCHAR 0051
ENCODING 81
SWIDTH 807 0
DWIDTH 37 0
BBX 35 39 2 -6
BITMAP
000FF80000
007FFF0000
01FFFFC000
03FFFFE000
07FFFFF800
0FF80FFC00
1FE003FC00
3FC000FE00
3F80007F00
7F00007F00
7E00003F00
FE00003F80
FE00001F80
FC00001F80
FC00001F80
FC00001F80
FC00001F80
FC00001F80
FC00001F80
FC00001F80
FE00001F80
FE00003F80
7E00003F00
7F00007F00
3F00007F00
3F8000FE00
1FE003FC00
0FF80FFC00
07FFFFF800
03FFFFF000
01FFFFE000
007FFFF000
000FFBF800
000001FC00
000000FE00
000000FF00
0000007F80
0000003FC0
0000000FE0
ENDCHAR
STARTCHAR 0052
ENCODING 82
SWIDTH 654 0
DWIDTH 30 0
BBX 26 33 4 0
BITMAP
FFFE0000
FFFFC000
FFFFE000
FFFFF800
FFFFF800
FC07FC00
FC01FC00
FC00FC00
FC00FE00
FC007E00
FC007E00
FC00FC00
FC00FC00
FC00FC00
FC01F800
FC07F800
FFFFF000
FFFFC000
FFFF8000
FFFF0000
FC3F8000
FC1FC000
FC0FC000
FC0FE000
FC07F000
FC03F800
FC03F800
FC01FC00
FC00FE00
FC00FE00
FC007F00
FC003F80
FC003FC0
ENDCHAR
STARTCHAR 0053
ENCODING 83
SWIDTH 545 0
DWIDTH 25 0
BBX 23 33 1 0
BITMAP
007F00
03FFE0
07FFF8
0FFFFC
1FFFF8
3FC1F8
3F0070
3E0000
7E0000
7E0000
7F0000
3F0000
3FC000
3FF800
1FFF00
0FFFC0
07FFF0
01FFF8
003FFC
0007FC
0001FC
0000FC
00007E
00007E
00007C
3000FC
7C00FC
7F03F8
FFFFF8
7FFFF0
3FFFE0
0FFF80
01FE00
ENDCHAR
STARTCHAR 0054
ENCODING 84
SWIDTH 610 0
DWIDTH 28 0
BBX 26 33 1 0
BITMAP
FFFFFFC0
FFFFFFC0
FFFFFFC0
FFFFFFC0
FFFFFFC0
003F0000
003F0000
003F0000
003F0000
003F0000
003F0000
003F0000
003F0000
003F0000
003F0000
003F0000
003F0000
003F0000
003F0000
003F0000
003F0000
003F0000
003F0000
003F0000
003F0000
003F0000
003F0000
003F0000
003F0000
003F0000
003F0000
003F0000
003F0000
ENDCHAR
STARTCHAR 0055
ENCODING 85
SWIDTH 741 0
DWIDTH 34 0
BBX 28 33 3 0
BITMAP
FC0003F0
FC0003F0
FC0003F0
FC0003F0
FC0003F0
FC0003F0
FC0003F0
FC0003F0
FC0003F0
FC0003F0
FC0003F0
FC0003F0
FC0003F0
FC0003F0
FC0003F0
FC0003F0
FC0003F0
FC0003F0
FC0003F0
FC0003F0
FC0003F0
FE0003F0
7E0007F0
7E0007E0
7F0007E0
7F000FE0
3F801FC0
1FE07FC0
1FFFFF80
0FFFFF00
07FFFE00
01FFF800
003FC000
ENDCHAR
STARTCHAR 0056
ENCODING 86
SWIDTH 698 0
DWIDTH 32 0
BBX 32 33 0 0
BITMAP
FC00003F
FE00007F
7E00007E
7F0000FE
3F0000FC
3F0000FC
3F8001FC
1F8001F8
1FC003F8
0FC003F0
0FC003F0
0FE007F0
07E007E0
07E00FE0
03F00FC0
03F00FC0
03F81FC0
01F81F80
01F81F80
00FC3F00
00FC3F00
00FE7E00
007E7E00
007E7E00
003FFC00
003FFC00
001FF800
001FF800
001FF800
000FF000
000FF000
0007E000
0007E000
ENDCHAR
STARTCHAR 0057
ENCODING 87
SWIDTH 1047 0
DWIDTH 48 0
BBX 48 33 0 0
BITMAP
FE0003E0003F
7F0007E0007E
7F0007F0007E
7F0007F000FE
3F800FF000FE
3F800FF800FC
3F800FF800FC
1F801FF801FC
1FC01FFC01F8
1FC01FFC01F8
0FC03F7C03F8
0FE03E7E03F0
0FE03E7E03F0
07E07E3E03F0
07E07C3F07E0
07F07C3F07E0
03F0FC1F07E0
03F0F81F8FC0
03F8F81F8FC0
03F9F80F8FC0
01F9F00FCFC0
01F9F00FDF80
01FFF007DF80
00FFE007DF80
00FFE007FF00
00FFE003FF00
007FC003FF00
007FC003FE00
007FC001FE00
003F8001FE00
003F8001FC00
003F8000FC00
001F0000FC00
ENDCHAR
STARTCHAR 0058
ENCODING 88
SWIDTH 676 0
DWIDTH 31 0
BBX 31 33 0 0
BITMAP
FF0001FC
7F8001F8
3F8003F8
1FC003F0
1FC007E0
0FE00FE0
07F00FC0
07F01F80
03F83F80
01FC3F00
01FC7E00
00FEFE00
007EFC00
007FF800
003FF800
001FF000
001FF000
003FF800
003FF800
007FFC00
00FEFE00
00FC7E00
01F87F00
03F83F80
03F03F80
07F01FC0
0FE00FE0
0FC00FE0
1FC007F0
3F8007F0
3F0003F8
7F0001FC
FE0001FE
ENDCHAR
STARTCHAR 0059
ENCODING 89
SWIDTH 654 0
DWIDTH 30 0
BBX 30 33 0 0
BITMAP
FE0001FC
7E0001F8
7F0003F8
3F0007F0
3F8007E0
1F800FE0
0FC00FC0
0FE01FC0
07E01F80
07F03F00
03F03F00
01F87E00
01F87E00
00FCFC00
00FCF800
007FF800
003FF000
003FF000
001FE000
001FC000
000FC000
000FC000
000FC000
000FC000
000FC000
000FC000
000FC000
000FC000
000FC000
000FC000
000FC000
000FC000
000FC000
ENDCHAR
STARTCHAR 005A
ENCODING 90
SWIDTH 610 0
DWIDTH 28 0
BBX 26 33 1 0
BITMAP
7FFFFFC0
7FFFFFC0
7FFFFFC0
7FFFFF80
7FFFFF80
00007F00
00007E00
0000FE00
0001FC00
0003F800
0003F000
0007F000
000FE000
000FC000
001FC000
003F8000
007F0000
007E0000
00FE0000
01FC0000
01F80000
03F80000
07F00000
0FE00000
0FC00000
1FC00000
3F800000
3F000000
7FFFFF80
FFFFFF80
FFFFFF80
FFFFFF80
FFFFFF80
ENDCHAR
STARTCHAR 005B
ENCODING 91
SWIDTH 305 0
DWIDTH 14 0
BBX 9 43 4 -7
BITMAP
FF80
FF80
FF80
FF80
F800
F800
F800
F800
F800
F800
F800
F800
F800
F800
F800
F800
F800
F800
F800
F800
F800
F800
F800
F800
F800
F800
F800
F800
F800
F800
F800
F800
F800
F800
F800
F800
F800
F800
F800
FF80
FF80
FF80
FF80
ENDCHAR
STARTCHAR 005C
ENCODING 92
SWIDTH 458 0
DWIDTH 21 0
BBX 19 36 1 -2
BITMAP
F00000
780000
7C0000
3C0000
3E0000
3E0000
1E0000
1F0000
0F0000
0F8000
0F8000
078000
07C000
03C000
03E000
03E000
01E000
01F000
00F000
00F000
00F800
007800
007C00
007C00
003C00
003E00
001E00
001F00
001F00
000F00
000F80
000780
0007C0
0007C0
0003C0
0003E0
ENDCHAR
STARTCHAR 005D
ENCODING 93
SWIDTH 305 0
DWIDTH 14 0
BBX 10 43 1 -7
BITMAP
FFC0
FFC0
FFC0
7FC0
07C0
07C0
07C0
07C0
07C0
07C0
07C0
07C0
07C0
07C0
07C0
07C0
07C0
07C0
07C0
07C0
07C0
07C0
07C0
07C0
07C0
07C0
07C0
07C0
07C0
07C0
07C0
07C0
07C0
07C0
07C0
07C0
07C0
07C0
07C0
7FC0
FFC0
FFC0
FFC0
ENDCHAR
STARTCHAR 005E
ENCODING 94
SWIDTH 589 0
DWIDTH 27 0
BBX 22 17 2 16
BITMAP
007800
007C00
00FC00
00FE00
01FE00
01FF00
03EF80
07CF80
07C7C0
0FC7C0
0F83E0
1F83E0
1F01F0
3F01F0
3E00F8
7E00F8
FC007C
ENDCHAR
STARTCHAR 005F
ENCODING 95
SWIDTH 458 0
DWIDTH 21 0
BBX 18 4 2 -7
BITMAP
FFFFC0
FFFFC0
FFFFC0
FFFFC0
ENDCHAR
STARTCHAR 0060
ENCODING 96
SWIDTH 392 0
DWIDTH 18 0
BBX 11 7 2 26
BITMAP
FE00
7E00
3F00
1F80
0F80
07C0
03E0
ENDCHAR
STARTCHAR 0061
ENCODING 97
SWIDTH 501 0
DWIDTH 23 0
BBX 20 24 1 0
BITMAP
01FC00
0FFF00
3FFF80
7FFFC0
3F0FE0
1C03E0
0003F0
0003F0
0003F0
0003F0
007FF0
07FFF0
1FFFF0
3FFFF0
7F83F0
FE03F0
FC03F0
FC03F0
FC07F0
FE0FF0
7FFFF0
7FFDF0
3FF9F0
0FC0F0
ENDCHAR
STARTCHAR 0062
ENCODING 98
SWIDTH 567 0
DWIDTH 26 0
BBX 22 34 3 0
BITMAP
F80000
F80000
F80000
F80000
F80000
F80000
F80000
F80000
F80000
F80000
F87F00
F9FF80
FBFFE0
FFFFE0
FF07F0
FE03F0
FC01F8
F801F8
F801F8
F800F8
F800F8
F800FC
F800F8
F800F8
F801F8
F801F8
F801F8
F803F0
FC03F0
FF0FF0
FFFFE0
FFFFC0
FBFF80
F8FE00
ENDCHAR
STARTCHAR 0063
ENCODING 99
SWIDTH 480 0
DWIDTH 22 0
BBX 19 24 2 0
BITMAP
01FE00
07FF80
1FFFE0
3FFFE0
3F83C0
7E0080
7E0000
FC0000
FC0000
FC0000
F80000
F80000
F80000
F80000
FC0000
FC0000
FC0000
7E0000
7E01C0
3F83E0
3FFFE0
1FFFC0
07FF80
01FC00
ENDCHAR
STARTCHAR 0064
ENCODING 100
SWIDTH 567 0
DWIDTH 26 0
BBX 21 34 2 0
BITMAP
0000F8
0000F8
0000F8
0000F8
0000F8
0000F8
0000F8
0000F8
0000F8
0000F8
01F8F8
07FEF8
1FFFF8
3FFFF8
3F87F8
7E01F8
7E00F8
FC00F8
FC00F8
FC00F8
FC00F8
F800F8
F800F8
F800F8
FC00F8
FC00F8
FC00F8
FC01F8
7E03F8
7F07F8
3FFFF8
3FFEF8
0FFCF8
07F078
ENDCHAR
STARTCHAR 0065
ENCODING 101
SWIDTH 545 0
DWIDTH 25 0
BBX 21 24 2 0
BITMAP
01FC00
07FF80
1FFFC0
3FFFE0
3F07E0
7E01F0
FC01F0
FC00F8
F800F8
FFFFF8
FFFFF8
FFFFF8
FFFFF8
F80000
F80000
FC0000
FC0000
7C0000
7E0060
3F81F0
1FFFF8
0FFFF0
07FFC0
01FE00
ENDCHAR
STARTCHAR 0066
ENCODING 102
SWIDTH 349 0
DWIDTH 16 0
BBX 15 33 1 0
BITMAP
007E
03FE
07FE
07FE
0FE0
0F80
1F80
1F80
1F80
FFFE
FFFE
FFFE
7FFE
1F80
1F80
1F80
1F80
1F80
1F80
1F80
1F80
1F80
1F80
1F80
1F80
1F80
1F80
1F80
1F80
1F80
1F80
1F80
1F80
ENDCHAR
STARTCHAR 0067
ENCODING 103
SWIDTH 523 0
DWIDTH 24 0
BBX 23 33 1 -9
BITMAP
01FC00
07FFFE
1FFFFE
3FFFFE
3F07FC
7E03E0
7C03F0
7C01F0
7C01F0
7C03F0
7E03E0
3F07E0
3FFFC0
1FFF80
07FF00
1FFC00
1E0000
3E0000
3F0000
3FFF80
3FFFF0
1FFFF8
1FFFFC
7C01FC
78007C
F8007C
F8007C
FC00F8
7E03F8
7FFFF0
3FFFE0
1FFF80
03FE00
ENDCHAR
STARTCHAR 0068
ENCODING 104
SWIDTH 567 0
DWIDTH 26 0
BBX 20 34 3 0
BITMAP
F80000
F80000
F80000
F80000
F80000
F80000
F80000
F80000
F80000
F80000
F87E00
F9FF80
FBFFC0
FFFFE0
FF07F0
FE03F0
FC03F0
F801F0
F801F0
F801F0
F801F0
F801F0
F801F0
F801F0
F801F0
F801F0
F801F0
F801F0
F801F0
F801F0
F801F0
F801F0
F801F0
F801F0
ENDCHAR
STARTCHAR 0069
ENCODING 105
SWIDTH 261 0
DWIDTH 12 0
BBX 7 34 2 0
BITMAP
3C
7E
FE
FE
FE
7E
3C
00
00
00
7E
7E
7E
7E
7E
7E
7E
7E
7E
7E
7E
7E
7E
7E
7E
7E
7E
7E
7E
7E
7E
7E
7E
7E
ENDCHAR
STARTCHAR 006A
ENCODING 106
SWIDTH 261 0
DWIDTH 12 0
BBX 11 43 -2 -9
BITMAP
03C0
07E0
0FE0
0FE0
0FE0
07E0
03C0
0000
0000
0000
07E0
07E0
07E0
07E0
07E0
07E0
07E0
07E0
07E0
07E0
07E0
07E0
07E0
07E0
07E0
07E0
07E0
07E0
07E0
07E0
07E0
07E0
07E0
07E0
07E0
07E0
07E0
07C0
0FC0
7FC0
FF80
FF00
FC00
ENDCHAR
STARTCHAR 006B
ENCODING 107
SWIDTH 545 0
DWIDTH 25 0
BBX 22 34 3 0
BITMAP
F80000
F80000
F80000
F80000
F80000
F80000
F80000
F80000
F80000
F80000
F803F8
F803F0
F807E0
F80FC0
F81F80
F83F80
F83F00
F87E00
F8FC00
FFF800
FFF000
FFF800
FFFC00
F8FE00
F87E00
F83F00
F83F80
F81F80
F80FC0
F80FE0
F807E0
F803F0
F803F8
F801FC
ENDCHAR
STARTCHAR 006C
ENCODING 108
SWIDTH 240 0
DWIDTH 11 0
BBX 6 34 3 0
BITMAP
FC
FC
FC
FC
FC
FC
FC
FC
FC
FC
FC
FC
FC
FC
FC
FC
FC
FC
FC
FC
FC
FC
FC
FC
FC
FC
FC
FC
FC
FC
FC
FC
FC
FC
ENDCHAR
STARTCHAR 006D
ENCODING 109
SWIDTH 850 0
DWIDTH 39 0
BBX 33 24 3 0
BITMAP
F07C03F000
F9FF1FFC00
FFFF3FFE00
FFFFBFFF00
FF0FF87F00
FC07F03F00
F807F01F80
F807E01F80
F803E01F80
F803E01F80
F803E01F80
F803E01F80
F803E01F80
F803E01F80
F803E01F80
F803E01F80
F803E01F80
F803E01F80
F803E01F80
F803E01F80
F803E01F80
F803E01F80
F803E01F80
F803E01F80
ENDCHAR
STARTCHAR 006E
ENCODING 110
SWIDTH 567 0
DWIDTH 26 0
BBX 20 24 3 0
BITMAP
F0FE00
F9FF80
FBFFC0
FFFFE0
FF07F0
FE03F0
FC03F0
F801F0
F801F0
F801F0
F801F0
F801F0
F801F0
F801F0
F801F0
F801F0
F801F0
F801F0
F801F0
F801F0
F801F0
F801F0
F801F0
F801F0
ENDCHAR
STARTCHAR 006F
ENCODING 111
SWIDTH 567 0
DWIDTH 26 0
BBX 23 24 2 0
BITMAP
01FE00
07FF80
0FFFE0
3FFFF0
3F83F8
7E01F8
7E00FC
FC00FC
FC007C
FC007E
F8007E
F8007E
F8007E
F8007E
FC007E
FC007C
FC00FC
7E00FC
7E01F8
3F83F8
3FFFF0
0FFFE0
07FF80
01FE00
ENDCHAR
STARTCHAR 0070
ENCODING 112
SWIDTH 567 0
DWIDTH 26 0
BBX 22 32 3 -8
BITMAP
F07F00
F9FF80
FBFFE0
FFFFE0
FF07F0
FE03F0
FC01F8
F801F8
F801F8
F800F8
F800F8
F800FC
F800FC
F800F8
F801F8
F801F8
F801F8
F803F8
FC03F0
FF0FF0
FFFFE0
FFFFC0
FBFF80
F8FE00
F80000
F80000
F80000
F80000
F80000
F80000
F80000
F80000
ENDCHAR
STARTCHAR 0071
ENCODING 113
SWIDTH 567 0
DWIDTH 26 0
BBX 21 32 2 -8
BITMAP
01F878
07FEF8
1FFFF8
3FFFF8
3F87F8
7E01F8
7E00F8
FC00F8
FC00F8
FC00F8
FC00F8
F800F8
F800F8
F800F8
FC00F8
FC00F8
FC00F8
FC01F8
7E03F8
7F07F8
3FFFF8
3FFEF8
0FFCF8
07F0F8
0000F8
0000F8
0000F8
0000F8
0000F8
0000F8
0000F8
0000F8
ENDCHAR
STARTCHAR 0072
ENCODING 114
SWIDTH 370 0
DWIDTH 17 0
BBX 14 24 3 0
BITMAP
F07C
F9FC
FBFC
FFFC
FFFC
FFFC
FF00
FE00
FC00
FC00
F800
F800
F800
F800
F800
F800
F800
F800
F800
F800
F800
F800
F800
F800
ENDCHAR
STARTCHAR 0073
ENCODING 115
SWIDTH 436 0
DWIDTH 20 0
BBX 18 24 1 0
BITMAP
03F800
0FFF00
1FFF80
3FFF80
7F0700
7C0000
7C0000
7C0000
7F0000
7FC000
3FF800
1FFE00
0FFF00
03FF80
007FC0
001FC0
000FC0
000FC0
300F80
7C1F80
FFFF80
7FFF00
3FFC00
07F000
ENDCHAR
STARTCHAR 0074
ENCODING 116
SWIDTH 370 0
DWIDTH 17 0
BBX 16 31 1 0
BITMAP
0780
0780
0F80
0F80
0F80
0F80
0F80
FFFE
FFFE
FFFE
FFFE
1F80
1F80
1F80
1F80
1F80
1F80
1F80
1F80
1F80
1F80
1F80
1F80
1F80
1F80
1F80
0FC4
0FFE
0FFE
07FF
01F8
ENDCHAR
STARTCHAR 0075
ENCODING 117
SWIDTH 567 0
DWIDTH 26 0
BBX 20 24 3 0
BITMAP
F803F0
F803F0
F803F0
F803F0
F803F0
F803F0
F803F0
F803F0
F803F0
F803F0
F803F0
F803F0
F803F0
F803F0
F803F0
F803F0
F803F0
FC03F0
FC07F0
FE0FF0
7FFFF0
3FFDF0
1FF9F0
07E1F0
ENDCHAR
STARTCHAR 0076
ENCODING 118
SWIDTH 523 0
DWIDTH 24 0
BBX 24 24 0 0
BITMAP
FC003F
7E003F
7E007E
3E007E
3F007C
3F00FC
1F00FC
1F80F8
0F81F8
0FC1F0
0FC1F0
07C3F0
07E3E0
07E3E0
03E7C0
03F7C0
01F7C0
01FF80
01FF80
00FF00
00FF00
007F00
007E00
007E00
ENDCHAR
STARTCHAR 0077
ENCODING 119
SWIDTH 807 0
DWIDTH 37 0
BBX 37 24 0 0
BITMAP
FC00F801F8
7E00FC03F0
7E01FC03F0
7E01FC03E0
3E01FC03E0
3F03FE07E0
3F03FE07C0
1F03DE07C0
1F83DF07C0
1F87DF0FC0
0F878F0F80
0F878F0F80
0FCF8F8F80
07CF0F9F00
07CF079F00
07DF07DF00
03DF07DE00
03FE03FE00
03FE03FE00
03FE03FC00
01FC01FC00
01FC01FC00
01FC01F800
00F800F800
ENDCHAR
STARTCHAR 0078
ENCODING 120
SWIDTH 523 0
DWIDTH 24 0
BBX 24 24 0 0
BITMAP
FE007F
7F007E
3F00FC
1F81F8
1FC1F0
0FC3F0
07E7E0
07F7C0
03FFC0
01FF80
01FF00
00FF00
00FF80
01FF80
03FFC0
03EFC0
07E7E0
0FC3F0
0FC3F0
1F81F8
3F01FC
3F00FC
7E007E
FC007F
ENDCHAR
STARTCHAR 0079
ENCODING 121
SWIDTH 523 0
DWIDTH 24 0
BBX 24 32 0 -8
BITMAP
FC001F
7E003F
7E003E
3F007E
3F007C
3F00FC
1F80FC
1F80F8
0FC1F8
0FC1F0
07C1F0
07E3E0
07E3E0
03F7E0
03F7C0
01F7C0
01FF80
00FF80
00FF80
00FF00
007F00
007E00
003E00
007C00
007C00
00FC00
00F800
01F800
01F000
03F000
03F000
07E000
ENDCHAR
STARTCHAR 007A
ENCODING 122
SWIDTH 458 0
DWIDTH 21 0
BBX 19 24 1 0
BITMAP
7FFFE0
7FFFE0
7FFFE0
7FFFE0
000FC0
001F80
003F80
003F00
007E00
00FC00
00FC00
01F800
03F000
07F000
07E000
0FC000
1F8000
1F8000
3F0000
7E0000
7FFFC0
FFFFC0
FFFFC0
FFFFC0
ENDCHAR
STARTCHAR 007B
ENCODING 123
SWIDTH 305 0
DWIDTH 14 0
BBX 12 43 1 -7
BITMAP
01F0
07F0
0FF0
1FF0
1F80
3F00
3E00
3E00
3E00
3E00
3E00
3E00
1E00
1F00
1F00
1F00
1F00
1F00
1F00
3E00
FE00
FC00
F800
FE00
3E00
1F00
1F00
1F00
1F00
1F00
1F00
3E00
3E00
3E00
3E00
3E00
3E00
3E00
1F00
1FE0
0FF0
07F0
01F0
ENDCHAR
STARTCHAR 007C
ENCODING 124
SWIDTH 261 0
DWIDTH 12 0
BBX 4 44 4 -8
BITMAP
F0
F0
F0
F0
F0
F0
F0
F0
F0
F0
F0
F0
F0
F0
F0
F0
F0
F0
F0
F0
F0
F0
F0
F0
F0
F0
F0
F0
F0
F0
F0
F0
F0
F0
F0
F0
F0
F0
F0
F0
F0
F0
F0
F0
ENDCHAR
STARTCHAR 007D
ENCODING 125
SWIDTH 305 0
DWIDTH 14 0
BBX 12 43 1 -7
BITMAP
F800
FE00
FF00
7F80
0F80
0FC0
07C0
07C0
07C0
07C0
07C0
07C0
0780
0F80
0F80
0F80
0F80
0F80
0F80
07C0
07F0
01F0
01F0
07F0
07C0
0F80
0F80
0F80
0F80
0F80
0780
07C0
07C0
07C0
07C0
07C0
07C0
07C0
0FC0
7F80
FF00
FE00
F800
ENDCHAR
STARTCHAR 007E
ENCODING 126
SWIDTH 589 0
DWIDTH 27 0
BBX 23 9 2 9
BITMAP
00003E
00003C
0FC07C
1FF87C
3FFFFC
7FFFF8
7C3FF0
F807C0
F80000
ENDCHAR
STARTCHAR 00A0
ENCODING 160
SWIDTH 240 0
DWIDTH 11 0
BBX 0 0 0 0
BITMAP
ENDCHAR
STARTCHAR 00A1
ENCODING 161
SWIDTH 261 0
DWIDTH 12 0
BBX 7 32 3 -8
BITMAP
78
FC
FC
FE
FE
FC
78
00
00
00
00
78
78
78
7C
7C
7C
7C
7C
7C
7C
7C
7C
7C
7C
7C
7C
7C
7C
7C
7C
7C
ENDCHAR
STARTCHAR 00A2
ENCODING 162
SWIDTH 589 0
DWIDTH 27 0
BBX 21 34 3 -5
BITMAP
000E00
000E00
000E00
001E00
001E00
00FF00
07FFC0
0FFFF0
1FFFF8
3FDDF0
7F1C60
7E1C00
FC1C00
FC1C00
FC1C00
F83C00
F83C00
F83C00
F83C00
FC3C00
FC3C00
FC3800
7E3800
7F3870
3FB9F0
1FFFF8
0FFFF0
07FFE0
01FF00
007800
007800
007800
007800
007000
ENDCHAR
STARTCHAR 00A3
ENCODING 163
SWIDTH 589 0
DWIDTH 27 0
BBX 25 33 1 0
BITMAP
001FC000
007FF000
01FFFC00
03FFFC00
03FFFE00
07F07F00
07E03E00
0FE00800
0FC00000
0FC00000
0FC00000
0FC00000
0FC00000
0FC00000
0FC00000
FFFFE000
FFFFE000
FFFFE000
FFFFE000
0FC00000
0FC00000
0FC00000
0FC00000
0FC00000
0FC00000
0FC00000
0F800000
1F800000
3FFFFF80
FFFFFF80
FFFFFF80
FFFFFF80
FFFFFF00
ENDCHAR
STARTCHAR 00A4
ENCODING 164
SWIDTH 589 0
DWIDTH 27 0
BBX 21 21 3 5
BITMAP
200060
7000F0
F9F9F8
FFFFF0
7FFFE0
1FFFC0
1F0FC0
3E03C0
3C03E0
3C01E0
3C01E0
3C01E0
3C03E0
3E03C0
1F0FC0
1FFFC0
3FFFE0
7FFFF0
F9F8F8
700070
200020
ENDCHAR
STARTCHAR 00A5
ENCODING 165
SWIDTH 589 0
DWIDTH 27 0
BBX 26 33 0 0
BITMAP
FE000FC0
7E001FC0
3F001F80
3F001F80
3F803F00
1F803F00
1F807E00
0FC07E00
0FC0FC00
07E0FC00
07E0F800
03F1F800
03F1F000
01F3F000
01FBE000
00FBE000
00FFC000
007FC000
007F8000
1FFFFF00
1FFFFF00
1FFFFF00
003F0000
003F0000
1FFFFF00
1FFFFF00
1FFFFF00
003F0000
003F0000
003F0000
003F0000
003F0000
003F0000
ENDCHAR
STARTCHAR 00A6
ENCODING 166
SWIDTH 261 0
DWIDTH 12 0
BBX 4 43 4 -8
BITMAP
F0
F0
F0
F0
F0
F0
F0
F0
F0
F0
F0
F0
F0
F0
F0
F0
F0
F0
F0
00
00
00
00
00
F0
F0
F0
F0
F0
F0
F0
F0
F0
F0
F0
F0
F0
F0
F0
F0
F0
F0
F0
ENDCHAR
STARTCHAR 00A7
ENCODING 167
SWIDTH 501 0
DWIDTH 23 0
BBX 19 36 2 -3
BITMAP
01FC00
07FF00
1FFFC0
1FFFC0
3F0780
3E0000
3E0000
7E0000
3F0000
3F8000
3FF000
1FFC00
1FFF00
3FFF80
7CFFC0
F83FE0
F80FE0
F803E0
FC03E0
FE03E0
7F83E0
7FF7C0
3FFF80
0FFF00
03FF80
007F80
001FC0
000FC0
0007C0
0007C0
3007C0
7C1F80
7FFF80
FFFF00
3FFE00
07F000
ENDCHAR
STARTCHAR 00A8
ENCODING 168
SWIDTH 392 0
DWIDTH 18 0
BBX 16 6 1 27
BITMAP
381E
7C3F
FE3F
FE3F
7C3F
381E
ENDCHAR
STARTCHAR 00A9
ENCODING 169
SWIDTH 829 0
DWIDTH 38 0
BBX 34 33 2 0
BITMAP
0007F80000
003FFF0000
00FFFFC000
01F807E000
07E001F800
0F83F87C00
1F0FFE3C00
1E1FFF1E00
3C3FFF8F00
387E0F0700
70FC020780
70F8000380
F1F8000380
E1F00001C0
E1F00001C0
E1F00001C0
E1F00001C0
E1F00001C0
E1F00001C0
E1F00001C0
F0F8000380
70FC020380
707E0F0780
387FFF8700
3C3FFF0F00
1C0FFE1E00
1E03F83C00
0F80007C00
07C001F800
03F807E000
00FFFFC000
003FFF0000
0007F80000
ENDCHAR
STARTCHAR 00AA
ENCODING 170
SWIDTH 370 0
DWIDTH 17 0
BBX 12 15 2 18
BITMAP
0F80
3FE0
7FE0
7FF0
70F0
00F0
00F0
0FF0
3FF0
FFF0
F0F0
F0F0
FFF0
7F70
3E70
ENDCHAR
STARTCHAR 00AB
ENCODING 171
SWIDTH 458 0
DWIDTH 21 0
BBX 17 19 2 3
BITMAP
020200
070700
0F8F80
0F0F00
1F1F00
3E3E00
3E3E00
7C7C00
787800
F8F800
F8F800
7C7C00
3C3C00
3E3E00
1F1F00
0F0F00
0F8F80
078780
020200
ENDCHAR
STARTCHAR 00AC
ENCODING 172
SWIDTH 589 0
DWIDTH 27 0
BBX 20 10 3 7
BITMAP
FFFFF0
FFFFF0
FFFFF0
FFFFF0
0000F0
0000F0
0000F0
0000F0
0000F0
0000F0
ENDCHAR
STARTCHAR 00AD
ENCODING 173
SWIDTH 370 0
DWIDTH 17 0
BBX 12 5 3 12
BITMAP
FFF0
FFF0
FFF0
FFF0
FFF0
ENDCHAR
STARTCHAR 00AE
ENCODING 174
SWIDTH 829 0
DWIDTH 38 0
BBX 34 33 2 0
BITMAP
0007F80000
003FFF0000
00FFFFC000
01F807E000
07E001F800
0F80007C00
1F7FF83C00
1E7FFE1E00
3C7FFF0F00
387FFF8700
707C1F8780
707C0F8380
F07C0F8380
E07C0F81C0
E07C1F81C0
E07FFF01C0
E07FFE01C0
E07FF801C0
E07FFC01C0
E07C7E01C0
F07C3E0380
707C3F0380
707C1F0780
387C1F8700
3C7C0FCF00
1C7C0FDE00
1E00003C00
0F80007C00
07C001F800
03F807E000
00FFFFC000
003FFF0000
0007F80000
ENDCHAR
STARTCHAR 00AF
ENCODING 175
SWIDTH 392 0
DWIDTH 18 0
BBX 14 4 2 28
BITMAP
FFFC
FFFC
FFFC
FFFC
ENDCHAR
STARTCHAR 00B0
ENCODING 176
SWIDTH 414 0
DWIDTH 19 0
BBX 16 16 2 17
BITMAP
07C0
1FF0
3FF8
7FFC
FC7E
F01E
F01E
F01F
F01F
F01E
F01E
FC7E
7FFC
3FF8
1FF0
07C0
ENDCHAR
STARTCHAR 00B1
ENCODING 177
SWIDTH 589 0
DWIDTH 27 0
BBX 23 27 2 2
BITMAP
007C00
007C00
007C00
007C00
007C00
007C00
007C00
007C00
007C00
FFFFFE
FFFFFE
FFFFFE
FFFFFE
007C00
007C00
007C00
007C00
007C00
007C00
007C00
000000
000000
000000
FFFFFE
FFFFFE
FFFFFE
FFFFFE
ENDCHAR
STARTCHAR 00B2
ENCODING 178
SWIDTH 327 0
DWIDTH 15 0
BBX 13 18 1 21
BITMAP
0F80
3FE0
3FF0
7FF0
78F0
F8F0
00F0
00F0
01E0
03E0
03C0
0F80
1F00
3E00
7FF0
7FF8
FFF8
FFF8
ENDCHAR
STARTCHAR 00B3
ENCODING 179
SWIDTH 327 0
DWIDTH 15 0
BBX 13 18 1 21
BITMAP
0F80
1FE0
3FF0
7FF0
78F0
78F0
00F0
00F0
07E0
07C0
07F0
00F0
30F8
F8F8
7FF0
7FF0
3FE0
0F80
ENDCHAR
STARTCHAR 00B4
ENCODING 180
SWIDTH 392 0
DWIDTH 18 0
BBX 11 7 6 26
BITMAP
0FE0
1FC0
1F80
3F00
3E00
7C00
F800
ENDCHAR
STARTCHAR 00B5
ENCODING 181
SWIDTH 654 0
DWIDTH 30 0
BBX 25 32 4 -8
BITMAP
F801F000
F801F000
F801F000
F801F000
F801F000
F801F000
F801F000
F801F000
F801F000
F801F000
F801F000
F801F000
F801F000
F801F000
F801F000
F801F000
FC03F000
FC03F000
FC07F800
FE0FF800
FFFEFF80
FFFCFF80
FFF87F80
FBF01F00
F8000000
F8000000
F8000000
F8000000
F8000000
F8000000
F8000000
78000000
ENDCHAR
STARTCHAR 00B6
ENCODING 182
SWIDTH 741 0
DWIDTH 34 0
BBX 30 38 2 -5
BITMAP
03FFFFFC
0FFFFFFC
1FFFFFFC
3FFFFFFC
7FFFFFFC
FFFE0F80
FFFE0F80
FFFE0F80
FFFE0F80
FFFE0F80
FFFE0F80
FFFE0F80
FFFE0F80
FFFE0F80
7FFE0F80
3FFE0F80
1FFE0F80
0FFE0F80
03FE0F80
003E0F80
003E0F80
003E0F80
003E0F80
003E0F80
003E0F80
003E0F80
003E0F80
003E0F80
003E0F80
003E0F80
003E0F80
003E0F80
003E0F80
003E0F80
003E0F80
003E0F80
003E0F80
003E0F80
ENDCHAR
STARTCHAR 00B7
ENCODING 183
SWIDTH 283 0
DWIDTH 13 0
BBX 9 9 2 9
BITMAP
3C00
7F00
FF00
FF80
FF80
FF80
FF00
7F00
3C00
ENDCHAR
STARTCHAR 00B8
ENCODING 184
SWIDTH 392 0
DWIDTH 18 0
BBX 9 9 5 -9
BITMAP
1C00
3C00
3C00
7F00
0F80
0780
4780
7F00
FE00
ENDCHAR
STARTCHAR 00B9
ENCODING 185
SWIDTH 327 0
DWIDTH 15 0
BBX 11 17 2 21
BITMAP
0F80
1F80
3F80
7F80
FF80
7780
4F80
0F80
0F80
0F80
0F80
0F80
0F80
0F80
7FE0
7FE0
7FE0
ENDCHAR
STARTCHAR 00BA
ENCODING 186
SWIDTH 392 0
DWIDTH 18 0
BBX 15 16 2 17
BITMAP
0FC0
1FF0
7FF8
7FFC
F87C
F83C
F03E
F03E
F03E
F03E
F83C
F87C
7FFC
7FF8
1FF0
0FC0
ENDCHAR
STARTCHAR 00BB
ENCODING 187
SWIDTH 458 0
DWIDTH 21 0
BBX 16 19 3 3
BITMAP
2020
E0E0
F0F0
F8F8
7878
7C7C
3E3E
3E3E
1F1F
0F0F
1F1F
1E1E
3E3E
7C7C
7878
F8F8
F0F0
E0E0
6060
ENDCHAR
STARTCHAR 00BC
ENCODING 188
SWIDTH 741 0
DWIDTH 34 0
BBX 30 33 2 0
BITMAP
0F8001F0
1F8003E0
3F8003C0
7F800780
FF800F80
77800F00
4F801F00
0F801E00
0F803C00
0F807C00
0F807800
0F80F000
0F80F000
0F81E000
7FE3E000
7FE3C000
7FE780F0
000F81F0
000F03F0
001F07F0
001E0770
003C0F70
007C1E70
00783C70
00F03870
00F07870
01E0FFFC
03E07FFC
03C07FFC
07800070
0F800070
0F000070
1E000070
ENDCHAR
STARTCHAR 00BD
ENCODING 189
SWIDTH 741 0
DWIDTH 34 0
BBX 30 33 2 0
BITMAP
0F8003E0
1F8007C0
3F800780
7F800F00
FF801F00
77801E00
4F803E00
0F803C00
0F807800
0F80F800
0F80F000
0F81E000
0F81E000
0F83C000
7FE7C000
7FE787C0
7FEF1FF0
001F1FF8
001E3FF8
003E3C78
003C7C78
00780078
00F80078
00F000F0
01E001F0
01E001E0
03C007C0
07C00F80
07801F00
0F003FF8
1F003FFC
1E007FFC
3C007FFC
ENDCHAR
STARTCHAR 00BE
ENCODING 190
SWIDTH 741 0
DWIDTH 34 0
BBX 31 34 2 0
BITMAP
0F800000
1FE000F8
3FF001F0
7FF001E0
78F003C0
78F007C0
00F00780
00F00F80
07E00F00
07C01E00
07F03E00
00F03C00
30F87800
F8F87800
7FF0F000
7FF1F000
3FE1E000
0F83C078
0007C0F8
000781F8
000F83F8
000F03B8
001E07B8
003E0F38
003C1E38
00781C38
00783C38
00F07FFE
01F03FFE
01E03FFE
03C00038
07C00038
07800038
0F000038
ENDCHAR
STARTCHAR 00BF
ENCODING 191
SWIDTH 458 0
DWIDTH 21 0
BBX 17 33 2 -9
BITMAP
00E000
01F000
03F800
03F800
03F800
01F000
00E000
000000
000000
000000
000000
01E000
01F000
01F000
01F000
01F000
03F000
07F000
1FE000
3FC000
7F0000
7E0000
FC0000
F80000
F80000
F80000
F80000
FC0300
FE0F80
7FFF80
3FFF80
1FFE00
07F000
ENDCHAR
STARTCHAR 00C0
ENCODING 192
SWIDTH 698 0
DWIDTH 32 0
BBX 32 43 0 0
BITMAP
03FC0000
00FE0000
007F0000
003F0000
001F8000
000FC000
0007E000
00000000
00000000
00000000
0007E000
000FF000
000FF000
001FF800
001FF800
001FF800
003FFC00
003FFC00
007E7E00
007E7E00
007E7E00
00FC3F00
00FC3F00
01F81F00
01F81F80
01F81F80
03F00FC0
03F00FC0
07F00FC0
07E007E0
07E007E0
0FFFFFF0
0FFFFFF0
0FFFFFF0
1FFFFFF8
1F8001F8
3F8001FC
3F0000FC
3F0000FC
7E00007E
7E00007E
FE00007F
FC00003F
ENDCHAR
STARTCHAR 00C1
ENCODING 193
SWIDTH 698 0
DWIDTH 32 0
BBX 32 43 0 0
BITMAP
00007F80
0000FF00
0001FC00
0003F800
0003F000
0007E000
000FC000
00000000
00000000
00000000
0007E000
000FF000
000FF000
001FF800
001FF800
001FF800
003FFC00
003FFC00
007E7E00
007E7E00
007E7E00
00FC3F00
00FC3F00
01F81F00
01F81F80
01F81F80
03F00FC0
03F00FC0
07F00FC0
07E007E0
07E007E0
0FFFFFF0
0FFFFFF0
0FFFFFF0
1FFFFFF8
1F8001F8
3F8001FC
3F0000FC
3F0000FC
7E00007E
7E00007E
FE00007F
FC00003F
ENDCHAR
STARTCHAR 00C2
ENCODING 194
SWIDTH 698 0
DWIDTH 32 0
BBX 32 43 0 0
BITMAP
0003E000
0007F000
000FF800
001FF800
003E7C00
007C3E00
00FC1F00
00000000
00000000
00000000
0007E000
000FF000
000FF000
001FF800
001FF800
001FF800
003FFC00
003FFC00
007E7E00
007E7E00
007E7E00
00FC3F00
00FC3F00
01F81F00
01F81F80
01F81F80
03F00FC0
03F00FC0
07F00FC0
07E007E0
07E007E0
0FFFFFF0
0FFFFFF0
0FFFFFF0
1FFFFFF8
1F8001F8
3F8001FC
3F0000FC
3F0000FC
7E00007E
7E00007E
FE00007F
FC00003F
ENDCHAR
STARTCHAR 00C3
ENCODING 195
SWIDTH 698 0
DWIDTH 32 0
BBX 32 41 0 0
BITMAP
001E0780
003FCF00
007FFF00
007FFF00
00F1FE00
00F07C00
00000000
00000000
0007E000
000FF000
000FF000
001FF800
001FF800
001FF800
003FFC00
003FFC00
007E7E00
007E7E00
007E7E00
00FC3F00
00FC3F00
01F81F00
01F81F80
01F81F80
03F00FC0
03F00FC0
07F00FC0
07E007E0
07E007E0
0FFFFFF0
0FFFFFF0
0FFFFFF0
1FFFFFF8
1F8001F8
3F8001FC
3F0000FC
3F0000FC
7E00007E
7E00007E
FE00007F
FC00003F
ENDCHAR
STARTCHAR 00C4
ENCODING 196
SWIDTH 698 0
DWIDTH 32 0
BBX 32 41 0 0
BITMAP
00780E00
007C1F00
00FC3F00
00FC3F00
00FC1F00
00781E00
00000000
00000000
0007E000
000FF000
000FF000
001FF800
001FF800
001FF800
003FFC00
003FFC00
007E7E00
007E7E00
007E7E00
00FC3F00
00FC3F00
01F81F00
01F81F80
01F81F80
03F00FC0
03F00FC0
07F00FC0
07E007E0
07E007E0
0FFFFFF0
0FFFFFF0
0FFFFFF0
1FFFFFF8
1F8001F8
3F8001FC
3F0000FC
3F0000FC
7E00007E
7E00007E
FE00007F
FC00003F
ENDCHAR
STARTCHAR 00C5
ENCODING 197
SWIDTH 698 0
DWIDTH 32 0
BBX 32 44 0 0
BITMAP
0003C000
0007F000
000E7000
000C3800
001C3800
000C3800
000E7800
0007F000
0003C000
00000000
00000000
0007E000
000FF000
000FF000
001FF800
001FF800
001FF800
003FFC00
003FFC00
007E7E00
007E7E00
007E7E00
00FC3F00
00FC3F00
01F81F00
01F81F80
01F81F80
03F00FC0
03F00FC0
07F00FC0
07E007E0
07E007E0
0FFFFFF0
0FFFFFF0
0FFFFFF0
1FFFFFF8
1F8001F8
3F8001FC
3F0000FC
3F0000FC
7E00007E
7E00007E
FE00007F
FC00003F
ENDCHAR
STARTCHAR 00C6
ENCODING 198
SWIDTH 938 0
DWIDTH 43 0
BBX 41 33 0 0
BITMAP
0000FFFFFF80
0000FFFFFF80
0001FFFFFF80
0001FFFFFF80
0003FFFFFF80
0003FF800000
0007FF800000
0007CF800000
000FCFC00000
000F8FC00000
001F8FC00000
001F0FC00000
003F0FC00000
003F0FC00000
007E0FFFFC00
00FE07FFFC00
00FC07FFFC00
01FC07FFFC00
01F807FFFC00
03F807E00000
03F007E00000
07FFFFE00000
07FFFFE00000
0FFFFFE00000
0FFFFFF00000
1FC003F00000
1F8003F00000
3F8003F00000
3F0003FFFF80
7F0003FFFF80
7E0003FFFF80
FE0001FFFF80
FC0001FFFF80
ENDCHAR
STARTCHAR 00C7
ENCODING 199
SWIDTH 654 0
DWIDTH 30 0
BBX 28 42 2 -9
BITMAP
000FF000
007FFE00
01FFFF80
03FFFFE0
07FFFFE0
0FF80FC0
1FE003C0
3FC00180
3F800000
7F000000
7E000000
7E000000
FE000000
FC000000
FC000000
FC000000
FC000000
FC000000
FC000000
FC000000
FC000000
FE000000
FE000000
7E000000
7F000000
7F800000
3F800080
3FE003C0
1FF80FE0
0FFFFFF0
07FFFFE0
03FFFFC0
00FFFF00
003FFC00
00038000
00038000
0007E000
0007F800
0000F800
0000F800
000FF000
000FE000
ENDCHAR
STARTCHAR 00C8
ENCODING 200
SWIDTH 567 0
DWIDTH 26 0
BBX 21 43 4 0
BITMAP
7F8000
1FC000
0FE000
07E000
03F000
01F800
00FC00
000000
000000
000000
FFFFF8
FFFFF8
FFFFF8
FFFFF8
FFFFF8
FC0000
FC0000
FC0000
FC0000
FC0000
FC0000
FC0000
FC0000
FC0000
FFFFC0
FFFFC0
FFFFC0
FFFFC0
FFFFC0
FC0000
FC0000
FC0000
FC0000
FC0000
FC0000
FC0000
FC0000
FC0000
FFFFF8
FFFFF8
FFFFF8
FFFFF8
FFFFF8
ENDCHAR
STARTCHAR 00C9
ENCODING 201
SWIDTH 567 0
DWIDTH 26 0
BBX 21 43 4 0
BITMAP
000FF0
001FE0
003F80
007F00
007E00
00FC00
01F800
000000
000000
000000
FFFFF8
FFFFF8
FFFFF8
FFFFF8
FFFFF8
FC0000
FC0000
FC0000
FC0000
FC0000
FC0000
FC0000
FC0000
FC0000
FFFFC0
FFFFC0
FFFFC0
FFFFC0
FFFFC0
FC0000
FC0000
FC0000
FC0000
FC0000
FC0000
FC0000
FC0000
FC0000
FFFFF8
FFFFF8
FFFFF8
FFFFF8
FFFFF8
ENDCHAR
STARTCHAR 00CA
ENCODING 202
SWIDTH 567 0
DWIDTH 26 0
BBX 21 43 4 0
BITMAP
00F800
01FC00
03FE00
07FE00
0F9F00
1F0F80
3F07C0
000000
000000
000000
FFFFF8
FFFFF8
FFFFF8
FFFFF8
FFFFF8
FC0000
FC0000
FC0000
FC0000
FC0000
FC0000
FC0000
FC0000
FC0000
FFFFC0
FFFFC0
FFFFC0
FFFFC0
FFFFC0
FC0000
FC0000
FC0000
FC0000
FC0000
FC0000
FC0000
FC0000
FC0000
FFFFF8
FFFFF8
FFFFF8
FFFFF8
FFFFF8
ENDCHAR
STARTCHAR 00CB
ENCODING 203
SWIDTH 567 0
DWIDTH 26 0
BBX 21 41 4 0
BITMAP
1E0380
1F07C0
3F0FC0
3F0FC0
3F07C0
1E0780
000000
000000
FFFFF8
FFFFF8
FFFFF8
FFFFF8
FFFFF8
FC0000
FC0000
FC0000
FC0000
FC0000
FC0000
FC0000
FC0000
FC0000
FFFFC0
FFFFC0
FFFFC0
FFFFC0
FFFFC0
FC0000
FC0000
FC0000
FC0000
FC0000
FC0000
FC0000
FC0000
FC0000
FFFFF8
FFFFF8
FFFFF8
FFFFF8
FFFFF8
ENDCHAR
STARTCHAR 00CC
ENCODING 204
SWIDTH 305 0
DWIDTH 14 0
BBX 13 43 -3 0
BITMAP
FF00
3F80
1FC0
0FC0
07E0
03F0
01F8
0000
0000
0000
01F8
01F8
01F8
01F8
01F8
01F8
01F8
01F8
01F8
01F8
01F8
01F8
01F8
01F8
01F8
01F8
01F8
01F8
01F8
01F8
01F8
01F8
01F8
01F8
01F8
01F8
01F8
01F8
01F8
01F8
01F8
01F8
01F8
ENDCHAR
STARTCHAR 00CD
ENCODING 205
SWIDTH 305 0
DWIDTH 14 0
BBX 13 43 3 0
BITMAP
07F8
0FF0
1FC0
3F80
3F00
7E00
FC00
0000
0000
0000
7E00
7E00
7E00
7E00
7E00
7E00
7E00
7E00
7E00
7E00
7E00
7E00
7E00
7E00
7E00
7E00
7E00
7E00
7E00
7E00
7E00
7E00
7E00
7E00
7E00
7E00
7E00
7E00
7E00
7E00
7E00
7E00
7E00
ENDCHAR
STARTCHAR 00CE
ENCODING 206
SWIDTH 305 0
DWIDTH 14 0
BBX 16 43 -1 0
BITMAP
03E0
07F0
0FF8
1FF8
3E7C
7C3E
FC1F
0000
0000
0000
07E0
07E0
07E0
07E0
07E0
07E0
07E0
07E0
07E0
07E0
07E0
07E0
07E0
07E0
07E0
07E0
07E0
07E0
07E0
07E0
07E0
07E0
07E0
07E0
07E0
07E0
07E0
07E0
07E0
07E0
07E0
07E0
07E0
ENDCHAR
STARTCHAR 00CF
ENCODING 207
SWIDTH 305 0
DWIDTH 14 0
BBX 16 41 -1 0
BITMAP
780E
7C1F
FC3F
FC3F
FC1F
781E
0000
0000
07E0
07E0
07E0
07E0
07E0
07E0
07E0
07E0
07E0
07E0
07E0
07E0
07E0
07E0
07E0
07E0
07E0
07E0
07E0
07E0
07E0
07E0
07E0
07E0
07E0
07E0
07E0
07E0
07E0
07E0
07E0
07E0
07E0
ENDCHAR
STARTCHAR 00D0
ENCODING 208
SWIDTH 763 0
DWIDTH 35 0
BBX 34 33 0 0
BITMAP
0FFFF80000
0FFFFF0000
0FFFFFC000
0FFFFFF000
0FFFFFF800
0FC00FFC00
0FC001FE00
0FC000FE00
0FC0007F00
0FC0003F00
0FC0003F80
0FC0001F80
0FC0001F80
0FC0001F80
FFFF001FC0
FFFF001FC0
FFFF001FC0
FFFF001FC0
0FC0001FC0
0FC0001F80
0FC0001F80
0FC0001F80
0FC0003F80
0FC0003F00
0FC0007F00
0FC000FE00
0FC001FE00
0FC00FFC00
0FFFFFF800
0FFFFFF000
0FFFFFC000
0FFFFF0000
0FFFF80000
ENDCHAR
STARTCHAR 00D1
ENCODING 209
SWIDTH 763 0
DWIDTH 35 0
BBX 28 41 4 0
BITMAP
00781E00
00FF3C00
01FFFC00
01FFFC00
03C7F800
03C1F000
00000000
00000000
F80003F0
F80003F0
FC0003F0
FE0003F0
FF0003F0
FF8003F0
FF8003F0
FFC003F0
FFE003F0
FFF003F0
FFF003F0
FBF803F0
F9FC03F0
F8FE03F0
F87F03F0
F87F03F0
F83F83F0
F81FC3F0
F80FE3F0
F80FF3F0
F807F3F0
F803FBF0
F801FFF0
F800FFF0
F800FFF0
F8007FF0
F8003FF0
F8001FF0
F8000FF0
F8000FF0
F80007F0
F80003F0
F80001F0
ENDCHAR
STARTCHAR 00D2
ENCODING 210
SWIDTH 807 0
DWIDTH 37 0
BBX 33 43 2 0
BITMAP
01FE000000
007F000000
003F800000
001F800000
000FC00000
0007E00000
0003F00000
0000000000
0000000000
0000000000
000FF80000
007FFF0000
01FFFFC000
03FFFFE000
07FFFFF800
0FF80FF800
1FE003FC00
3F8000FE00
3F80007F00
7F00007F00
7E00003F00
FE00003F80
FE00001F80
FC00001F80
FC00001F80
FC00001F80
FC00001F80
FC00001F80
FC00001F80
FC00001F80
FE00001F80
FE00003F80
7E00003F00
7F00007F00
3F00007F00
3F8000FE00
1FE003FC00
0FF80FFC00
07FFFFF800
03FFFFE000
01FFFFC000
007FFF0000
000FF80000
ENDCHAR
STARTCHAR 00D3
ENCODING 211
SWIDTH 807 0
DWIDTH 37 0
BBX 33 43 2 0
BITMAP
00003FC000
00007F8000
0000FE0000
0001FC0000
0001F80000
0003F00000
0007E00000
0000000000
0000000000
0000000000
000FF80000
007FFF0000
01FFFFC000
03FFFFE000
07FFFFF800
0FF80FF800
1FE003FC00
3F8000FE00
3F80007F00
7F00007F00
7E00003F00
FE00003F80
FE00001F80
FC00001F80
FC00001F80
FC00001F80
FC00001F80
FC00001F80
FC00001F80
FC00001F80
FE00001F80
FE00003F80
7E00003F00
7F00007F00
3F00007F00
3F8000FE00
1FE003FC00
0FF80FFC00
07FFFFF800
03FFFFE000
01FFFFC000
007FFF0000
000FF80000
ENDCHAR
STARTCHAR 00D4
ENCODING 212
SWIDTH 807 0
DWIDTH 37 0
BBX 33 43 2 0
BITMAP
0003E00000
0007F00000
000FF80000
001FF80000
003E7C0000
007C3E0000
00FC1F0000
0000000000
0000000000
0000000000
000FF80000
007FFF0000
01FFFFC000
03FFFFE000
07FFFFF800
0FF80FF800
1FE003FC00
3F8000FE00
3F80007F00
7F00007F00
7E00003F00
FE00003F80
FE00001F80
FC00001F80
FC00001F80
FC00001F80
FC00001F80
FC00001F80
FC00001F80
FC00001F80
FE00001F80
FE00003F80
7E00003F00
7F00007F00
3F00007F00
3F8000FE00
1FE003FC00
0FF80FFC00
07FFFFF800
03FFFFE000
01FFFFC000
007FFF0000
000FF80000
ENDCHAR
STARTCHAR 00D5
ENCODING 213
SWIDTH 807 0
DWIDTH 37 0
BBX 33 41 2 0
BITMAP
001E078000
003FCF0000
007FFF0000
007FFF0000
00F1FE0000
00F07C0000
0000000000
0000000000
000FF80000
007FFF0000
01FFFFC000
03FFFFE000
07FFFFF800
0FF80FF800
1FE003FC00
3F8000FE00
3F80007F00
7F00007F00
7E00003F00
FE00003F80
FE00001F80
FC00001F80
FC00001F80
FC00001F80
FC00001F80
FC00001F80
FC00001F80
FC00001F80
FE00001F80
FE00003F80
7E00003F00
7F00007F00
3F00007F00
3F8000FE00
1FE003FC00
0FF80FFC00
07FFFFF800
03FFFFE000
01FFFFC000
007FFF0000
000FF80000
ENDCHAR
STARTCHAR 00D6
ENCODING 214
SWIDTH 807 0
DWIDTH 37 0
BBX 33 41 2 0
BITMAP
00780E0000
007C1F0000
00FC3F0000
00FC3F0000
00FC1F0000
00781E0000
0000000000
0000000000
000FF80000
007FFF0000
01FFFFC000
03FFFFE000
07FFFFF800
0FF80FF800
1FE003FC00
3F8000FE00
3F80007F00
7F00007F00
7E00003F00
FE00003F80
FE00001F80
FC00001F80
FC00001F80
FC00001F80
FC00001F80
FC00001F80
FC00001F80
FC00001F80
FE00001F80
FE00003F80
7E00003F00
7F00007F00
3F00007F00
3F8000FE00
1FE003FC00
0FF80FFC00
07FFFFF800
03FFFFE000
01FFFFC000
007FFF0000
000FF80000
ENDCHAR
STARTCHAR 00D7
ENCODING 215
SWIDTH 589 0
DWIDTH 27 0
BBX 21 21 3 5
BITMAP
200040
7000E0
F801F0
FC03F8
7E07E0
3F0FC0
1F9F80
0FFF00
07FE00
03FC00
01F800
03FC00
07FE00
0FFF00
1F9F80
3F0FC0
7E07E0
FC03F0
F801F8
7000F0
200060
ENDCHAR
STARTCHAR 00D8
ENCODING 216
SWIDTH 807 0
DWIDTH 37 0
BBX 33 37 2 -2
BITMAP
0000000F80
0000001E00
000FF83E00
007FFF3C00
01FFFFF800
03FFFFF800
07FFFFF800
0FF80FFC00
1FE003FE00
3F8007FE00
3F8007FF00
7F000FFF00
7E001F3F80
FE003E3F80
FE003C1F80
FC007C1F80
FC00F81F80
FC01F01F80
FC01E01F80
FC03E01F80
FC07C01F80
FC07801F80
FC0F001F80
FE1F003F80
7E3E003F00
7F3C007F00
7F78007E00
3FF800FE00
1FF003FC00
1FF80FF800
0FFFFFF000
07FFFFE000
0FFFFFC000
1F7FFF0000
1E0FF80000
3E00000000
7800000000
ENDCHAR
STARTCHAR 00D9
ENCODING 217
SWIDTH 741 0
DWIDTH 34 0
BBX 28 43 3 0
BITMAP
07F80000
01FC0000
00FE0000
007E0000
003F0000
001F8000
000FC000
00000000
00000000
00000000
FC0003F0
FC0003F0
FC0003F0
FC0003F0
FC0003F0
FC0003F0
FC0003F0
FC0003F0
FC0003F0
FC0003F0
FC0003F0
FC0003F0
FC0003F0
FC0003F0
FC0003F0
FC0003F0
FC0003F0
FC0003F0
FC0003F0
FC0003F0
FC0003F0
FE0003F0
7E0007F0
7E0007E0
7F0007E0
7F000FE0
3F801FC0
1FE07FC0
1FFFFF80
0FFFFF00
07FFFE00
01FFF800
003FC000
ENDCHAR
STARTCHAR 00DA
ENCODING 218
SWIDTH 741 0
DWIDTH 34 0
BBX 28 43 3 0
BITMAP
0000FF00
0001FE00
0003F800
0007F000
0007E000
000FC000
001F8000
00000000
00000000
00000000
FC0003F0
FC0003F0
FC0003F0
FC0003F0
FC0003F0
FC0003F0
FC0003F0
FC0003F0
FC0003F0
FC0003F0
FC0003F0
FC0003F0
FC0003F0
FC0003F0
FC0003F0
FC0003F0
FC0003F0
FC0003F0
FC0003F0
FC0003F0
FC0003F0
FE0003F0
7E0007F0
7E0007E0
7F0007E0
7F000FE0
3F801FC0
1FE07FC0
1FFFFF80
0FFFFF00
07FFFE00
01FFF800
003FC000
ENDCHAR
STARTCHAR 00DB
ENCODING 219
SWIDTH 741 0
DWIDTH 34 0
BBX 28 43 3 0
BITMAP
000F8000
001FC000
003FE000
007FE000
00F9F000
01F0F800
03F07C00
00000000
00000000
00000000
FC0003F0
FC0003F0
FC0003F0
FC0003F0
FC0003F0
FC0003F0
FC0003F0
FC0003F0
FC0003F0
FC0003F0
FC0003F0
FC0003F0
FC0003F0
FC0003F0
FC0003F0
FC0003F0
FC0003F0
FC0003F0
FC0003F0
FC0003F0
FC0003F0
FE0003F0
7E0007F0
7E0007E0
7F0007E0
7F000FE0
3F801FC0
1FE07FC0
1FFFFF80
0FFFFF00
07FFFE00
01FFF800
003FC000
ENDCHAR
STARTCHAR 00DC
ENCODING 220
SWIDTH 741 0
DWIDTH 34 0
BBX 28 41 3 0
BITMAP
01E03800
01F07C00
03F0FC00
03F0FC00
03F07C00
01E07800
00000000
00000000
FC0003F0
FC0003F0
FC0003F0
FC0003F0
FC0003F0
FC0003F0
FC0003F0
FC0003F0
FC0003F0
FC0003F0
FC0003F0
FC0003F0
FC0003F0
FC0003F0
FC0003F0
FC0003F0
FC0003F0
FC0003F0
FC0003F0
FC0003F0
FC0003F0
FE0003F0
7E0007F0
7E0007E0
7F0007E0
7F000FE0
3F801FC0
1FE07FC0
1FFFFF80
0FFFFF00
07FFFE00
01FFF800
003FC000
ENDCHAR
STARTCHAR 00DD
ENCODING 221
SWIDTH 654 0
DWIDTH 30 0
BBX 30 43 0 0
BITMAP
0000FF00
0001FE00
0003F800
0007F000
0007E000
000FC000
001F8000
00000000
00000000
00000000
FE0001FC
7E0001F8
7F0003F8
3F0007F0
3F8007E0
1F800FE0
0FC00FC0
0FE01FC0
07E01F80
07F03F00
03F03F00
01F87E00
01F87E00
00FCFC00
00FCF800
007FF800
003FF000
003FF000
001FE000
001FC000
000FC000
000FC000
000FC000
000FC000
000FC000
000FC000
000FC000
000FC000
000FC000
000FC000
000FC000
000FC000
000FC000
ENDCHAR
STARTCHAR 00DE
ENCODING 222
SWIDTH 610 0
DWIDTH 28 0
BBX 23 33 4 0
BITMAP
FC0000
FC0000
FC0000
FC0000
FC0000
FFFE00
FFFFC0
FFFFF0
FFFFF8
FFFFFC
FC03FC
FC01FE
FC00FE
FC007E
FC007E
FC007E
FC007E
FC007E
FC007E
FC00FE
FC01FE
FC03FC
FFFFF8
FFFFF8
FFFFE0
FFFFC0
FFFE00
FC0000
FC0000
FC0000
FC0000
FC0000
FC0000
ENDCHAR
STARTCHAR 00DF
ENCODING 223
SWIDTH 610 0
DWIDTH 28 0
BBX 24 33 3 0
BITMAP
00FF00
07FFC0
0FFFE0
1FFFF0
3F83F8
7E00F8
7E00FC
FC00FC
FC00FC
FC00FC
FC01F8
F807F0
F80FE0
F81F80
F83F00
F83F00
F83F00
F83F80
F83FE0
F81FF0
F80FFC
F807FC
F801FE
F8007E
F8003E
F8003F
F8003E
F8603E
F8F87E
F9FFFC
F9FFF8
F87FF0
F81FC0
ENDCHAR
STARTCHAR 00E0
ENCODING 224
SWIDTH 501 0
DWIDTH 23 0
BBX 20 33 1 0
BITMAP
1FC000
0FC000
07E000
03F000
01F000
00F800
007C00
000000
000000
01FC00
0FFF00
3FFF80
7FFFC0
3F0FE0
1C03E0
0003F0
0003F0
0003F0
0003F0
007FF0
07FFF0
1FFFF0
3FFFF0
7F83F0
FE03F0
FC03F0
FC03F0
FC07F0
FE0FF0
7FFFF0
7FFDF0
3FF9F0
0FC0F0
ENDCHAR
STARTCHAR 00E1
ENCODING 225
SWIDTH 501 0
DWIDTH 23 0
BBX 20 33 1 0
BITMAP
001FC0
003F80
003F00
007E00
007C00
00F800
01F000
000000
000000
01FC00
0FFF00
3FFF80
7FFFC0
3F0FE0
1C03E0
0003F0
0003F0
0003F0
0003F0
007FF0
07FFF0
1FFFF0
3FFFF0
7F83F0
FE03F0
FC03F0
FC03F0
FC07F0
FE0FF0
7FFFF0
7FFDF0
3FF9F0
0FC0F0
ENDCHAR
STARTCHAR 00E2
ENCODING 226
SWIDTH 501 0
DWIDTH 23 0
BBX 20 33 1 0
BITMAP
01F800
03FC00
07FE00
07DF00
0F8F80
1F0780
200040
000000
000000
01FC00
0FFF00
3FFF80
7FFFC0
3F0FE0
1C03E0
0003F0
0003F0
0003F0
0003F0
007FF0
07FFF0
1FFFF0
3FFFF0
7F83F0
FE03F0
FC03F0
FC03F0
FC07F0
FE0FF0
7FFFF0
7FFDF0
3FF9F0
0FC0F0
ENDCHAR
STARTCHAR 00E3
ENCODING 227
SWIDTH 501 0
DWIDTH 23 0
BBX 20 33 1 0
BITMAP
03C3C0
0FE380
0FFF80
1FFF80
1E7F00
1C1E00
000000
000000
000000
01FC00
0FFF00
3FFF80
7FFFC0
3F0FE0
1C03E0
0003F0
0003F0
0003F0
0003F0
007FF0
07FFF0
1FFFF0
3FFFF0
7F83F0
FE03F0
FC03F0
FC03F0
FC07F0
FE0FF0
7FFFF0
7FFDF0
3FF9F0
0FC0F0
ENDCHAR
STARTCHAR 00E4
ENCODING 228
SWIDTH 501 0
DWIDTH 23 0
BBX 20 33 1 0
BITMAP
0E0780
1F0FC0
3F8FC0
3F8FC0
1F0FC0
0E0780
000000
000000
000000
01FC00
0FFF00
3FFF80
7FFFC0
3F0FE0
1C03E0
0003F0
0003F0
0003F0
0003F0
007FF0
07FFF0
1FFFF0
3FFFF0
7F83F0
FE03F0
FC03F0
FC03F0
FC07F0
FE0FF0
7FFFF0
7FFDF0
3FF9F0
0FC0F0
ENDCHAR
STARTCHAR 00E5
ENCODING 229
SWIDTH 501 0
DWIDTH 23 0
BBX 20 36 1 0
BITMAP
00F000
03FC00
03FE00
078E00
070E00
070E00
078E00
03FE00
03FC00
00F000
000000
000000
01FC00
0FFF00
3FFF80
7FFFC0
3F0FE0
1C03E0
0003F0
0003F0
0003F0
0003F0
007FF0
07FFF0
1FFFF0
3FFFF0
7F83F0
FE03F0
FC03F0
FC03F0
FC07F0
FE0FF0
7FFFF0
7FFDF0
3FF9F0
0FC0F0
ENDCHAR
STARTCHAR 00E6
ENCODING 230
SWIDTH 807 0
DWIDTH 37 0
BBX 35 24 1 0
BITMAP
01FC03F000
0FFF0FFC00
1FFF9FFF00
7FFFBFFF00
3F0FFE1F80
1C03F807C0
0003F007C0
0003F007C0
0003F003E0
007FFFFFE0
07FFFFFFE0
1FFFFFFFE0
3FFFFFFFE0
7FC3F00000
7E03F00000
FC03F00000
FC03F00000
FC03F80000
FC07FC0180
7E1FFE07C0
7FFF7FFFE0
7FFE3FFF80
1FFC0FFF00
0FF003F800
ENDCHAR
STARTCHAR 00E7
ENCODING 231
SWIDTH 480 0
DWIDTH 22 0
BBX 19 33 2 -9
BITMAP
01FE00
07FF80
0FFFE0
1FFFE0
3F83C0
7E0080
7E0000
FC0000
FC0000
FC0000
F80000
F80000
F80000
F80000
F80000
FC0000
FC0000
FC0000
7E0080
7F01C0
3FCFE0
3FFFE0
1FFFC0
0FFF80
03FE00
007000
00F000
00FC00
00FE00
001E00
001E00
01FE00
03F800
ENDCHAR
STARTCHAR 00E8
ENCODING 232
SWIDTH 545 0
DWIDTH 25 0
BBX 21 33 2 0
BITMAP
0FE000
07E000
03F000
01F800
00F800
007C00
003E00
000000
000000
01FC00
07FF80
1FFFC0
3FFFE0
3F07E0
7E01F0
FC01F0
FC00F8
F800F8
FFFFF8
FFFFF8
FFFFF8
FFFFF8
F80000
F80000
FC0000
FC0000
7C0000
7E0060
3F81F0
1FFFF8
0FFFF0
07FFC0
01FE00
ENDCHAR
STARTCHAR 00E9
ENCODING 233
SWIDTH 545 0
DWIDTH 25 0
BBX 21 33 2 0
BITMAP
000FE0
001FC0
001F80
003F00
003E00
007C00
00F800
000000
000000
01FC00
07FF80
1FFFC0
3FFFE0
3F07E0
7E01F0
FC01F0
FC00F8
F800F8
FFFFF8
FFFFF8
FFFFF8
FFFFF8
F80000
F80000
FC0000
FC0000
7C0000
7E0060
3F81F0
1FFFF8
0FFFF0
07FFC0
01FE00
ENDCHAR
STARTCHAR 00EA
ENCODING 234
SWIDTH 545 0
DWIDTH 25 0
BBX 21 33 2 0
BITMAP
00FC00
01FE00
03FF00
03EF80
07C7C0
0F83C0
100020
000000
000000
01FC00
07FF80
1FFFC0
3FFFE0
3F07E0
7E01F0
FC01F0
FC00F8
F800F8
FFFFF8
FFFFF8
FFFFF8
FFFFF8
F80000
F80000
FC0000
FC0000
7C0000
7E0060
3F81F0
1FFFF8
0FFFF0
07FFC0
01FE00
ENDCHAR
STARTCHAR 00EB
ENCODING 235
SWIDTH 545 0
DWIDTH 25 0
BBX 21 33 2 0
BITMAP
0703C0
0F87E0
1FC7E0
1FC7E0
0F87E0
0703C0
000000
000000
000000
01FC00
07FF80
1FFFC0
3FFFE0
3F07E0
7E01F0
FC01F0
FC00F8
F800F8
FFFFF8
FFFFF8
FFFFF8
FFFFF8
F80000
F80000
FC0000
FC0000
7C0000
7E0060
3F81F0
1FFFF8
0FFFF0
07FFC0
01FE00
ENDCHAR
STARTCHAR 00EC
ENCODING 236
SWIDTH 261 0
DWIDTH 12 0
BBX 11 33 -1 0
BITMAP
FE00
7E00
3F00
1F80
0F80
07C0
03E0
0000
0000
0FC0
0FC0
0FC0
0FC0
0FC0
0FC0
0FC0
0FC0
0FC0
0FC0
0FC0
0FC0
0FC0
0FC0
0FC0
0FC0
0FC0
0FC0
0FC0
0FC0
0FC0
0FC0
0FC0
0FC0
ENDCHAR
STARTCHAR 00ED
ENCODING 237
SWIDTH 261 0
DWIDTH 12 0
BBX 11 33 3 0
BITMAP
0FE0
1FC0
1F80
3F00
3E00
7C00
F800
0000
0000
FC00
FC00
FC00
FC00
FC00
FC00
FC00
FC00
FC00
FC00
FC00
FC00
FC00
FC00
FC00
FC00
FC00
FC00
FC00
FC00
FC00
FC00
FC00
FC00
ENDCHAR
STARTCHAR 00EE
ENCODING 238
SWIDTH 261 0
DWIDTH 12 0
BBX 16 33 -2 0
BITMAP
07E0
0FF0
1FF8
1F7C
3E3E
7C1E
8001
0000
0000
07E0
07E0
07E0
07E0
07E0
07E0
07E0
07E0
07E0
07E0
07E0
07E0
07E0
07E0
07E0
07E0
07E0
07E0
07E0
07E0
07E0
07E0
07E0
07E0
ENDCHAR
STARTCHAR 00EF
ENCODING 239
SWIDTH 261 0
DWIDTH 12 0
BBX 14 33 -1 0
BITMAP
3878
7CFC
FCFC
FCFC
7CFC
3878
0000
0000
0000
0FC0
0FC0
0FC0
0FC0
0FC0
0FC0
0FC0
0FC0
0FC0
0FC0
0FC0
0FC0
0FC0
0FC0
0FC0
0FC0
0FC0
0FC0
0FC0
0FC0
0FC0
0FC0
0FC0
0FC0
ENDCHAR
STARTCHAR 00F0
ENCODING 240
SWIDTH 567 0
DWIDTH 26 0
BBX 23 34 1 0
BITMAP
020000
03E020
03F8F0
07FFF0
03FFE0
00FFC0
007FE0
00FFF0
00F3F0
00E1F8
0040FC
00007C
00FC7C
07FF3E
0FFFFE
1FFFFE
3FC1FE
3F00FE
7E007E
7E003E
7C003E
7C003E
FC003E
FC003E
7C003E
7C007E
7E007C
7E00FC
3F00FC
3FC3F8
1FFFF0
0FFFE0
03FFC0
00FE00
ENDCHAR
STARTCHAR 00F1
ENCODING 241
SWIDTH 567 0
DWIDTH 26 0
BBX 20 33 3 0
BITMAP
03C3C0
0FE380
0FFF80
1FFF80
1E7F00
1C1E00
000000
000000
000000
F0FE00
F9FF80
FBFFC0
FFFFE0
FF07F0
FE03F0
FC03F0
F801F0
F801F0
F801F0
F801F0
F801F0
F801F0
F801F0
F801F0
F801F0
F801F0
F801F0
F801F0
F801F0
F801F0
F801F0
F801F0
F801F0
ENDCHAR
STARTCHAR 00F2
ENCODING 242
SWIDTH 567 0
DWIDTH 26 0
BBX 23 33 2 0
BITMAP
0FE000
07E000
03F000
01F800
00F800
007C00
003E00
000000
000000
01FE00
07FF80
0FFFE0
3FFFF0
3F83F8
7E01F8
7E00FC
FC00FC
FC007C
FC007E
F8007E
F8007E
F8007E
F8007E
FC007E
FC007C
FC00FC
7E00FC
7E01F8
3F83F8
3FFFF0
0FFFE0
07FF80
01FE00
ENDCHAR
STARTCHAR 00F3
ENCODING 243
SWIDTH 567 0
DWIDTH 26 0
BBX 23 33 2 0
BITMAP
000FE0
001FC0
001F80
003F00
003E00
007C00
00F800
000000
000000
01FE00
07FF80
0FFFE0
3FFFF0
3F83F8
7E01F8
7E00FC
FC00FC
FC007C
FC007E
F8007E
F8007E
F8007E
F8007E
FC007E
FC007C
FC00FC
7E00FC
7E01F8
3F83F8
3FFFF0
0FFFE0
07FF80
01FE00
ENDCHAR
STARTCHAR 00F4
ENCODING 244
SWIDTH 567 0
DWIDTH 26 0
BBX 23 33 2 0
BITMAP
00FC00
01FE00
03FF00
03EF80
07C7C0
0F83C0
100020
000000
000000
01FE00
07FF80
0FFFE0
3FFFF0
3F83F8
7E01F8
7E00FC
FC00FC
FC007C
FC007E
F8007E
F8007E
F8007E
F8007E
FC007E
FC007C
FC00FC
7E00FC
7E01F8
3F83F8
3FFFF0
0FFFE0
07FF80
01FE00
ENDCHAR
STARTCHAR 00F5
ENCODING 245
SWIDTH 567 0
DWIDTH 26 0
BBX 23 33 2 0
BITMAP
01E1E0
07F1C0
07FFC0
0FFFC0
0F3F80
0E0F00
000000
000000
000000
01FE00
07FF80
0FFFE0
3FFFF0
3F83F8
7E01F8
7E00FC
FC00FC
FC007C
FC007E
F8007E
F8007E
F8007E
F8007E
FC007E
FC007C
FC00FC
7E00FC
7E01F8
3F83F8
3FFFF0
0FFFE0
07FF80
01FE00
ENDCHAR
STARTCHAR 00F6
ENCODING 246
SWIDTH 567 0
DWIDTH 26 0
BBX 23 33 2 0
BITMAP
0703C0
0F87E0
1FC7E0
1FC7E0
0F87E0
0703C0
000000
000000
000000
01FE00
07FF80
0FFFE0
3FFFF0
3F83F8
7E01F8
7E00FC
FC00FC
FC007C
FC007E
F8007E
F8007E
F8007E
F8007E
FC007E
FC007C
FC00FC
7E00FC
7E01F8
3F83F8
3FFFF0
0FFFE0
07FF80
01FE00
ENDCHAR
STARTCHAR 00F7
ENCODING 247
SWIDTH 589 0
DWIDTH 27 0
BBX 23 23 2 4
BITMAP
003800
00FC00
00FE00
00FE00
00FE00
00FC00
007800
000000
000000
FFFFFE
FFFFFE
FFFFFE
FFFFFE
000000
000000
000000
003800
00FC00
00FE00
00FE00
00FE00
00FC00
007800
ENDCHAR
STARTCHAR 00F8
ENCODING 248
SWIDTH 567 0
DWIDTH 26 0
BBX 25 27 1 -1
BITMAP
00000F80
00001F00
00FF1E00
03FFFC00
07FFF800
1FFFF800
1FC1FC00
3F01FC00
3E03FE00
7E07FE00
7C07BE00
7C0F3F00
7C1F3F00
7C3E3F00
7C3C3F00
7C783F00
7CF83F00
7CF03E00
7FE03E00
3FC07E00
3FC0FC00
1FC1FC00
1FFFF800
1FFFF000
3FFFC000
3CFF0000
F8000000
ENDCHAR
STARTCHAR 00F9
ENCODING 249
SWIDTH 567 0
DWIDTH 26 0
BBX 20 33 3 0
BITMAP
1FC000
0FC000
07E000
03F000
01F000
00F800
007C00
000000
000000
F803F0
F803F0
F803F0
F803F0
F803F0
F803F0
F803F0
F803F0
F803F0
F803F0
F803F0
F803F0
F803F0
F803F0
F803F0
F803F0
F803F0
FC03F0
FC07F0
FE0FF0
7FFFF0
3FFDF0
1FF9F0
07E1F0
ENDCHAR
STARTCHAR 00FA
ENCODING 250
SWIDTH 567 0
DWIDTH 26 0
BBX 20 33 3 0
BITMAP
001FC0
003F80
003F00
007E00
007C00
00F800
01F000
000000
000000
F803F0
F803F0
F803F0
F803F0
F803F0
F803F0
F803F0
F803F0
F803F0
F803F0
F803F0
F803F0
F803F0
F803F0
F803F0
F803F0
F803F0
FC03F0
FC07F0
FE0FF0
7FFFF0
3FFDF0
1FF9F0
07E1F0
ENDCHAR
STARTCHAR 00FB
ENCODING 251
SWIDTH 567 0
DWIDTH 26 0
BBX 20 33 3 0
BITMAP
01F800
03FC00
07FE00
07DF00
0F8F80
1F0780
200040
000000
000000
F803F0
F803F0
F803F0
F803F0
F803F0
F803F0
F803F0
F803F0
F803F0
F803F0
F803F0
F803F0
F803F0
F803F0
F803F0
F803F0
F803F0
FC03F0
FC07F0
FE0FF0
7FFFF0
3FFDF0
1FF9F0
07E1F0
ENDCHAR
STARTCHAR 00FC
ENCODING 252
SWIDTH 567 0
DWIDTH 26 0
BBX 20 33 3 0
BITMAP
0E0780
1F0FC0
3F8FC0
3F8FC0
1F0FC0
0E0780
000000
000000
000000
F803F0
F803F0
F803F0
F803F0
F803F0
F803F0
F803F0
F803F0
F803F0
F803F0
F803F0
F803F0
F803F0
F803F0
F803F0
F803F0
F803F0
FC03F0
FC07F0
FE0FF0
7FFFF0
3FFDF0
1FF9F0
07E1F0
ENDCHAR
STARTCHAR 00FD
ENCODING 253
SWIDTH 523 0
DWIDTH 24 0
BBX 24 41 0 -8
BITMAP
0003F8
0007F0
0007E0
000FC0
000F80
001F00
003E00
000000
000000
FC001F
7E003F
7E003E
3F007E
3F007C
3F00FC
1F80FC
1F80F8
0FC1F8
0FC1F0
07C1F0
07E3E0
07E3E0
03F7E0
03F7C0
01F7C0
01FF80
00FF80
00FF80
00FF00
007F00
007E00
003E00
007C00
007C00
00FC00
00F800
01F800
01F000
03F000
03F000
07E000
ENDCHAR
STARTCHAR 00FE
ENCODING 254
SWIDTH 567 0
DWIDTH 26 0
BBX 22 42 3 -8
BITMAP
F80000
F80000
F80000
F80000
F80000
F80000
F80000
F80000
F80000
F80000
F87F00
F9FF80
FBFFE0
FFFFE0
FF07F0
FE03F0
FC01F8
F801F8
F801F8
F800F8
F800F8
F800FC
F800FC
F800F8
F801F8
F801F8
F801F8
F803F0
FC03F0
FF0FF0
FFFFE0
FFFFC0
F9FF80
F8FE00
F80000
F80000
F80000
F80000
F80000
F80000
F80000
F80000
ENDCHAR
STARTCHAR 00FF
ENCODING 255
SWIDTH 523 0
DWIDTH 24 0
BBX 24 41 0 -8
BITMAP
01C0F0
03E1F8
07F1F8
07F1F8
03E1F8
01C0F0
000000
000000
000000
FC001F
7E003F
7E003E
3F007E
3F007C
3F00FC
1F80FC
1F80F8
0FC1F8
0FC1F0
07C1F0
07E3E0
07E3E0
03F7E0
03F7C0
01F7C0
01FF80
00FF80
00FF80
00FF00
007F00
007E00
003E00
007C00
007C00
00FC00
00F800
01F800
01F000
03F000
03F000
07E000
ENDCHAR
STARTCHAR 0100
ENCODING 256
SWIDTH 698 0
DWIDTH 32 0
BBX 32 40 0 0
BITMAP
007FFE00
007FFE00
007FFE00
007FFE00
00000000
00000000
00000000
0007E000
000FF000
000FF000
001FF800
001FF800
001FF800
003FFC00
003FFC00
007E7E00
007E7E00
007E7E00
00FC3F00
00FC3F00
01F81F00
01F81F80
01F81F80
03F00FC0
03F00FC0
07F00FC0
07E007E0
07E007E0
0FFFFFF0
0FFFFFF0
0FFFFFF0
1FFFFFF8
1F8001F8
3F8001FC
3F0000FC
3F0000FC
7E00007E
7E00007E
FE00007F
FC00003F
ENDCHAR
STARTCHAR 0101
ENCODING 257
SWIDTH 501 0
DWIDTH 23 0
BBX 20 32 1 0
BITMAP
1FFF80
1FFF80
1FFF80
1FFF80
000000
000000
000000
000000
01FC00
0FFF00
3FFF80
7FFFC0
3F0FE0
1C03E0
0003F0
0003F0
0003F0
0003F0
007FF0
07FFF0
1FFFF0
3FFFF0
7F83F0
FE03F0
FC03F0
FC03F0
FC07F0
FE0FF0
7FFFF0
7FFDF0
3FF9F0
0FC0F0
ENDCHAR
STARTCHAR 0102
ENCODING 258
SWIDTH 698 0
DWIDTH 32 0
BBX 32 43 0 0
BITMAP
00781F00
00781F00
007C3F00
007FFE00
003FFC00
001FF800
0007F000
00000000
00000000
00000000
0007E000
000FF000
000FF000
001FF800
001FF800
001FF800
003FFC00
003FFC00
007E7E00
007E7E00
007E7E00
00FC3F00
00FC3F00
01F81F00
01F81F80
01F81F80
03F00FC0
03F00FC0
07F00FC0
07E007E0
07E007E0
0FFFFFF0
0FFFFFF0
0FFFFFF0
1FFFFFF8
1F8001F8
3F8001FC
3F0000FC
3F0000FC
7E00007E
7E00007E
FE00007F
FC00003F
ENDCHAR
STARTCHAR 0103
ENCODING 259
SWIDTH 501 0
DWIDTH 23 0
BBX 20 33 1 0
BITMAP
1E0780
1E0780
0F0F80
0FFF80
0FFF00
07FE00
01F800
000000
000000
01FC00
0FFF00
3FFF80
7FFFC0
3F0FE0
1C03E0
0003F0
0003F0
0003F0
0003F0
007FF0
07FFF0
1FFFF0
3FFFF0
7F83F0
FE03F0
FC03F0
FC03F0
FC07F0
FE0FF0
7FFFF0
7FFDF0
3FF9F0
0FC0F0
ENDCHAR
STARTCHAR 0104
ENCODING 260
SWIDTH 698 0
DWIDTH 32 0
BBX 33 41 0 -8
BITMAP
0007E00000
000FF00000
000FF00000
001FF00000
001FF80000
001FF80000
003FFC0000
003EFC0000
007E7C0000
007E7E0000
007C7E0000
00FC3F0000
00FC3F0000
01F83F0000
01F81F8000
01F81F8000
03F00FC000
03F00FC000
07F00FC000
07E007E000
07E007E000
0FFFFFF000
0FFFFFF000
1FFFFFF000
1FFFFFF800
1F8001F800
3F0001FC00
3F0000FC00
7F0000FC00
7E0000FE00
7E00007E00
FE00007F00
FC00003F00
0000001C00
0000003800
0000007800
000000F800
000000FF80
000000FF80
0000007F80
0000003F00
ENDCHAR
STARTCHAR 0105
ENCODING 261
SWIDTH 501 0
DWIDTH 23 0
BBX 22 32 1 -8
BITMAP
01FC00
0FFF00
3FFF80
7FFFC0
3F0FE0
1C03E0
0003F0
0003F0
0003F0
0003F0
007FF0
07FFF0
1FFFF0
3FFFF0
7F83F0
FE03F0
FC03F0
FC03F0
FC07F0
FE0FF0
7FFFF0
7FFDF0
3FF1F0
0FC0F0
0001E0
0003C0
000380
0007C0
0007F8
0007FC
0003FC
0001F8
ENDCHAR
STARTCHAR 0106
ENCODING 262
SWIDTH 654 0
DWIDTH 30 0
BBX 28 43 2 0
BITMAP
00003FC0
00007F80
0000FE00
0001FC00
0001F800
0003F000
0007E000
00000000
00000000
00000000
000FF000
007FFE00
01FFFF80
03FFFFE0
0FFFFFE0
0FF80FC0
1FE003C0
3F800080
3F800000
7F000000
7E000000
FE000000
FE000000
FC000000
FC000000
FC000000
FC000000
FC000000
FC000000
FC000000
FE000000
FE000000
7E000000
7F000000
7F800000
3FC00080
1FE003C0
1FF80FE0
0FFFFFF0
07FFFFC0
01FFFF80
00FFFE00
001FF000
ENDCHAR
STARTCHAR 0107
ENCODING 263
SWIDTH 480 0
DWIDTH 22 0
BBX 19 33 2 0
BITMAP
000FE0
001FC0
001F80
003F00
003E00
007C00
00F800
000000
000000
01FE00
07FF80
1FFFE0
3FFFE0
3F83C0
7E0080
7E0000
FC0000
FC0000
FC0000
F80000
F80000
F80000
F80000
FC0000
FC0000
FC0000
7E0000
7E01C0
3F83E0
3FFFE0
1FFFC0
07FF80
01FC00
ENDCHAR
STARTCHAR 0108
ENCODING 264
SWIDTH 654 0
DWIDTH 30 0
BBX 28 43 2 0
BITMAP
0003E000
0007F000
000FF800
001FF800
003E7C00
007C3E00
00FC1F00
00000000
00000000
00000000
000FF000
007FFE00
01FFFF80
03FFFFE0
0FFFFFE0
0FF80FC0
1FE003C0
3F800080
3F800000
7F000000
7E000000
FE000000
FE000000
FC000000
FC000000
FC000000
FC000000
FC000000
FC000000
FC000000
FE000000
FE000000
7E000000
7F000000
7F800000
3FC00080
1FE003C0
1FF80FE0
0FFFFFF0
07FFFFC0
01FFFF80
00FFFE00
001FF000
ENDCHAR
STARTCHAR 0109
ENCODING 265
SWIDTH 480 0
DWIDTH 22 0
BBX 19 33 2 0
BITMAP
00FC00
01FE00
03FF00
03EF80
07C7C0
0F83C0
100020
000000
000000
01FE00
07FF80
1FFFE0
3FFFE0
3F83C0
7E0080
7E0000
FC0000
FC0000
FC0000
F80000
F80000
F80000
F80000
FC0000
FC0000
FC0000
7E0000
7E01C0
3F83E0
3FFFE0
1FFFC0
07FF80
01FC00
ENDCHAR
STARTCHAR 010A
ENCODING 266
SWIDTH 654 0
DWIDTH 30 0
BBX 28 43 2 0
BITMAP
0003C000
0007E000
0007E000
0007F000
0007F000
0007E000
0003C000
00000000
00000000
00000000
000FF000
007FFE00
01FFFF80
03FFFFE0
0FFFFFE0
0FF80FC0
1FE003C0
3F800080
3F800000
7F000000
7E000000
FE000000
FE000000
FC000000
FC000000
FC000000
FC000000
FC000000
FC000000
FC000000
FE000000
FE000000
7E000000
7F000000
7F800000
3FC00080
1FE003C0
1FF80FE0
0FFFFFF0
07FFFFC0
01FFFF80
00FFFE00
001FF000
ENDCHAR
STARTCHAR 010B
ENCODING 267
SWIDTH 480 0
DWIDTH 22 0
BBX 19 34 2 0
BITMAP
007800
00FC00
00FE00
00FE00
00FE00
00FC00
007800
000000
000000
000000
01FE00
07FF80
1FFFE0
3FFFE0
3F83C0
7E0080
7E0000
FC0000
FC0000
FC0000
F80000
F80000
F80000
F80000
FC0000
FC0000
FC0000
7E0000
7E01C0
3F83E0
3FFFE0
1FFFC0
07FF80
01FC00
ENDCHAR
STARTCHAR 010C
ENCODING 268
SWIDTH 654 0
DWIDTH 30 0
BBX 28 43 2 0
BITMAP
00F00F00
007C3F00
003E3E00
001F7C00
001FF800
000FF000
0007E000
00000000
00000000
00000000
000FF000
007FFE00
01FFFF80
03FFFFE0
0FFFFFE0
0FF80FC0
1FE003C0
3F800080
3F800000
7F000000
7E000000
FE000000
FE000000
FC000000
FC000000
FC000000
FC000000
FC000000
FC000000
FC000000
FE000000
FE000000
7E000000
7F000000
7F800000
3FC00080
1FE003C0
1FF80FE0
0FFFFFF0
07FFFFC0
01FFFF80
00FFFE00
001FF000
ENDCHAR
STARTCHAR 010D
ENCODING 269
SWIDTH 480 0
DWIDTH 22 0
BBX 19 33 2 0
BITMAP
1F03E0
0F87C0
07CF80
03FF00
01FF00
00FE00
000000
000000
000000
01FE00
07FF80
1FFFE0
3FFFE0
3F83C0
7E0080
7E0000
FC0000
FC0000
FC0000
F80000
F80000
F80000
F80000
FC0000
FC0000
FC0000
7E0000
7E01C0
3F83E0
3FFFE0
1FFFC0
07FF80
01FC00
ENDCHAR
STARTCHAR 010E
ENCODING 270
SWIDTH 763 0
DWIDTH 35 0
BBX 29 43 4 0
BITMAP
1E01E000
0F87E000
07C7C000
03EF8000
03FF0000
01FE0000
00FC0000
00000000
00000000
00000000
FFFF8000
FFFFF000
FFFFFC00
FFFFFE00
FFFFFF00
FC00FF80
FC003FC0
FC001FE0
FC000FE0
FC0007F0
FC0003F0
FC0003F8
FC0003F8
FC0001F8
FC0001F8
FC0001F8
FC0001F8
FC0001F8
FC0001F8
FC0001F8
FC0003F8
FC0003F8
FC0003F0
FC0007F0
FC000FE0
FC001FE0
FC003FC0
FC00FF80
FFFFFF00
FFFFFE00
FFFFFC00
FFFFF000
FFFF8000
ENDCHAR
STARTCHAR 010F
ENCODING 271
SWIDTH 567 0
DWIDTH 26 0
BBX 29 34 2 0
BITMAP
0000F878
0000F8F8
0000F8F8
0000F8F8
0000F8F0
0000F8F0
0000F8E0
0000F9E0
0000F800
0000F800
01F8F800
07FEF800
1FFFF800
3FFFF800
3F87F800
7E01F800
7E00F800
FC00F800
FC00F800
FC00F800
FC00F800
F800F800
F800F800
F800F800
FC00F800
FC00F800
FC00F800
FC01F800
7E03F800
7F07F800
3FFFF800
3FFEF800
0FFCF800
07F07800
ENDCHAR
STARTCHAR 0110
ENCODING 272
SWIDTH 763 0
DWIDTH 35 0
BBX 34 33 0 0
BITMAP
0FFFF80000
0FFFFF0000
0FFFFFC000
0FFFFFF000
0FFFFFF800
0FC00FFC00
0FC001FE00
0FC000FE00
0FC0007F00
0FC0003F00
0FC0003F80
0FC0001F80
0FC0001F80
0FC0001F80
FFFF001FC0
FFFF001FC0
FFFF001FC0
FFFF001FC0
0FC0001FC0
0FC0001F80
0FC0001F80
0FC0001F80
0FC0003F80
0FC0003F00
0FC0007F00
0FC000FE00
0FC001FE00
0FC00FFC00
0FFFFFF800
0FFFFFF000
0FFFFFC000
0FFFFF0000
0FFFF80000
ENDCHAR
STARTCHAR 0111
ENCODING 273
SWIDTH 567 0
DWIDTH 26 0
BBX 25 34 2 0
BITMAP
0000F800
0000F800
0000F800
0000F800
003FFF80
003FFF80
003FFF80
003FFF80
0000F800
0000F800
01F8F800
07FEF800
1FFFF800
3FFFF800
3F87F800
7E01F800
7E00F800
FC00F800
FC00F800
FC00F800
FC00F800
FC00F800
FC00F800
FC00F800
FC00F800
FC00F800
FC00F800
FC01F800
7E03F800
7F07F800
3FFFF800
3FFEF800
0FFCF800
07F07800
ENDCHAR
STARTCHAR 0112
ENCODING 274
SWIDTH 567 0
DWIDTH 26 0
BBX 21 40 4 0
BITMAP
1FFF80
1FFF80
1FFF80
1FFF80
000000
000000
000000
FFFFF8
FFFFF8
FFFFF8
FFFFF8
FFFFF8
FC0000
FC0000
FC0000
FC0000
FC0000
FC0000
FC0000
FC0000
FC0000
FFFFC0
FFFFC0
FFFFC0
FFFFC0
FFFFC0
FC0000
FC0000
FC0000
FC0000
FC0000
FC0000
FC0000
FC0000
FC0000
FFFFF8
FFFFF8
FFFFF8
FFFFF8
FFFFF8
ENDCHAR
STARTCHAR 0113
ENCODING 275
SWIDTH 545 0
DWIDTH 25 0
BBX 21 32 2 0
BITMAP
0FFFC0
0FFFC0
0FFFC0
0FFFC0
000000
000000
000000
000000
01FC00
07FF80
1FFFC0
3FFFE0
3F07E0
7E01F0
FC01F0
FC00F8
F800F8
FFFFF8
FFFFF8
FFFFF8
FFFFF8
F80000
F80000
FC0000
FC0000
7C0000
7E0060
3F81F0
1FFFF8
0FFFF0
07FFC0
01FE00
ENDCHAR
STARTCHAR 0114
ENCODING 276
SWIDTH 567 0
DWIDTH 26 0
BBX 21 43 4 0
BITMAP
1E07C0
1E07C0
1F0FC0
1FFF80
0FFF00
07FE00
01FC00
000000
000000
000000
FFFFF8
FFFFF8
FFFFF8
FFFFF8
FFFFF8
FC0000
FC0000
FC0000
FC0000
FC0000
FC0000
FC0000
FC0000
FC0000
FFFFC0
FFFFC0
FFFFC0
FFFFC0
FFFFC0
FC0000
FC0000
FC0000
FC0000
FC0000
FC0000
FC0000
FC0000
FC0000
FFFFF8
FFFFF8
FFFFF8
FFFFF8
FFFFF8
ENDCHAR
STARTCHAR 0115
ENCODING 277
SWIDTH 545 0
DWIDTH 25 0
BBX 21 33 2 0
BITMAP
0F03C0
0F03C0
0787C0
07FFC0
07FF80
03FF00
00FC00
000000
000000
01FC00
07FF80
1FFFC0
3FFFE0
3F07E0
7E01F0
FC01F0
FC00F8
F800F8
FFFFF8
FFFFF8
FFFFF8
FFFFF8
F80000
F80000
FC0000
FC0000
7C0000
7E0060
3F81F0
1FFFF8
0FFFF0
07FFC0
01FE00
ENDCHAR
STARTCHAR 0116
ENCODING 278
SWIDTH 567 0
DWIDTH 26 0
BBX 21 43 4 0
BITMAP
00F000
01F800
01F800
01FC00
01FC00
01F800
00F000
000000
000000
000000
FFFFF8
FFFFF8
FFFFF8
FFFFF8
FFFFF8
FC0000
FC0000
FC0000
FC0000
FC0000
FC0000
FC0000
FC0000
FC0000
FFFFC0
FFFFC0
FFFFC0
FFFFC0
FFFFC0
FC0000
FC0000
FC0000
FC0000
FC0000
FC0000
FC0000
FC0000
FC0000
FFFFF8
FFFFF8
FFFFF8
FFFFF8
FFFFF8
ENDCHAR
STARTCHAR 0117
ENCODING 279
SWIDTH 545 0
DWIDTH 25 0
BBX 21 34 2 0
BITMAP
007800
00FC00
00FE00
00FE00
00FE00
00FC00
007800
000000
000000
000000
01FC00
07FF80
1FFFC0
3FFFE0
3F07E0
7E01F0
FC01F0
FC00F8
F800F8
FFFFF8
FFFFF8
FFFFF8
FFFFF8
F80000
F80000
FC0000
FC0000
7C0000
7E0060
3F81F0
1FFFF8
0FFFF0
07FFC0
01FE00
ENDCHAR
STARTCHAR 0118
ENCODING 280
SWIDTH 567 0
DWIDTH 26 0
BBX 21 41 4 -8
BITMAP
FFFFF8
FFFFF8
FFFFF8
FFFFF8
FFFFF8
FC0000
FC0000
FC0000
FC0000
FC0000
FC0000
FC0000
FC0000
FC0000
FFFFC0
FFFFC0
FFFFC0
FFFFC0
FFFFC0
FC0000
FC0000
FC0000
FC0000
FC0000
FC0000
FC0000
FC0000
FC0000
FFFFF8
FFFFF8
FFFFF8
FFFFF8
FFFFF8
0003C0
000780
000F00
000F00
000FF0
000FF0
0007F8
0003E0
ENDCHAR
STARTCHAR 0119
ENCODING 281
SWIDTH 545 0
DWIDTH 25 0
BBX 21 32 2 -8
BITMAP
01FC00
07FF80
1FFFC0
3FFFE0
3F07E0
7E01F0
7C01F0
FC00F8
F800F8
FFFFF8
FFFFF8
FFFFF8
FFFFF8
F80000
F80000
FC0000
FC0000
7E0000
7E00E0
3FC3F0
3FFFF8
1FFFF0
07FFC0
01FE00
003800
007000
00F000
00F000
01FF00
00FF00
00FF00
007E00
ENDCHAR
STARTCHAR 011A
ENCODING 282
SWIDTH 567 0
DWIDTH 26 0
BBX 21 43 4 0
BITMAP
3C03C0
1F0FC0
0F8F80
07DF00
07FE00
03FC00
01F800
000000
000000
000000
FFFFF8
FFFFF8
FFFFF8
FFFFF8
FFFFF8
FC0000
FC0000
FC0000
FC0000
FC0000
FC0000
FC0000
FC0000
FC0000
FFFFC0
FFFFC0
FFFFC0
FFFFC0
FFFFC0
FC0000
FC0000
FC0000
FC0000
FC0000
FC0000
FC0000
FC0000
FC0000
FFFFF8
FFFFF8
FFFFF8
FFFFF8
FFFFF8
ENDCHAR
STARTCHAR 011B
ENCODING 283
SWIDTH 545 0
DWIDTH 25 0
BBX 21 33 2 0
BITMAP
1F03E0
0F87C0
07CF80
03FF00
01FF00
00FE00
000000
000000
000000
01FC00
07FF80
1FFFC0
3FFFE0
3F07E0
7E01F0
FC01F0
FC00F8
F800F8
FFFFF8
FFFFF8
FFFFF8
FFFFF8
F80000
F80000
FC0000
FC0000
7C0000
7E0060
3F81F0
1FFFF8
0FFFF0
07FFC0
01FE00
ENDCHAR
STARTCHAR 011C
ENCODING 284
SWIDTH 720 0
DWIDTH 33 0
BBX 29 43 2 0
BITMAP
0001F000
0003F800
0007FC00
000FFC00
001F3E00
003E1F00
007E0F80
00000000
00000000
00000000
000FFC00
007FFF80
01FFFFE0
03FFFFF0
0FFFFFF8
0FF807F0
1FE001F0
3FC00060
3F800000
7F000000
7E000000
FE000000
FE000000
FC000000
FC000000
FC000000
FC003FF8
FC003FF8
FC003FF8
FC003FF8
FE0000F8
FE0000F8
7E0000F8
7F0000F8
3F8000F8
3FC000F8
1FE001F8
0FFC07F8
07FFFFF8
03FFFFF8
01FFFFE0
007FFF80
0007FC00
ENDCHAR
STARTCHAR 011D
ENCODING 285
SWIDTH 523 0
DWIDTH 24 0
BBX 23 42 1 -9
BITMAP
00FC00
01FE00
03FF00
03EF80
07C7C0
0F83C0
100020
000000
000000
01FC00
07FFFE
1FFFFE
3FFFFE
3F07FC
7E03E0
7C03F0
7C01F0
7C01F0
7C03F0
7E03E0
3F07E0
3FFFC0
1FFF80
07FF00
1FFC00
1E0000
3E0000
3F0000
3FFF80
3FFFF0
1FFFF8
1FFFFC
7C01FC
78007C
F8007C
F8007C
FC00F8
7E03F8
7FFFF0
3FFFE0
1FFF80
03FE00
ENDCHAR
STARTCHAR 011E
ENCODING 286
SWIDTH 720 0
DWIDTH 33 0
BBX 29 43 2 0
BITMAP
003C0F80
003C0F80
003E1F80
003FFF00
001FFE00
000FFC00
0003F800
00000000
00000000
00000000
000FFC00
007FFF80
01FFFFE0
03FFFFF0
0FFFFFF8
0FF807F0
1FE001F0
3FC00060
3F800000
7F000000
7E000000
FE000000
FE000000
FC000000
FC000000
FC000000
FC003FF8
FC003FF8
FC003FF8
FC003FF8
FE0000F8
FE0000F8
7E0000F8
7F0000F8
3F8000F8
3FC000F8
1FE001F8
0FFC07F8
07FFFFF8
03FFFFF8
01FFFFE0
007FFF80
0007FC00
ENDCHAR
STARTCHAR 011F
ENCODING 287
SWIDTH 523 0
DWIDTH 24 0
BBX 23 42 1 -9
BITMAP
0F03C0
0F03C0
0787C0
07FFC0
07FF80
03FF00
00FC00
000000
000000
01FC00
07FFFE
1FFFFE
3FFFFE
3F07FC
7E03E0
7C03F0
7C01F0
7C01F0
7C03F0
7E03E0
3F07E0
3FFFC0
1FFF80
07FF00
1FFC00
1E0000
3E0000
3F0000
3FFF80
3FFFF0
1FFFF8
1FFFFC
7C01FC
78007C
F8007C
F8007C
FC00F8
7E03F8
7FFFF0
3FFFE0
1FFF80
03FE00
ENDCHAR
STARTCHAR 0120
ENCODING 288
SWIDTH 720 0
DWIDTH 33 0
BBX 29 43 2 0
BITMAP
0001E000
0003F000
0003F000
0003F800
0003F800
0003F000
0001E000
00000000
00000000
00000000
000FFC00
007FFF80
01FFFFE0
03FFFFF0
0FFFFFF8
0FF807F0
1FE001F0
3FC00060
3F800000
7F000000
7E000000
FE000000
FE000000
FC000000
FC000000
FC000000
FC003FF8
FC003FF8
FC003FF8
FC003FF8
FE0000F8
FE0000F8
7E0000F8
7F0000F8
3F8000F8
3FC000F8
1FE001F8
0FFC07F8
07FFFFF8
03FFFFF8
01FFFFE0
007FFF80
0007FC00
ENDCHAR
STARTCHAR 0121
ENCODING 289
SWIDTH 523 0
DWIDTH 24 0
BBX 23 43 1 -9
BITMAP
007800
00FC00
00FE00
00FE00
00FE00
00FC00
007800
000000
000000
000000
01FC00
07FFFE
1FFFFE
3FFFFE
3F07FC
7E03E0
7C03F0
7C01F0
7C01F0
7C03F0
7E03E0
3F07E0
3FFFC0
1FFF80
07FF00
1FFC00
1E0000
3E0000
3F0000
3FFF80
3FFFF0
1FFFF8
1FFFFC
7C01FC
78007C
F8007C
F8007C
FC00F8
7E03F8
7FFFF0
3FFFE0
1FFF80
03FE00
ENDCHAR
STARTCHAR 0122
ENCODING 290
SWIDTH 720 0
DWIDTH 33 0
BBX 29 42 2 -9
BITMAP
000FFC00
007FFF80
01FFFFE0
03FFFFF0
0FFFFFF8
0FF807F0
1FE001F0
3FC00060
3F800000
7F000000
7E000000
FE000000
FE000000
FC000000
FC000000
FC000000
FC003FF8
FC003FF8
FC003FF8
FC003FF8
FE0000F8
FE0000F8
7E0000F8
7F0000F8
3F8000F8
3FC000F8
1FE001F8
0FFC07F8
07FFFFF8
03FFFFF8
01FFFFE0
007FFF80
0007FC00
00000000
00000000
0007C000
0007C000
0007C000
00078000
00078000
00078000
000F0000
ENDCHAR
STARTCHAR 0123
ENCODING 291
SWIDTH 523 0
DWIDTH 24 0
BBX 23 42 1 -9
BITMAP
001E00
001E00
003C00
003C00
003C00
007C00
007C00
000000
000000
01FC00
07FFFE
1FFFFE
3FFFFE
3F07FC
7E03E0
7C03F0
7C01F0
7C01F0
7C03F0
7E03E0
3F07E0
3FFFC0
1FFF80
07FF00
1FFC00
1E0000
3E0000
3F0000
3FFF80
3FFFF0
1FFFF8
1FFFFC
7C01FC
78007C
F8007C
F8007C
FC00F8
7E03F8
7FFFF0
3FFFE0
1FFF80
03FE00
ENDCHAR
STARTCHAR 0124
ENCODING 292
SWIDTH 763 0
DWIDTH 35 0
BBX 28 43 4 0
BITMAP
000F8000
001FC000
003FE000
007FE000
00F9F000
01F0F800
03F07C00
00000000
00000000
00000000
FC0003F0
FC0003F0
FC0003F0
FC0003F0
FC0003F0
FC0003F0
FC0003F0
FC0003F0
FC0003F0
FC0003F0
FC0003F0
FC0003F0
FC0003F0
FC0003F0
FFFFFFF0
FFFFFFF0
FFFFFFF0
FFFFFFF0
FC0003F0
FC0003F0
FC0003F0
FC0003F0
FC0003F0
FC0003F0
FC0003F0
FC0003F0
FC0003F0
FC0003F0
FC0003F0
FC0003F0
FC0003F0
FC0003F0
FC0003F0
ENDCHAR
STARTCHAR 0125
ENCODING 293
SWIDTH 567 0
DWIDTH 26 0
BBX 26 43 -3 0
BITMAP
03E00000
07F00000
0FF80000
1FF80000
3E7C0000
7C3E0000
FC1F0000
00000000
00000000
03E00000
03E00000
03E00000
03E00000
03E00000
03E00000
03E00000
03E00000
03E00000
03E00000
03E1F800
03E7FE00
03EFFF00
03FFFF80
03FC1FC0
03F80FC0
03F00FC0
03E007C0
03E007C0
03E007C0
03E007C0
03E007C0
03E007C0
03E007C0
03E007C0
03E007C0
03E007C0
03E007C0
03E007C0
03E007C0
03E007C0
03E007C0
03E007C0
03E007C0
ENDCHAR
STARTCHAR 0126
ENCODING 294
SWIDTH 785 0
DWIDTH 36 0
BBX 35 33 0 0
BITMAP
0FC0003F00
0FC0003F00
0FC0003F00
0FC0003F00
0FC0003F00
FFFFFFFFE0
FFFFFFFFE0
FFFFFFFFE0
FFFFFFFFE0
0FC0003F00
0FC0003F00
0FC0003F00
0FC0003F00
0FC0003F00
0FFFFFFF00
0FFFFFFF00
0FFFFFFF00
0FFFFFFF00
0FC0003F00
0FC0003F00
0FC0003F00
0FC0003F00
0FC0003F00
0FC0003F00
0FC0003F00
0FC0003F00
0FC0003F00
0FC0003F00
0FC0003F00
0FC0003F00
0FC0003F00
0FC0003F00
0FC0003F00
ENDCHAR
STARTCHAR 0127
ENCODING 295
SWIDTH 567 0
DWIDTH 26 0
BBX 23 34 0 0
BITMAP
1F0000
1F0000
1F0000
1F0000
FFFE00
FFFE00
FFFE00
FFFE00
1F0000
1F0000
1F0FC0
1F3FF0
1F7FF8
1FFFFC
1FE0FC
1FC07E
1F807E
1F003E
1F003E
1F003E
1F003E
1F003E
1F003E
1F003E
1F003E
1F003E
1F003E
1F003E
1F003E
1F003E
1F003E
1F003E
1F003E
1F003E
ENDCHAR
STARTCHAR 0128
ENCODING 296
SWIDTH 305 0
DWIDTH 14 0
BBX 17 41 -1 0
BITMAP
1E0780
3FCF00
7FFF00
7FFF00
F1FE00
F07C00
000000
000000
07E000
07E000
07E000
07E000
07E000
07E000
07E000
07E000
07E000
07E000
07E000
07E000
07E000
07E000
07E000
07E000
07E000
07E000
07E000
07E000
07E000
07E000
07E000
07E000
07E000
07E000
07E000
07E000
07E000
07E000
07E000
07E000
07E000
ENDCHAR
STARTCHAR 0129
ENCODING 297
SWIDTH 261 0
DWIDTH 12 0
BBX 15 33 -1 0
BITMAP
1E1E
7F1C
7FFC
FFFC
F3F8
E0F0
0000
0000
0000
0FC0
0FC0
0FC0
0FC0
0FC0
0FC0
0FC0
0FC0
0FC0
0FC0
0FC0
0FC0
0FC0
0FC0
0FC0
0FC0
0FC0
0FC0
0FC0
0FC0
0FC0
0FC0
0FC0
0FC0
ENDCHAR
STARTCHAR 012A
ENCODING 298
SWIDTH 305 0
DWIDTH 14 0
BBX 14 40 0 0
BITMAP
FFFC
FFFC
FFFC
FFFC
0000
0000
0000
0FC0
0FC0
0FC0
0FC0
0FC0
0FC0
0FC0
0FC0
0FC0
0FC0
0FC0
0FC0
0FC0
0FC0
0FC0
0FC0
0FC0
0FC0
0FC0
0FC0
0FC0
0FC0
0FC0
0FC0
0FC0
0FC0
0FC0
0FC0
0FC0
0FC0
0FC0
0FC0
0FC0
ENDCHAR
STARTCHAR 012B
ENCODING 299
SWIDTH 261 0
DWIDTH 12 0
BBX 14 32 -1 0
BITMAP
FFFC
FFFC
FFFC
FFFC
0000
0000
0000
0000
0FC0
0FC0
0FC0
0FC0
0FC0
0FC0
0FC0
0FC0
0FC0
0FC0
0FC0
0FC0
0FC0
0FC0
0FC0
0FC0
0FC0
0FC0
0FC0
0FC0
0FC0
0FC0
0FC0
0FC0
ENDCHAR
STARTCHAR 012C
ENCODING 300
SWIDTH 305 0
DWIDTH 14 0
BBX 15 43 0 0
BITMAP
F03E
F03E
F87E
FFFC
7FF8
3FF0
0FE0
0000
0000
0000
0FC0
0FC0
0FC0
0FC0
0FC0
0FC0
0FC0
0FC0
0FC0
0FC0
0FC0
0FC0
0FC0
0FC0
0FC0
0FC0
0FC0
0FC0
0FC0
0FC0
0FC0
0FC0
0FC0
0FC0
0FC0
0FC0
0FC0
0FC0
0FC0
0FC0
0FC0
0FC0
0FC0
ENDCHAR
STARTCHAR 012D
ENCODING 301
SWIDTH 261 0
DWIDTH 12 0
BBX 14 33 -1 0
BITMAP
F03C
F03C
787C
7FFC
7FF8
3FF0
0FC0
0000
0000
0FC0
0FC0
0FC0
0FC0
0FC0
0FC0
0FC0
0FC0
0FC0
0FC0
0FC0
0FC0
0FC0
0FC0
0FC0
0FC0
0FC0
0FC0
0FC0
0FC0
0FC0
0FC0
0FC0
0FC0
ENDCHAR
STARTCHAR 012E
ENCODING 302
SWIDTH 305 0
DWIDTH 14 0
BBX 9 41 2 -8
BITMAP
3F00
3F00
3F00
3F00
3F00
3F00
3F00
3F00
3F00
3F00
3F00
3F00
3F00
3F00
3F00
3F00
3F00
3F00
3F00
3F00
3F00
3F00
3F00
3F00
3F00
3F00
3F00
3F00
3F00
3F00
3F00
3F00
3F00
1C00
3800
7800
F800
FF80
FF80
7F80
3F00
ENDCHAR
STARTCHAR 012F
ENCODING 303
SWIDTH 261 0
DWIDTH 12 0
BBX 9 42 2 -8
BITMAP
3C00
7E00
FE00
FE00
FE00
7E00
3C00
0000
0000
0000
7E00
7E00
7E00
7E00
7E00
7E00
7E00
7E00
7E00
7E00
7E00
7E00
7E00
7E00
7E00
7E00
7E00
7E00
7E00
7E00
7E00
7E00
7E00
7E00
3800
7000
F000
F000
FF00
FF00
FF80
3E00
ENDCHAR
STARTCHAR 0130
ENCODING 304
SWIDTH 305 0
DWIDTH 14 0
BBX 7 43 4 0
BITMAP
78
FC
FC
FE
FE
FC
78
00
00
00
FC
FC
FC
FC
FC
FC
FC
FC
FC
FC
FC
FC
FC
FC
FC
FC
FC
FC
FC
FC
FC
FC
FC
FC
FC
FC
FC
FC
FC
FC
FC
FC
FC
ENDCHAR
STARTCHAR 0131
ENCODING 305
SWIDTH 261 0
DWIDTH 12 0
BBX 6 24 3 0
BITMAP
FC
FC
FC
FC
FC
FC
FC
FC
FC
FC
FC
FC
FC
FC
FC
FC
FC
FC
FC
FC
FC
FC
FC
FC
ENDCHAR
STARTCHAR 0132
ENCODING 306
SWIDTH 741 0
DWIDTH 34 0
BBX 26 33 4 0
BITMAP
FC000FC0
FC000FC0
FC000FC0
FC000FC0
FC000FC0
FC000FC0
FC000FC0
FC000FC0
FC000FC0
FC000FC0
FC000FC0
FC000FC0
FC000FC0
FC000FC0
FC000FC0
FC000FC0
FC000FC0
FC000FC0
FC000FC0
FC000FC0
FC000FC0
FC000FC0
FC000FC0
FC000FC0
FC000FC0
FC001FC0
FC001FC0
FC007F80
FC1FFF80
FC1FFF00
FC1FFE00
FC1FFC00
FC3FE000
ENDCHAR
STARTCHAR 0133
ENCODING 307
SWIDTH 523 0
DWIDTH 24 0
BBX 19 43 2 -9
BITMAP
3C03C0
7E07E0
FE0FE0
FE0FE0
FE0FE0
7E07E0
3C03C0
000000
000000
000000
7E07E0
7E07E0
7E07E0
7E07E0
7E07E0
7E07E0
7E07E0
7E07E0
7E07E0
7E07E0
7E07E0
7E07E0
7E07E0
7E07E0
7E07E0
7E07E0
7E07E0
7E07E0
7E07E0
7E07E0
7E07E0
7E07E0
7E07E0
7E07E0
0007E0
0007E0
0007E0
0007C0
000FC0
007FC0
00FF80
00FF00
00FC00
ENDCHAR
STARTCHAR 0134
ENCODING 308
SWIDTH 436 0
DWIDTH 20 0
BBX 20 43 1 0
BITMAP
003E00
007F00
00FF80
01FF80
03E7C0
07C3E0
0FC1F0
000000
000000
000000
007E00
007E00
007E00
007E00
007E00
007E00
007E00
007E00
007E00
007E00
007E00
007E00
007E00
007E00
007E00
007E00
007E00
007E00
007E00
007E00
007E00
007E00
007E00
007E00
007E00
00FE00
00FE00
03FC00
FFFC00
FFF800
FFF000
FFE000
FF0000
ENDCHAR
STARTCHAR 0135
ENCODING 309
SWIDTH 261 0
DWIDTH 12 0
BBX 16 42 -2 -9
BITMAP
07E0
0FF0
1FF8
1F7C
3E3E
7C1E
8001
0000
0000
07E0
07E0
07E0
07E0
07E0
07E0
07E0
07E0
07E0
07E0
07E0
07E0
07E0
07E0
07E0
07E0
07E0
07E0
07E0
07E0
07E0
07E0
07E0
07E0
07E0
07E0
07E0
07C0
0FC0
7FC0
FF80
FF00
FC00
ENDCHAR
STARTCHAR 0136
ENCODING 310
SWIDTH 698 0
DWIDTH 32 0
BBX 28 42 4 -9
BITMAP
FC000FE0
FC001FC0
FC003F80
FC007F00
FC00FE00
FC00FE00
FC01FC00
FC03F800
FC07F000
FC0FE000
FC0FE000
FC1FC000
FC3F8000
FC7F0000
FFFE0000
FFFC0000
FFFE0000
FFFF0000
FC3F8000
FC1FC000
FC0FE000
FC0FE000
FC07F000
FC03F800
FC01FC00
FC01FC00
FC00FE00
FC007F00
FC007F80
FC003F80
FC001FC0
FC000FE0
FC0007F0
00000000
00000000
007C0000
007C0000
007C0000
00780000
00780000
00780000
00F00000
ENDCHAR
STARTCHAR 0137
ENCODING 311
SWIDTH 545 0
DWIDTH 25 0
BBX 22 43 3 -9
BITMAP
F80000
F80000
F80000
F80000
F80000
F80000
F80000
F80000
F80000
F80000
F803F8
F803F0
F807E0
F80FC0
F81F80
F83F80
F83F00
F87E00
F8FC00
FFF800
FFF000
FFF800
FFFC00
F8FE00
F87E00
F83F00
F83F80
F81F80
F80FC0
F80FE0
F807E0
F803F0
F803F8
F801FC
000000
000000
01F000
01F000
01F000
01E000
01E000
01E000
03C000
ENDCHAR
STARTCHAR 0138
ENCODING 312
SWIDTH 545 0
DWIDTH 25 0
BBX 22 24 3 0
BITMAP
F803F8
F803F0
F807E0
F80FC0
F81F80
F83F80
F83F00
F87E00
F8FC00
FFF800
FFF000
FFF800
FFFC00
F8FE00
F87E00
F83F00
F83F80
F81F80
F80FC0
F80FE0
F807E0
F803F0
F803F8
F801FC
ENDCHAR
STARTCHAR 0139
ENCODING 313
SWIDTH 523 0
DWIDTH 24 0
BBX 19 43 4 0
BITMAP
07F800
0FF000
1FC000
3F8000
3F0000
7E0000
FC0000
000000
000000
000000
FC0000
FC0000
FC0000
FC0000
FC0000
FC0000
FC0000
FC0000
FC0000
FC0000
FC0000
FC0000
FC0000
FC0000
FC0000
FC0000
FC0000
FC0000
FC0000
FC0000
FC0000
FC0000
FC0000
FC0000
FC0000
FC0000
FC0000
FC0000
FFFFE0
FFFFE0
FFFFE0
FFFFE0
FFFFE0
ENDCHAR
STARTCHAR 013A
ENCODING 314
SWIDTH 240 0
DWIDTH 11 0
BBX 13 43 2 0
BITMAP
07F8
0FF0
1FC0
3F80
3F00
7E00
FC00
0000
0000
7E00
7E00
7E00
7E00
7E00
7E00
7E00
7E00
7E00
7E00
7E00
7E00
7E00
7E00
7E00
7E00
7E00
7E00
7E00
7E00
7E00
7E00
7E00
7E00
7E00
7E00
7E00
7E00
7E00
7E00
7E00
7E00
7E00
7E00
ENDCHAR
STARTCHAR 013B
ENCODING 315
SWIDTH 523 0
DWIDTH 24 0
BBX 19 42 4 -9
BITMAP
FC0000
FC0000
FC0000
FC0000
FC0000
FC0000
FC0000
FC0000
FC0000
FC0000
FC0000
FC0000
FC0000
FC0000
FC0000
FC0000
FC0000
FC0000
FC0000
FC0000
FC0000
FC0000
FC0000
FC0000
FC0000
FC0000
FC0000
FC0000
FFFFE0
FFFFE0
FFFFE0
FFFFE0
FFFFE0
000000
000000
01F000
01F000
01F000
01E000
01E000
01E000
03C000
ENDCHAR
STARTCHAR 013C
ENCODING 316
SWIDTH 240 0
DWIDTH 11 0
BBX 6 43 3 -9
BITMAP
FC
FC
FC
FC
FC
FC
FC
FC
FC
FC
FC
FC
FC
FC
FC
FC
FC
FC
FC
FC
FC
FC
FC
FC
FC
FC
FC
FC
FC
FC
FC
FC
FC
FC
00
00
7C
7C
7C
78
78
78
F0
ENDCHAR
STARTCHAR 013D
ENCODING 317
SWIDTH 523 0
DWIDTH 24 0
BBX 19 34 4 0
BITMAP
001E00
FC3E00
FC3E00
FC3E00
FC3C00
FC3C00
FC3800
FC7800
FC0000
FC0000
FC0000
FC0000
FC0000
FC0000
FC0000
FC0000
FC0000
FC0000
FC0000
FC0000
FC0000
FC0000
FC0000
FC0000
FC0000
FC0000
FC0000
FC0000
FC0000
FFFFE0
FFFFE0
FFFFE0
FFFFE0
FFFFE0
ENDCHAR
STARTCHAR 013E
ENCODING 318
SWIDTH 240 0
DWIDTH 11 0
BBX 13 34 3 0
BITMAP
FC78
FCF8
FCF8
FCF8
FCF0
FCF0
FCE0
FDE0
FC00
FC00
FC00
FC00
FC00
FC00
FC00
FC00
FC00
FC00
FC00
FC00
FC00
FC00
FC00
FC00
FC00
FC00
FC00
FC00
FC00
FC00
FC00
FC00
FC00
FC00
ENDCHAR
STARTCHAR 013F
ENCODING 319
SWIDTH 545 0
DWIDTH 25 0
BBX 19 33 4 0
BITMAP
FC0000
FC0000
FC0000
FC0000
FC0000
FC0000
FC0000
FC0000
FC0000
FC0000
FC0000
FC0780
FC0FC0
FC0FE0
FC0FE0
FC0FE0
FC0FC0
FC0780
FC0000
FC0000
FC0000
FC0000
FC0000
FC0000
FC0000
FC0000
FC0000
FC0000
FFFFE0
FFFFE0
FFFFE0
FFFFE0
FFFFE0
ENDCHAR
STARTCHAR 0140
ENCODING 320
SWIDTH 392 0
DWIDTH 18 0
BBX 15 34 3 0
BITMAP
FC00
FC00
FC00
FC00
FC00
FC00
FC00
FC00
FC00
FC00
FC00
FC00
FC00
FC38
FC7C
FCFE
FCFE
FCFE
FC7C
FC38
FC00
FC00
FC00
FC00
FC00
FC00
FC00
FC00
FC00
FC00
FC00
FC00
FC00
FC00
ENDCHAR
STARTCHAR 0141
ENCODING 321
SWIDTH 545 0
DWIDTH 25 0
BBX 24 33 0 0
BITMAP
0FE000
0FE000
0FE000
0FE000
0FE000
0FE000
0FE000
0FE000
0FE000
0FE020
0FE0E0
0FE3E0
0FEFE0
0FFFE0
0FFFC0
0FFF00
0FFC00
3FF000
FFE000
FFE000
FFE000
FFE000
CFE000
0FE000
0FE000
0FE000
0FE000
0FE000
0FFFFF
0FFFFF
0FFFFF
0FFFFF
0FFFFF
ENDCHAR
STARTCHAR 0142
ENCODING 322
SWIDTH 327 0
DWIDTH 15 0
BBX 14 34 1 0
BITMAP
0F80
0F80
0F80
0F80
0F80
0F80
0F80
0F80
0F80
0F80
0F80
0F9C
0FFC
0FFC
1FF8
7FF0
FF80
FF80
EF80
8F80
0F80
0F80
0F80
0F80
0F80
0F80
0F80
0F80
0F80
0F80
0F80
0F80
0F80
0F80
ENDCHAR
STARTCHAR 0143
ENCODING 323
SWIDTH 763 0
DWIDTH 35 0
BBX 28 43 4 0
BITMAP
0001FE00
0003FC00
0007F000
000FE000
000FC000
001F8000
003F0000
00000000
00000000
00000000
F80003F0
F80003F0
FC0003F0
FE0003F0
FF0003F0
FF8003F0
FF8003F0
FFC003F0
FFE003F0
FFF003F0
FFF003F0
FBF803F0
F9FC03F0
F8FE03F0
F87F03F0
F87F03F0
F83F83F0
F81FC3F0
F80FE3F0
F80FF3F0
F807F3F0
F803FBF0
F801FFF0
F800FFF0
F800FFF0
F8007FF0
F8003FF0
F8001FF0
F8000FF0
F8000FF0
F80007F0
F80003F0
F80001F0
ENDCHAR
STARTCHAR 0144
ENCODING 324
SWIDTH 567 0
DWIDTH 26 0
BBX 20 33 3 0
BITMAP
001FC0
003F80
003F00
007E00
007C00
00F800
01F000
000000
000000
F0FE00
F9FF80
FBFFC0
FFFFE0
FF07F0
FE03F0
FC03F0
F801F0
F801F0
F801F0
F801F0
F801F0
F801F0
F801F0
F801F0
F801F0
F801F0
F801F0
F801F0
F801F0
F801F0
F801F0
F801F0
F801F0
ENDCHAR
STARTCHAR 0145
ENCODING 325
SWIDTH 763 0
DWIDTH 35 0
BBX 28 42 4 -9
BITMAP
F80003F0
F80003F0
FC0003F0
FE0003F0
FF0003F0
FF8003F0
FF8003F0
FFC003F0
FFE003F0
FFF003F0
FFF003F0
FBF803F0
F9FC03F0
F8FE03F0
F87F03F0
F87F03F0
F83F83F0
F81FC3F0
F80FE3F0
F80FF3F0
F807F3F0
F803FBF0
F801FFF0
F800FFF0
F800FFF0
F8007FF0
F8003FF0
F8001FF0
F8000FF0
F8000FF0
F80007F0
F80003F0
F80001F0
00000000
00000000
000F8000
000F8000
000F8000
000F0000
000F0000
000F0000
001E0000
ENDCHAR
STARTCHAR 0146
ENCODING 326
SWIDTH 567 0
DWIDTH 26 0
BBX 20 33 3 -9
BITMAP
F0FE00
F9FF80
FBFFC0
FFFFE0
FF07F0
FE03F0
FC03F0
F801F0
F801F0
F801F0
F801F0
F801F0
F801F0
F801F0
F801F0
F801F0
F801F0
F801F0
F801F0
F801F0
F801F0
F801F0
F801F0
F801F0
000000
000000
00F800
00F800
00F800
00F000
00F000
00F000
01E000
ENDCHAR
STARTCHAR 0147
ENCODING 327
SWIDTH 763 0
DWIDTH 35 0
BBX 28 43 4 0
BITMAP
03C03C00
01F0FC00
00F8F800
007DF000
007FE000
003FC000
001F8000
00000000
00000000
00000000
F80003F0
F80003F0
FC0003F0
FE0003F0
FF0003F0
FF8003F0
FF8003F0
FFC003F0
FFE003F0
FFF003F0
FFF003F0
FBF803F0
F9FC03F0
F8FE03F0
F87F03F0
F87F03F0
F83F83F0
F81FC3F0
F80FE3F0
F80FF3F0
F807F3F0
F803FBF0
F801FFF0
F800FFF0
F800FFF0
F8007FF0
F8003FF0
F8001FF0
F8000FF0
F8000FF0
F80007F0
F80003F0
F80001F0
ENDCHAR
STARTCHAR 0148
ENCODING 328
SWIDTH 567 0
DWIDTH 26 0
BBX 20 33 3 0
BITMAP
3E07C0
1F0F80
0F9F00
07FE00
03FE00
01FC00
000000
000000
000000
F0FE00
F9FF80
FBFFC0
FFFFE0
FF07F0
FE03F0
FC03F0
F801F0
F801F0
F801F0
F801F0
F801F0
F801F0
F801F0
F801F0
F801F0
F801F0
F801F0
F801F0
F801F0
F801F0
F801F0
F801F0
F801F0
ENDCHAR
STARTCHAR 0149
ENCODING 329
SWIDTH 632 0
DWIDTH 29 0
BBX 26 36 0 0
BITMAP
10000000
78000000
F8000000
FC000000
7C000000
7C000000
7C000000
7C000000
7C000000
78000000
78000000
F0000000
F3C3F800
E3E7FE00
43EFFF00
03FFFF80
03FC1FC0
03F80FC0
03F00FC0
03E007C0
03E007C0
03E007C0
03E007C0
03E007C0
03E007C0
03E007C0
03E007C0
03E007C0
03E007C0
03E007C0
03E007C0
03E007C0
03E007C0
03E007C0
03E007C0
03E007C0
ENDCHAR
STARTCHAR 014A
ENCODING 330
SWIDTH 763 0
DWIDTH 35 0
BBX 28 42 4 -9
BITMAP
F80003F0
F80003F0
FC0003F0
FE0003F0
FF0003F0
FF8003F0
FF8003F0
FFC003F0
FFE003F0
FFF003F0
FFF003F0
FBF803F0
F9FC03F0
F8FE03F0
F87F03F0
F87F03F0
F83F83F0
F81FC3F0
F80FE3F0
F80FF3F0
F807F3F0
F803FBF0
F801FFF0
F800FFF0
F800FFF0
F8007FF0
F8003FF0
F8001FF0
F8000FF0
F8000FF0
F80007F0
F80003F0
F80003F0
000003F0
000003F0
000003E0
000003E0
000007E0
0000FFC0
0001FFC0
0001FF80
0000FE00
ENDCHAR
STARTCHAR 014B
ENCODING 331
SWIDTH 567 0
DWIDTH 26 0
BBX 20 33 3 -9
BITMAP
F0FE00
F9FF80
FBFFC0
FFFFE0
FF07E0
FE03F0
FC03F0
F801F0
F801F0
F801F0
F801F0
F801F0
F801F0
F801F0
F801F0
F801F0
F801F0
F801F0
F801F0
F801F0
F801F0
F801F0
F801F0
F801F0
0001F0
0001F0
0003F0
0003F0
0007E0
00FFE0
00FFC0
00FF80
01FE00
ENDCHAR
STARTCHAR 014C
ENCODING 332
SWIDTH 807 0
DWIDTH 37 0
BBX 33 40 2 0
BITMAP
007FFE0000
007FFE0000
007FFE0000
007FFE0000
0000000000
0000000000
0000000000
000FF80000
007FFF0000
01FFFFC000
03FFFFE000
07FFFFF800
0FF80FF800
1FE003FC00
3F8000FE00
3F80007F00
7F00007F00
7E00003F00
FE00003F80
FE00001F80
FC00001F80
FC00001F80
FC00001F80
FC00001F80
FC00001F80
FC00001F80
FC00001F80
FE00001F80
FE00003F80
7E00003F00
7F00007F00
3F00007F00
3F8000FE00
1FE003FC00
0FF80FFC00
07FFFFF800
03FFFFE000
01FFFFC000
007FFF0000
000FF80000
ENDCHAR
STARTCHAR 014D
ENCODING 333
SWIDTH 567 0
DWIDTH 26 0
BBX 23 32 2 0
BITMAP
0FFFC0
0FFFC0
0FFFC0
0FFFC0
000000
000000
000000
000000
01FE00
07FF80
0FFFE0
3FFFF0
3F83F8
7E01F8
7E00FC
FC00FC
FC007C
FC007E
F8007E
F8007E
F8007E
F8007E
FC007E
FC007C
FC00FC
7E00FC
7E01F8
3F83F8
3FFFF0
0FFFE0
07FF80
01FE00
ENDCHAR
STARTCHAR 014E
ENCODING 334
SWIDTH 807 0
DWIDTH 37 0
BBX 33 43 2 0
BITMAP
00781F0000
00781F0000
007C3F0000
007FFE0000
003FFC0000
001FF80000
0007F00000
0000000000
0000000000
0000000000
000FF80000
007FFF0000
01FFFFC000
03FFFFE000
07FFFFF800
0FF80FF800
1FE003FC00
3F8000FE00
3F80007F00
7F00007F00
7E00003F00
FE00003F80
FE00001F80
FC00001F80
FC00001F80
FC00001F80
FC00001F80
FC00001F80
FC00001F80
FC00001F80
FE00001F80
FE00003F80
7E00003F00
7F00007F00
3F00007F00
3F8000FE00
1FE003FC00
0FF80FFC00
07FFFFF800
03FFFFE000
01FFFFC000
007FFF0000
000FF80000
ENDCHAR
STARTCHAR 014F
ENCODING 335
SWIDTH 567 0
DWIDTH 26 0
BBX 23 33 2 0
BITMAP
0F03C0
0F03C0
0787C0
07FFC0
07FF80
03FF00
00FC00
000000
000000
01FE00
07FF80
0FFFE0
3FFFF0
3F83F8
7E01F8
7E00FC
FC00FC
FC007C
FC007E
F8007E
F8007E
F8007E
F8007E
FC007E
FC007C
FC00FC
7E00FC
7E01F8
3F83F8
3FFFF0
0FFFE0
07FF80
01FE00
ENDCHAR
STARTCHAR 0150
ENCODING 336
SWIDTH 807 0
DWIDTH 37 0
BBX 33 42 2 0
BITMAP
0003E3F800
0007C7E000
000F8FC000
000F0F8000
001E1E0000
003C7C0000
0000000000
0000000000
0000000000
000FF80000
007FFF0000
01FFFFC000
03FFFFE000
07FFFFF800
0FF80FF800
1FE003FC00
3F8000FE00
3F80007F00
7F00007F00
7E00003F00
FE00003F80
FE00001F80
FC00001F80
FC00001F80
FC00001F80
FC00001F80
FC00001F80
FC00001F80
FC00001F80
FE00001F80
FE00003F80
7E00003F00
7F00007F00
3F00007F00
3F8000FE00
1FE003FC00
0FF80FFC00
07FFFFF800
03FFFFE000
01FFFFC000
007FFF0000
000FF80000
ENDCHAR
STARTCHAR 0151
ENCODING 337
SWIDTH 567 0
DWIDTH 26 0
BBX 23 33 2 0
BITMAP
007C7C
00F8F8
00F1F0
01F3E0
01E3C0
03C780
078F00
000000
000000
01FE00
07FF80
0FFFE0
3FFFF0
3F83F8
7E01F8
7E00FC
FC00FC
FC007C
FC007E
F8007E
F8007E
F8007E
F8007E
FC007E
FC007C
FC00FC
7E00FC
7E01F8
3F83F8
3FFFF0
0FFFE0
07FF80
01FE00
ENDCHAR
STARTCHAR 0152
ENCODING 338
SWIDTH 1090 0
DWIDTH 50 0
BBX 46 33 2 0
BITMAP
001FE03FFFFC
00FFFC3FFFFC
03FFFE3FFFFC
07FFFFBFFFFC
0FFFFFFFFFFC
1FF01FFE0000
1FC007FE0000
3F8003FE0000
7F0001FE0000
7F0001FE0000
7E0000FE0000
FE0000FE0000
FE00007E0000
FC00007FFFE0
FC00007FFFE0
FC00007FFFE0
FC00007FFFE0
FC00007FFFE0
FC00007E0000
FC00007E0000
FE00007E0000
FE0000FE0000
7E0000FE0000
7F0001FE0000
7F0001FE0000
3F8003FE0000
1FC007FE0000
1FF01FFE0000
0FFFFFFFFFFC
07FFFFBFFFFC
03FFFE3FFFFC
00FFFC3FFFFC
001FE03FFFFC
ENDCHAR
STARTCHAR 0153
ENCODING 339
SWIDTH 872 0
DWIDTH 40 0
BBX 37 24 2 0
BITMAP
01FC00FC00
07FF03FF00
1FFFCFFFC0
3FFFDFFFE0
3F07FF87E0
7E03FE01F0
7C01FE01F0
FC01FC00F0
FC00FC00F8
FC00FFFFF8
F800FFFFF8
F800FFFFF8
F800FFFFF8
F800FC0000
FC00FC0000
FC00FC0000
FC01FE0000
7C01FE0000
7E03FF00E0
3F07FF83F0
3FFFCFFFF8
1FFF8FFFF0
07FF03FFC0
01FC00FE00
ENDCHAR
STARTCHAR 0154
ENCODING 340
SWIDTH 654 0
DWIDTH 30 0
BBX 26 43 4 0
BITMAP
000FF000
001FE000
003F8000
007F0000
007E0000
00FC0000
01F80000
00000000
00000000
00000000
FFFE0000
FFFFC000
FFFFE000
FFFFF800
FFFFF800
FC07FC00
FC01FC00
FC00FC00
FC00FE00
FC007E00
FC007E00
FC00FC00
FC00FC00
FC00FC00
FC01F800
FC07F800
FFFFF000
FFFFC000
FFFF8000
FFFF0000
FC3F8000
FC1FC000
FC0FC000
FC0FE000
FC07F000
FC03F800
FC03F800
FC01FC00
FC00FE00
FC00FE00
FC007F00
FC003F80
FC003FC0
ENDCHAR
STARTCHAR 0155
ENCODING 341
SWIDTH 370 0
DWIDTH 17 0
BBX 15 33 3 0
BITMAP
00FE
01FC
01F8
03F0
03E0
07C0
0F80
0000
0000
F07C
F9FC
FBFC
FFFC
FFFC
FFFC
FF00
FE00
FC00
FC00
F800
F800
F800
F800
F800
F800
F800
F800
F800
F800
F800
F800
F800
F800
ENDCHAR
STARTCHAR 0156
ENCODING 342
SWIDTH 654 0
DWIDTH 30 0
BBX 26 42 4 -9
BITMAP
FFFE0000
FFFFC000
FFFFE000
FFFFF800
FFFFF800
FC07FC00
FC01FC00
FC00FC00
FC00FE00
FC007E00
FC007E00
FC00FC00
FC00FC00
FC00FC00
FC01F800
FC07F800
FFFFF000
FFFFC000
FFFF8000
FFFF0000
FC3F8000
FC1FC000
FC0FC000
FC0FE000
FC07F000
FC03F800
FC03F800
FC01FC00
FC00FE00
FC00FE00
FC007F00
FC003F80
FC003FC0
00000000
00000000
007C0000
007C0000
007C0000
00780000
00780000
00780000
00F00000
ENDCHAR
STARTCHAR 0157
ENCODING 343
SWIDTH 370 0
DWIDTH 17 0
BBX 14 33 3 -9
BITMAP
F07C
F9FC
FBFC
FFFC
FFFC
FFFC
FF00
FE00
FC00
FC00
F800
F800
F800
F800
F800
F800
F800
F800
F800
F800
F800
F800
F800
F800
0000
0000
7C00
7C00
7C00
7800
7800
7800
F000
ENDCHAR
STARTCHAR 0158
ENCODING 344
SWIDTH 654 0
DWIDTH 30 0
BBX 26 43 4 0
BITMAP
3C03C000
1F0FC000
0F8F8000
07DF0000
07FE0000
03FC0000
01F80000
00000000
00000000
00000000
FFFE0000
FFFFC000
FFFFE000
FFFFF800
FFFFF800
FC07FC00
FC01FC00
FC00FC00
FC00FE00
FC007E00
FC007E00
FC00FC00
FC00FC00
FC00FC00
FC01F800
FC07F800
FFFFF000
FFFFC000
FFFF8000
FFFF0000
FC3F8000
FC1FC000
FC0FC000
FC0FE000
FC07F000
FC03F800
FC03F800
FC01FC00
FC00FE00
FC00FE00
FC007F00
FC003F80
FC003FC0
ENDCHAR
STARTCHAR 0159
ENCODING 345
SWIDTH 370 0
DWIDTH 17 0
BBX 16 33 1 0
BITMAP
F81F
7C3E
3E7C
1FF8
0FF8
07F0
0000
0000
0000
3C1F
3E7F
3EFF
3FFF
3FFF
3FFF
3FC0
3F80
3F00
3F00
3E00
3E00
3E00
3E00
3E00
3E00
3E00
3E00
3E00
3E00
3E00
3E00
3E00
3E00
ENDCHAR
STARTCHAR 015A
ENCODING 346
SWIDTH 545 0
DWIDTH 25 0
BBX 23 43 1 0
BITMAP
0003FC
0007F8
000FE0
001FC0
001F80
003F00
007E00
000000
000000
000000
007F00
03FFE0
07FFF8
0FFFFC
1FFFF8
3FC1F8
3F0070
3E0000
7E0000
7E0000
7F0000
3F0000
3FC000
3FF800
1FFF00
0FFFC0
07FFF0
01FFF8
003FFC
0007FC
0001FC
0000FC
00007E
00007E
00007C
3000FC
7C00FC
7F03F8
FFFFF8
7FFFF0
3FFFE0
0FFF80
01FE00
ENDCHAR
STARTCHAR 015B
ENCODING 347
SWIDTH 436 0
DWIDTH 20 0
BBX 18 33 1 0
BITMAP
003F80
007F00
007E00
00FC00
00F800
01F000
03E000
000000
000000
03F800
0FFF00
1FFF80
3FFF80
7F0700
7C0000
7C0000
7C0000
7F0000
7FC000
3FF800
1FFE00
0FFF00
03FF80
007FC0
001FC0
000FC0
000FC0
300F80
7C1F80
FFFF80
7FFF00
3FFC00
07F000
ENDCHAR
STARTCHAR 015C
ENCODING 348
SWIDTH 545 0
DWIDTH 25 0
BBX 23 43 1 0
BITMAP
003E00
007F00
00FF80
01FF80
03E7C0
07C3E0
0FC1F0
000000
000000
000000
007F00
03FFE0
07FFF8
0FFFFC
1FFFF8
3FC1F8
3F0070
3E0000
7E0000
7E0000
7F0000
3F0000
3FC000
3FF800
1FFF00
0FFFC0
07FFF0
01FFF8
003FFC
0007FC
0001FC
0000FC
00007E
00007E
00007C
3000FC
7C00FC
7F03F8
FFFFF8
7FFFF0
3FFFE0
0FFF80
01FE00
ENDCHAR
STARTCHAR 015D
ENCODING 349
SWIDTH 436 0
DWIDTH 20 0
BBX 18 33 1 0
BITMAP
03F000
07F800
0FFC00
0FBE00
1F1F00
3E0F00
400080
000000
000000
03F800
0FFF00
1FFF80
3FFF80
7F0700
7C0000
7C0000
7C0000
7F0000
7FC000
3FF800
1FFE00
0FFF00
03FF80
007FC0
001FC0
000FC0
000FC0
300F80
7C1F80
FFFF80
7FFF00
3FFC00
07F000
ENDCHAR
STARTCHAR 015E
ENCODING 350
SWIDTH 545 0
DWIDTH 25 0
BBX 23 42 1 -9
BITMAP
007F00
03FFE0
07FFF8
0FFFFC
1FFFF8
3FC1F8
3F0070
3E0000
7E0000
7E0000
7E0000
3F0000
3FC000
3FF800
1FFF00
0FFFC0
07FFF0
01FFF8
003FF8
0007FC
0001FC
0000FC
00007E
00007E
00007C
3000FC
7C00FC
7F03FC
FFFFF8
7FFFF0
3FFFE0
0FFFC0
01FF00
003800
003800
007E00
007F00
000F80
000F80
000F80
00FF00
00FC00
ENDCHAR
STARTCHAR 015F
ENCODING 351
SWIDTH 436 0
DWIDTH 20 0
BBX 18 33 1 -9
BITMAP
03F800
0FFF00
1FFF80
3FFF80
7F0F00
7E0100
7C0000
7C0000
7E0000
7F8000
7FF000
3FFC00
1FFF00
0FFF80
01FF80
003FC0
000FC0
000FC0
000FC0
300F80
7C1F80
7FFF80
FFFF00
3FFE00
0FF800
01C000
01C000
03F000
03F800
007C00
007C00
07F800
07E000
ENDCHAR
STARTCHAR 0160
ENCODING 352
SWIDTH 545 0
DWIDTH 25 0
BBX 23 43 1 0
BITMAP
0F00F0
07C3F0
03E3E0
01F7C0
01FF80
00FF00
007E00
000000
000000
000000
007F00
03FFE0
07FFF8
0FFFFC
1FFFF8
3FC1F8
3F0070
3E0000
7E0000
7E0000
7F0000
3F0000
3FC000
3FF800
1FFF00
0FFFC0
07FFF0
01FFF8
003FFC
0007FC
0001FC
0000FC
00007E
00007E
00007C
3000FC
7C00FC
7F03F8
FFFFF8
7FFFF0
3FFFE0
0FFF80
01FE00
ENDCHAR
STARTCHAR 0161
ENCODING 353
SWIDTH 436 0
DWIDTH 20 0
BBX 18 33 1 0
BITMAP
7C0F80
3E1F00
1F3E00
0FFC00
07FC00
03F800
000000
000000
000000
03F800
0FFF00
1FFF80
3FFF80
7F0700
7C0000
7C0000
7C0000
7F0000
7FC000
3FF800
1FFE00
0FFF00
03FF80
007FC0
001FC0
000FC0
000FC0
300F80
7C1F80
FFFF80
7FFF00
3FFC00
07F000
ENDCHAR
STARTCHAR 0162
ENCODING 354
SWIDTH 610 0
DWIDTH 28 0
BBX 26 42 1 -9
BITMAP
FFFFFFC0
FFFFFFC0
FFFFFFC0
FFFFFFC0
FFFFFFC0
003F0000
003F0000
003F0000
003F0000
003F0000
003F0000
003F0000
003F0000
003F0000
003F0000
003F0000
003F0000
003F0000
003F0000
003F0000
003F0000
003F0000
003F0000
003F0000
003F0000
003F0000
003F0000
003F0000
003F0000
003F0000
003F0000
003F0000
003F0000
001C0000
001C0000
001F0000
003F8000
000FC000
0007C000
0007C000
007F8000
007E0000
ENDCHAR
STARTCHAR 0163
ENCODING 355
SWIDTH 370 0
DWIDTH 17 0
BBX 16 39 1 -9
BITMAP
0780
0780
0F80
0F80
0F80
0F80
FFFE
FFFE
FFFE
FFFE
1F80
1F80
1F80
1F80
1F80
1F80
1F80
1F80
1F80
1F80
1F80
1F80
1F80
1F80
1F80
1F84
0FFC
0FFE
0FFF
07FE
03FC
00E0
01E0
01F8
01FC
003E
003C
03FC
03F0
ENDCHAR
STARTCHAR 0164
ENCODING 356
SWIDTH 610 0
DWIDTH 28 0
BBX 26 43 1 0
BITMAP
07807800
03E1F800
01F1F000
00FBE000
00FFC000
007F8000
003F0000
00000000
00000000
00000000
FFFFFFC0
FFFFFFC0
FFFFFFC0
FFFFFFC0
FFFFFFC0
003F0000
003F0000
003F0000
003F0000
003F0000
003F0000
003F0000
003F0000
003F0000
003F0000
003F0000
003F0000
003F0000
003F0000
003F0000
003F0000
003F0000
003F0000
003F0000
003F0000
003F0000
003F0000
003F0000
003F0000
003F0000
003F0000
003F0000
003F0000
ENDCHAR
STARTCHAR 0165
ENCODING 357
SWIDTH 370 0
DWIDTH 17 0
BBX 18 34 1 0
BITMAP
0003C0
0007C0
0007C0
0787C0
078780
0F8780
0F8700
0F8F00
0F8000
0F8000
FFFE00
FFFE00
FFFE00
FFFE00
1F8000
1F8000
1F8000
1F8000
1F8000
1F8000
1F8000
1F8000
1F8000
1F8000
1F8000
1F8000
1F8000
1F8000
1F8000
0FC400
0FFE00
0FFE00
07FF00
01F800
ENDCHAR
STARTCHAR 0166
ENCODING 358
SWIDTH 610 0
DWIDTH 28 0
BBX 26 33 1 0
BITMAP
FFFFFFC0
FFFFFFC0
FFFFFFC0
FFFFFFC0
FFFFFFC0
003F0000
003F0000
003F0000
003F0000
003F0000
003F0000
003F0000
003F0000
1FFFFE00
1FFFFE00
1FFFFE00
1FFFFE00
003F0000
003F0000
003F0000
003F0000
003F0000
003F0000
003F0000
003F0000
003F0000
003F0000
003F0000
003F0000
003F0000
003F0000
003F0000
003F0000
ENDCHAR
STARTCHAR 0167
ENCODING 359
SWIDTH 370 0
DWIDTH 17 0
BBX 16 31 1 0
BITMAP
0780
0780
0F80
0F80
0F80
0F80
0F80
FFFE
FFFE
FFFE
FFFE
1F80
1F80
1F80
FFFE
FFFE
FFFE
FFFE
1F80
1F80
1F80
1F80
1F80
1F80
1F80
1F80
0FC4
0FFE
0FFE
07FF
01F8
ENDCHAR
STARTCHAR 0168
ENCODING 360
SWIDTH 741 0
DWIDTH 34 0
BBX 28 41 3 0
BITMAP
00781E00
00FF3C00
01FFFC00
01FFFC00
03C7F800
03C1F000
00000000
00000000
FC0003F0
FC0003F0
FC0003F0
FC0003F0
FC0003F0
FC0003F0
FC0003F0
FC0003F0
FC0003F0
FC0003F0
FC0003F0
FC0003F0
FC0003F0
FC0003F0
FC0003F0
FC0003F0
FC0003F0
FC0003F0
FC0003F0
FC0003F0
FC0003F0
FE0003F0
7E0007F0
7E0007E0
7F0007E0
7F000FE0
3F801FC0
1FE07FC0
1FFFFF80
0FFFFF00
07FFFE00
01FFF800
003FC000
ENDCHAR
STARTCHAR 0169
ENCODING 361
SWIDTH 567 0
DWIDTH 26 0
BBX 20 33 3 0
BITMAP
03C3C0
0FE380
0FFF80
1FFF80
1E7F00
1C1E00
000000
000000
000000
F803F0
F803F0
F803F0
F803F0
F803F0
F803F0
F803F0
F803F0
F803F0
F803F0
F803F0
F803F0
F803F0
F803F0
F803F0
F803F0
F803F0
FC03F0
FC07F0
FE0FF0
7FFFF0
3FFDF0
1FF9F0
07E1F0
ENDCHAR
STARTCHAR 016A
ENCODING 362
SWIDTH 741 0
DWIDTH 34 0
BBX 28 40 3 0
BITMAP
01FFF800
01FFF800
01FFF800
01FFF800
00000000
00000000
00000000
FC0003F0
FC0003F0
FC0003F0
FC0003F0
FC0003F0
FC0003F0
FC0003F0
FC0003F0
FC0003F0
FC0003F0
FC0003F0
FC0003F0
FC0003F0
FC0003F0
FC0003F0
FC0003F0
FC0003F0
FC0003F0
FC0003F0
FC0003F0
FC0003F0
FE0003F0
7E0007F0
7E0007E0
7F0007E0
7F000FE0
3F801FC0
1FE07FC0
1FFFFF80
0FFFFF00
07FFFE00
01FFF800
003FC000
ENDCHAR
STARTCHAR 016B
ENCODING 363
SWIDTH 567 0
DWIDTH 26 0
BBX 20 32 3 0
BITMAP
1FFF80
1FFF80
1FFF80
1FFF80
000000
000000
000000
000000
F803F0
F803F0
F803F0
F803F0
F803F0
F803F0
F803F0
F803F0
F803F0
F803F0
F803F0
F803F0
F803F0
F803F0
F803F0
F803F0
F803F0
FC03F0
FC07F0
FE0FF0
7FFFF0
3FFDF0
1FF9F0
07E1F0
ENDCHAR
STARTCHAR 016C
ENCODING 364
SWIDTH 741 0
DWIDTH 34 0
BBX 28 43 3 0
BITMAP
01E07C00
01E07C00
01F0FC00
01FFF800
00FFF000
007FE000
001FC000
00000000
00000000
00000000
FC0003F0
FC0003F0
FC0003F0
FC0003F0
FC0003F0
FC0003F0
FC0003F0
FC0003F0
FC0003F0
FC0003F0
FC0003F0
FC0003F0
FC0003F0
FC0003F0
FC0003F0
FC0003F0
FC0003F0
FC0003F0
FC0003F0
FC0003F0
FC0003F0
FE0003F0
7E0007F0
7E0007E0
7F0007E0
7F000FE0
3F801FC0
1FE07FC0
1FFFFF80
0FFFFF00
07FFFE00
01FFF800
003FC000
ENDCHAR
STARTCHAR 016D
ENCODING 365
SWIDTH 567 0
DWIDTH 26 0
BBX 20 33 3 0
BITMAP
1E0780
1E0780
0F0F80
0FFF80
0FFF00
07FE00
01F800
000000
000000
F803F0
F803F0
F803F0
F803F0
F803F0
F803F0
F803F0
F803F0
F803F0
F803F0
F803F0
F803F0
F803F0
F803F0
F803F0
F803F0
F803F0
FC03F0
FC07F0
FE0FF0
7FFFF0
3FFDF0
1FF9F0
07E1F0
ENDCHAR
STARTCHAR 016E
ENCODING 366
SWIDTH 741 0
DWIDTH 34 0
BBX 28 44 3 0
BITMAP
000F0000
001FC000
0039C000
0030E000
0070E000
0030E000
0039E000
001FC000
000F0000
00000000
00000000
FC0003F0
FC0003F0
FC0003F0
FC0003F0
FC0003F0
FC0003F0
FC0003F0
FC0003F0
FC0003F0
FC0003F0
FC0003F0
FC0003F0
FC0003F0
FC0003F0
FC0003F0
FC0003F0
FC0003F0
FC0003F0
FC0003F0
FC0003F0
FC0003F0
FE0003F0
7E0007F0
7E0007E0
7F0007E0
7F000FE0
3F801FC0
1FE07FC0
1FFFFF80
0FFFFF00
07FFFE00
01FFF800
003FC000
ENDCHAR
STARTCHAR 016F
ENCODING 367
SWIDTH 567 0
DWIDTH 26 0
BBX 20 36 3 0
BITMAP
00F000
03FC00
03FE00
078E00
070E00
070E00
078E00
03FE00
03FC00
00F000
000000
000000
F803F0
F803F0
F803F0
F803F0
F803F0
F803F0
F803F0
F803F0
F803F0
F803F0
F803F0
F803F0
F803F0
F803F0
F803F0
F803F0
F803F0
FC03F0
FC07F0
FE0FF0
7FFFF0
3FFDF0
1FF9F0
07E1F0
ENDCHAR
STARTCHAR 0170
ENCODING 368
SWIDTH 741 0
DWIDTH 34 0
BBX 28 42 3 0
BITMAP
000F8FE0
001F1F80
003E3F00
003C3E00
00787800
00F1F000
00000000
00000000
00000000
FC0003F0
FC0003F0
FC0003F0
FC0003F0
FC0003F0
FC0003F0
FC0003F0
FC0003F0
FC0003F0
FC0003F0
FC0003F0
FC0003F0
FC0003F0
FC0003F0
FC0003F0
FC0003F0
FC0003F0
FC0003F0
FC0003F0
FC0003F0
FC0003F0
FE0003F0
7E0007F0
7E0007E0
7F0007E0
7F000FE0
3F801FC0
1FE07FC0
1FFFFF80
0FFFFF00
07FFFE00
01FFF800
003FC000
ENDCHAR
STARTCHAR 0171
ENCODING 369
SWIDTH 567 0
DWIDTH 26 0
BBX 21 33 3 0
BITMAP
00F8F8
01F1F0
01E3E0
03E7C0
03C780
078F00
0F1E00
000000
000000
F803F0
F803F0
F803F0
F803F0
F803F0
F803F0
F803F0
F803F0
F803F0
F803F0
F803F0
F803F0
F803F0
F803F0
F803F0
F803F0
F803F0
FC03F0
FC07F0
FE0FF0
7FFFF0
3FFDF0
1FF9F0
07E1F0
ENDCHAR
STARTCHAR 0172
ENCODING 370
SWIDTH 741 0
DWIDTH 34 0
BBX 28 41 3 -8
BITMAP
FC0003F0
FC0003F0
FC0003F0
FC0003F0
FC0003F0
FC0003F0
FC0003F0
FC0003F0
FC0003F0
FC0003F0
FC0003F0
FC0003F0
FC0003F0
FC0003F0
FC0003F0
FC0003F0
FC0003F0
FC0003F0
FC0003F0
FC0003F0
FC0003F0
FE0003F0
7E0007F0
7E0007E0
7F0007E0
7F000FE0
3F801FC0
3FE07F80
1FFFFF80
0FFFFF00
07FFFC00
01FFF800
007F8000
000F0000
001E0000
001E0000
003E0000
003FE000
003FE000
001FE000
000FC000
ENDCHAR
STARTCHAR 0173
ENCODING 371
SWIDTH 567 0
DWIDTH 26 0
BBX 22 32 3 -8
BITMAP
F803F0
F803F0
F803F0
F803F0
F803F0
F803F0
F803F0
F803F0
F803F0
F803F0
F803F0
F803F0
F803F0
F803F0
F803F0
F803F0
F803F0
FC03F0
FC07F0
FE0FF0
7FFFF0
3FFDF0
1FF9F0
07E1F0
0000E0
0001C0
0003C0
0003C0
0007FC
0003FC
0003FC
0001F8
ENDCHAR
STARTCHAR 0174
ENCODING 372
SWIDTH 1047 0
DWIDTH 48 0
BBX 48 43 0 0
BITMAP
000003E00000
000007F00000
00000FF80000
00001FF80000
00003E7C0000
00007C3E0000
0000FC1F0000
000000000000
000000000000
000000000000
FE0003E0003F
7F0007E0007E
7F0007F0007E
7F0007F000FE
3F800FF000FE
3F800FF800FC
3F800FF800FC
1F801FF801FC
1FC01FFC01F8
1FC01FFC01F8
0FC03F7C03F8
0FE03E7E03F0
0FE03E7E03F0
07E07E3E03F0
07E07C3F07E0
07F07C3F07E0
03F0FC1F07E0
03F0F81F8FC0
03F8F81F8FC0
03F9F80F8FC0
01F9F00FCFC0
01F9F00FDF80
01FFF007DF80
00FFE007DF80
00FFE007FF00
00FFE003FF00
007FC003FF00
007FC003FE00
007FC001FE00
003F8001FE00
003F8001FC00
003F8000FC00
001F0000FC00
ENDCHAR
STARTCHAR 0175
ENCODING 373
SWIDTH 807 0
DWIDTH 37 0
BBX 37 33 0 0
BITMAP
0001F80000
0003FC0000
0007FE0000
0007DF0000
000F8F8000
001F078000
0020004000
0000000000
0000000000
FC00F801F8
7E00FC03F0
7E01FC03F0
7E01FC03E0
3E01FC03E0
3F03FE07E0
3F03FE07C0
1F03DE07C0
1F83DF07C0
1F87DF0FC0
0F878F0F80
0F878F0F80
0FCF8F8F80
07CF0F9F00
07CF079F00
07DF07DF00
03DF07DE00
03FE03FE00
03FE03FE00
03FE03FC00
01FC01FC00
01FC01FC00
01FC01F800
00F800F800
ENDCHAR
STARTCHAR 0176
ENCODING 374
SWIDTH 654 0
DWIDTH 30 0
BBX 30 43 0 0
BITMAP
0007C000
000FE000
001FF000
003FF000
007CF800
00F87C00
01F83E00
00000000
00000000
00000000
FE0001FC
7E0001F8
7F0003F8
3F0007F0
3F8007E0
1F800FE0
0FC00FC0
0FE01FC0
07E01F80
07F03F00
03F03F00
01F87E00
01F87E00
00FCFC00
00FCF800
007FF800
003FF000
003FF000
001FE000
001FC000
000FC000
000FC000
000FC000
000FC000
000FC000
000FC000
000FC000
000FC000
000FC000
000FC000
000FC000
000FC000
000FC000
ENDCHAR
STARTCHAR 0177
ENCODING 375
SWIDTH 523 0
DWIDTH 24 0
BBX 24 41 0 -8
BITMAP
003F00
007F80
00FFC0
00FBE0
01F1F0
03E0F0
040008
000000
000000
FC001F
7E003F
7E003E
3F007E
3F007C
3F00FC
1F80FC
1F80F8
0FC1F8
0FC1F0
07C1F0
07E3E0
07E3E0
03F7E0
03F7C0
01F7C0
01FF80
00FF80
00FF80
00FF00
007F00
007E00
003E00
007C00
007C00
00FC00
00F800
01F800
01F000
03F000
03F000
07E000
ENDCHAR
STARTCHAR 0178
ENCODING 376
SWIDTH 654 0
DWIDTH 30 0
BBX 30 41 0 0
BITMAP
00F01C00
00F83E00
01F87E00
01F87E00
01F83E00
00F03C00
00000000
00000000
FE0001FC
7E0001F8
7F0003F8
3F0007F0
3F8007E0
1F800FE0
0FC00FC0
0FE01FC0
07E01F80
07F03F00
03F03F00
01F87E00
01F87E00
00FCFC00
00FCF800
007FF800
003FF000
003FF000
001FE000
001FC000
000FC000
000FC000
000FC000
000FC000
000FC000
000FC000
000FC000
000FC000
000FC000
000FC000
000FC000
000FC000
000FC000
ENDCHAR
STARTCHAR 0179
ENCODING 377
SWIDTH 610 0
DWIDTH 28 0
BBX 26 43 1 0
BITMAP
0001FE00
0003FC00
0007F000
000FE000
000FC000
001F8000
003F0000
00000000
00000000
00000000
7FFFFFC0
7FFFFFC0
7FFFFFC0
7FFFFF80
7FFFFF80
00007F00
00007E00
0000FE00
0001FC00
0003F800
0003F000
0007F000
000FE000
000FC000
001FC000
003F8000
007F0000
007E0000
00FE0000
01FC0000
01F80000
03F80000
07F00000
0FE00000
0FC00000
1FC00000
3F800000
3F000000
7FFFFF80
FFFFFF80
FFFFFF80
FFFFFF80
FFFFFF80
ENDCHAR
STARTCHAR 017A
ENCODING 378
SWIDTH 458 0
DWIDTH 21 0
BBX 19 33 1 0
BITMAP
001FC0
003F80
003F00
007E00
007C00
00F800
01F000
000000
000000
7FFFE0
7FFFE0
7FFFE0
7FFFE0
000FC0
001F80
003F80
003F00
007E00
00FC00
00FC00
01F800
03F000
07F000
07E000
0FC000
1F8000
1F8000
3F0000
7E0000
7FFFC0
FFFFC0
FFFFC0
FFFFC0
ENDCHAR
STARTCHAR 017B
ENCODING 379
SWIDTH 610 0
DWIDTH 28 0
BBX 26 43 1 0
BITMAP
001E0000
003F0000
003F0000
003F8000
003F8000
003F0000
001E0000
00000000
00000000
00000000
7FFFFFC0
7FFFFFC0
7FFFFFC0
7FFFFF80
7FFFFF80
00007F00
00007E00
0000FE00
0001FC00
0003F800
0003F000
0007F000
000FE000
000FC000
001FC000
003F8000
007F0000
007E0000
00FE0000
01FC0000
01F80000
03F80000
07F00000
0FE00000
0FC00000
1FC00000
3F800000
3F000000
7FFFFF80
FFFFFF80
FFFFFF80
FFFFFF80
FFFFFF80
ENDCHAR
STARTCHAR 017C
ENCODING 380
SWIDTH 458 0
DWIDTH 21 0
BBX 19 34 1 0
BITMAP
00F000
01F800
01FC00
01FC00
01FC00
01F800
00F000
000000
000000
000000
7FFFE0
7FFFE0
7FFFE0
7FFFE0
000FC0
001F80
003F80
003F00
007E00
00FC00
00FC00
01F800
03F000
07F000
07E000
0FC000
1F8000
1F8000
3F0000
7E0000
7FFFC0
FFFFC0
FFFFC0
FFFFC0
ENDCHAR
STARTCHAR 017D
ENCODING 381
SWIDTH 610 0
DWIDTH 28 0
BBX 26 43 1 0
BITMAP
07807800
03E1F800
01F1F000
00FBE000
00FFC000
007F8000
003F0000
00000000
00000000
00000000
7FFFFFC0
7FFFFFC0
7FFFFFC0
7FFFFF80
7FFFFF80
00007F00
00007E00
0000FE00
0001FC00
0003F800
0003F000
0007F000
000FE000
000FC000
001FC000
003F8000
007F0000
007E0000
00FE0000
01FC0000
01F80000
03F80000
07F00000
0FE00000
0FC00000
1FC00000
3F800000
3F000000
7FFFFF80
FFFFFF80
FFFFFF80
FFFFFF80
FFFFFF80
ENDCHAR
STARTCHAR 017E
ENCODING 382
SWIDTH 458 0
DWIDTH 21 0
BBX 19 33 1 0
BITMAP
3E07C0
1F0F80
0F9F00
07FE00
03FE00
01FC00
000000
000000
000000
7FFFE0
7FFFE0
7FFFE0
7FFFE0
000FC0
001F80
003F80
003F00
007E00
00FC00
00FC00
01F800
03F000
07F000
07E000
0FC000
1F8000
1F8000
3F0000
7E0000
7FFFC0
FFFFC0
FFFFC0
FFFFC0
ENDCHAR
STARTCHAR 017F
ENCODING 383
SWIDTH 305 0
DWIDTH 14 0
BBX 15 33 1 0
BITMAP
007E
01FE
07FE
07FE
0FE0
0FC0
0F80
1F80
1F80
FF80
FF80
FF80
FF80
1F80
1F80
1F80
1F80
1F80
1F80
1F80
1F80
1F80
1F80
1F80
1F80
1F80
1F80
1F80
1F80
1F80
1F80
1F80
1F80
ENDCHAR
STARTCHAR 0180
ENCODING 384
SWIDTH 567 0
DWIDTH 26 0
BBX 25 34 0 0
BITMAP
1F000000
1F000000
1F000000
1F000000
FFFC0000
FFFC0000
FFFC0000
FFFC0000
1F000000
1F000000
1F0FE000
1F3FF800
1F7FFC00
1FFFFC00
1FE0FE00
1FC07E00
1F803F00
1F003F00
1F003F00
1F001F00
1F001F00
1F001F80
1F001F00
1F001F00
1F003F00
1F003F00
1F003F00
1F007F00
1F807E00
1FE1FE00
1FFFFC00
1FFFF800
1F7FF000
1F1FC000
ENDCHAR
STARTCHAR 0181
ENCODING 385
SWIDTH 829 0
DWIDTH 38 0
BBX 35 33 1 0
BITMAP
03FFFFE000
1FFFFFFC00
3FFFFFFE00
7FFFFFFF00
7FFFFFFF80
FC3F007F80
F83F001FC0
F83F001FC0
F83F000FC0
F83F000FC0
F83F000FC0
F83F001F80
803F001F80
003F007F00
003FFFFC00
003FFFF000
003FFFFE00
003FFFFF00
003F003F80
003F000FC0
003F000FC0
003F0007E0
003F0007E0
003F0007E0
003F000FE0
003F000FE0
003F001FC0
003F003FC0
003FFFFF80
003FFFFF00
003FFFFE00
003FFFFC00
003FFFE000
ENDCHAR
STARTCHAR 0182
ENCODING 386
SWIDTH 632 0
DWIDTH 29 0
BBX 23 33 4 0
BITMAP
FFFFFC
FFFFFC
FFFFFC
FFFFFC
FFFFFC
FC0000
FC0000
FC0000
FC0000
FC0000
FC0000
FC0000
FC0000
FFFF00
FFFFE0
FFFFF0
FFFFF8
FFFFFC
FC01FE
FC00FE
FC007E
FC007E
FC007E
FC007E
FC007E
FC007E
FC00FE
FC03FC
FFFFFC
FFFFF8
FFFFF0
FFFFC0
FFFF00
ENDCHAR
STARTCHAR 0183
ENCODING 387
SWIDTH 567 0
DWIDTH 26 0
BBX 22 34 3 0
BITMAP
FFFFE0
FFFFE0
FFFFE0
FFFFE0
F80000
F80000
F80000
F80000
F80000
F80000
F87F00
F9FF80
FBFFE0
FFFFE0
FF07F0
FE03F0
FC01F8
F801F8
F801F8
F800F8
F800F8
F800FC
F800FC
F800F8
F801F8
F801F8
F801F8
F803F0
FC03F0
FF0FF0
FFFFE0
FFFFC0
FBFF80
F8FE00
ENDCHAR
STARTCHAR 0184
ENCODING 388
SWIDTH 698 0
DWIDTH 32 0
BBX 30 33 1 0
BITMAP
01F00000
03F00000
07F00000
0FF00000
1FF00000
3FF00000
7FF00000
7FF00000
FFF00000
7FF00000
3FF00000
0FFFFC00
07FFFF80
07FFFFC0
07FFFFE0
07FFFFF0
07F007F8
07F001FC
07F001FC
07F000FC
07F000FC
07F000FC
07F000FC
07F000FC
07F000FC
07F001FC
07F003FC
07F007F8
07FFFFF0
07FFFFF0
07FFFFC0
07FFFF80
07FFFC00
ENDCHAR
STARTCHAR 0185
ENCODING 389
SWIDTH 589 0
DWIDTH 27 0
BBX 27 34 -1 0
BITMAP
03C00000
07C00000
0FC00000
1FC00000
1FC00000
3FC00000
7FC00000
FFC00000
FFC00000
3FC00000
1FC3F800
07CFFC00
07DFFF00
07FFFF00
07F83F80
07F01F80
07E00FC0
07C00FC0
07C00FC0
07C007C0
07C007C0
07C007E0
07C007C0
07C007C0
07C00FC0
07C00FC0
07C00FC0
07C01F80
07E01F80
07F87F00
07FFFF00
07FFFE00
07DFFC00
07C7F000
ENDCHAR
STARTCHAR 0186
ENCODING 390
SWIDTH 676 0
DWIDTH 31 0
BBX 28 33 1 0
BITMAP
01FF0000
0FFFE000
3FFFF800
7FFFFC00
FFFFFE00
7F01FF00
3C007F80
10003F80
00001FC0
00000FC0
00000FE0
000007E0
000007E0
000007F0
000007F0
000007F0
000007F0
000007F0
000007F0
000007F0
000007E0
000007E0
00000FE0
00000FE0
00001FC0
30003FC0
78007F80
FE01FF00
FFFFFE00
7FFFFC00
3FFFF800
0FFFE000
01FF0000
ENDCHAR
STARTCHAR 0187
ENCODING 391
SWIDTH 676 0
DWIDTH 31 0
BBX 35 41 2 0
BITMAP
0000001F80
0000007FE0
000000FFC0
000001FFC0
000001FFC0
000001F800
000003F000
000003F000
000FF3F000
007FFFE000
01FFFFE000
03FFFFE000
0FFFFFE000
0FF80FC000
1FE003C000
3F80008000
3F80000000
7F00000000
7E00000000
FE00000000
FE00000000
FC00000000
FC00000000
FC00000000
FC00000000
FC00000000
FC00000000
FC00000000
FE00000000
FE00000000
7E00000000
7F00000000
7F80000000
3FC0008000
1FE003C000
1FF80FE000
0FFFFFF000
07FFFFE000
01FFFF8000
00FFFE0000
001FF80000
ENDCHAR
STARTCHAR 0188
ENCODING 392
SWIDTH 480 0
DWIDTH 22 0
BBX 25 33 2 0
BITMAP
00003F00
00007F80
0000FF80
0001FF80
0001F000
0003E000
0003E000
0003E000
0003E000
01FFE000
07FFE000
1FFFE000
3FFFE000
3F83C000
7E008000
7E000000
FC000000
FC000000
FC000000
F8000000
F8000000
F8000000
F8000000
FC000000
FC000000
FC000000
7E000000
7E01C000
3F83E000
3FFFE000
1FFFC000
07FF8000
01FC0000
ENDCHAR
STARTCHAR 0189
ENCODING 393
SWIDTH 763 0
DWIDTH 35 0
BBX 34 33 0 0
BITMAP
0FFFF80000
0FFFFF0000
0FFFFFC000
0FFFFFF000
0FFFFFF800
0FC00FFC00
0FC001FE00
0FC000FE00
0FC0007F00
0FC0003F00
0FC0003F80
0FC0001F80
0FC0001F80
0FC0001F80
FFFF001FC0
FFFF001FC0
FFFF001FC0
FFFF001FC0
0FC0001FC0
0FC0001F80
0FC0001F80
0FC0001F80
0FC0003F80
0FC0003F00
0FC0007F00
0FC000FE00
0FC001FE00
0FC00FFC00
0FFFFFF800
0FFFFFF000
0FFFFFC000
0FFFFF0000
0FFFF80000
ENDCHAR
STARTCHAR 018A
ENCODING 394
SWIDTH 938 0
DWIDTH 43 0
BBX 40 33 1 0
BITMAP
03FFFFE000
0FFFFFFC00
3FFFFFFF00
7FFFFFFFC0
7FFFFFFFE0
FC3F003FF0
F83F0007F8
F83F0003F8
F83F0001FC
F83F0000FC
F83F0000FE
F83F00007E
E03F00007E
003F00007E
003F00007F
003F00007F
003F00007F
003F00007F
003F00007F
003F00007F
003F00007E
003F00007E
003F0000FE
003F0000FC
003F0001FC
003F0003F8
003F0007F8
003F003FF0
003FFFFFE0
003FFFFFC0
003FFFFF00
003FFFFE00
003FFFE000
ENDCHAR
STARTCHAR 018B
ENCODING 395
SWIDTH 632 0
DWIDTH 29 0
BBX 24 33 1 0
BITMAP
3FFFFF
3FFFFF
3FFFFF
3FFFFF
3FFFFF
00003F
00003F
00003F
00003F
00003F
00003F
00003F
00003F
00FFFF
07FFFF
0FFFFF
1FFFFF
3FFFFF
7F803F
7F003F
7E003F
FE003F
FE003F
7E003F
7E003F
7E003F
7F003F
3F803F
3FFFFF
1FFFFF
0FFFFF
03FFFF
00FFFF
ENDCHAR
STARTCHAR 018C
ENCODING 396
SWIDTH 567 0
DWIDTH 26 0
BBX 21 34 2 0
BITMAP
3FFFF8
3FFFF8
3FFFF8
3FFFF8
0000F8
0000F8
0000F8
0000F8
0000F8
0000F8
01F8F8
07FEF8
1FFFF8
3FFFF8
3F87F8
7E01F8
7E00F8
FC00F8
FC00F8
FC00F8
FC00F8
F800F8
F800F8
F800F8
FC00F8
FC00F8
FC00F8
FC01F8
7E03F8
7F07F8
3FFFF8
3FFEF8
0FFCF8
07F078
ENDCHAR
STARTCHAR 018D
ENCODING 397
SWIDTH 523 0
DWIDTH 24 0
BBX 23 33 1 0
BITMAP
01FE00
07FF80
1FFFE0
3FFFF0
3F87F8
7E01F8
FC00FC
FC00FC
FC00FC
F8007C
F8007E
F8007E
FC007C
FC00FC
FC00FC
7E01FC
7F01F8
3F83F0
1FCFE0
1FFFC0
07FF80
03FE00
01FF80
007FC0
001FE0
0007E0
0003E0
0003E0
1F03E0
1FFFE0
1FFFC0
3FFF80
0FFE00
ENDCHAR
STARTCHAR 018E
ENCODING 398
SWIDTH 567 0
DWIDTH 26 0
BBX 21 33 2 0
BITMAP
FFFFF8
FFFFF8
FFFFF8
FFFFF8
FFFFF8
0003F8
0003F8
0003F8
0003F8
0003F8
0003F8
0003F8
0003F8
0003F8
1FFFF8
1FFFF8
1FFFF8
1FFFF8
1FFFF8
0003F8
0003F8
0003F8
0003F8
0003F8
0003F8
0003F8
0003F8
0003F8
FFFFF8
FFFFF8
FFFFF8
FFFFF8
FFFFF8
ENDCHAR
STARTCHAR 018F
ENCODING 399
SWIDTH 741 0
DWIDTH 34 0
BBX 30 33 2 0
BITMAP
007FC000
07FFF800
1FFFFE00
3FFFFF00
FFFFFF80
FF807FC0
7E001FE0
38000FF0
000007F0
000003F8
000003F8
000001F8
000001F8
000001FC
000001FC
FFFFFFFC
FFFFFFFC
FFFFFFFC
FFFFFFFC
FC0001FC
FC0001FC
FC0001F8
FC0003F8
FE0003F8
7E0007F0
7F000FF0
3F801FE0
3FE07FC0
1FFFFF80
0FFFFF00
07FFFE00
01FFF800
003FC000
ENDCHAR
STARTCHAR 0190
ENCODING 400
SWIDTH 589 0
DWIDTH 27 0
BBX 25 33 2 0
BITMAP
007FC000
03FFF000
0FFFFC00
1FFFFF00
3FFFFE00
7FC07E00
7F001C00
7E000000
7E000000
7E000000
7E000000
7F000000
3FC00000
1FFFE000
07FFE000
0FFFE000
1FFFE000
3FC00000
7F000000
7E000000
FE000000
FC000000
FC000000
FC000000
FE000000
FE000E00
7F001F00
7FC07F80
3FFFFF00
1FFFFE00
0FFFFC00
07FFF000
00FF8000
ENDCHAR
STARTCHAR 0191
ENCODING 401
SWIDTH 567 0
DWIDTH 26 0
BBX 29 42 -4 -9
BITMAP
00FFFFF8
00FFFFF8
00FFFFF8
00FFFFF8
00FFFFF8
00FC0000
00FC0000
00FC0000
00FC0000
00FC0000
00FC0000
00FC0000
00FC0000
00FC0000
00FC0000
00FFFFC0
00FFFFC0
00FFFFC0
00FFFFC0
00FFFFC0
00FC0000
00FC0000
00FC0000
00FC0000
00FC0000
00FC0000
00FC0000
00FC0000
00FC0000
00FC0000
00FC0000
00FC0000
00FC0000
00FC0000
00FC0000
01FC0000
03F80000
7FF80000
7FF80000
7FF00000
FFE00000
3F800000
ENDCHAR
STARTCHAR 0192
ENCODING 402
SWIDTH 349 0
DWIDTH 16 0
BBX 19 41 -3 -8
BITMAP
000FE0
003FE0
007FE0
00FFE0
00FC00
01F800
01F800
01F800
01F800
0FFFE0
0FFFE0
0FFFE0
0FFFE0
01F800
01F800
01F800
01F800
01F800
01F800
01F800
01F800
01F800
01F800
01F800
01F800
01F800
01F800
01F800
01F800
01F800
01F800
01F800
01F800
01F800
01F800
03F000
03F000
7FE000
FFE000
FFC000
7E0000
ENDCHAR
STARTCHAR 0193
ENCODING 403
SWIDTH 741 0
DWIDTH 34 0
BBX 36 41 2 0
BITMAP
0000000FE0
0000001FF0
0000003FF0
0000007FF0
0000007FF0
000000FC00
000000FC00
000000F800
000FFCF800
007FFFF800
01FFFFF800
03FFFFF800
0FFFFFF800
0FF807F000
1FE001F000
3FC0006000
3F80000000
7F00000000
7E00000000
FE00000000
FE00000000
FC00000000
FC00000000
FC00000000
FC003FF800
FC003FF800
FC003FF800
FC003FF800
FE0000F800
FE0000F800
7E0000F800
7F0000F800
3F8000F800
3FC000F800
1FE001F800
0FF807F800
07FFFFF800
03FFFFF800
01FFFFE000
007FFF8000
000FFC0000
ENDCHAR
STARTCHAR 0194
ENCODING 404
SWIDTH 698 0
DWIDTH 32 0
BBX 34 33 -1 0
BITMAP
FE00001FC0
7F00003F80
3F80003F00
3F80007E00
1FC000FE00
0FE000FC00
07E001F800
07F003F800
03F803F000
01F807E000
01FC0FE000
00FE0FC000
007E1F8000
007F3F0000
003FBF0000
001FFE0000
000FFC0000
000FFC0000
0007F80000
0007F80000
000FFC0000
000FFE0000
001FFE0000
003F7F0000
007F3F8000
007E1F8000
00FE0FC000
01FC0FE000
03F807F000
03FFFFF000
07FFFFF800
0FFFFFFC00
1FFFFFFE00
ENDCHAR
STARTCHAR 0195
ENCODING 405
SWIDTH 850 0
DWIDTH 39 0
BBX 34 34 3 0
BITMAP
F800000000
F800000000
F800000000
F800000000
F800000000
F800000000
F800000000
F800000000
F800000000
F800000000
F87E000FC0
F9FF800FC0
FFFFC00FC0
FFFFE00FC0
FF07F00FC0
FE03F00FC0
FC03F00FC0
F801F00FC0
F801F00FC0
F801F00FC0
F801F00FC0
F801F00FC0
F801F00FC0
F801F00FC0
F801F00FC0
F801F00FC0
F801F00FC0
F801F80F80
F801F81F80
F800FC3F80
F800FFFF00
F8007FFE00
F8003FFC00
F80007F000
ENDCHAR
STARTCHAR 0196
ENCODING 406
SWIDTH 349 0
DWIDTH 16 0
BBX 11 33 4 0
BITMAP
FC00
FC00
FC00
FC00
FC00
FC00
FC00
FC00
FC00
FC00
FC00
FC00
FC00
FC00
FC00
FC00
FC00
FC00
FC00
FC00
FC00
FC00
FC00
FC00
FC00
FC00
FC00
FC00
FFE0
FFE0
7FE0
3FE0
1F80
ENDCHAR
STARTCHAR 0197
ENCODING 407
SWIDTH 327 0
DWIDTH 15 0
BBX 15 33 0 0
BITMAP
0FC0
0FC0
0FC0
0FC0
0FC0
0FC0
0FC0
0FC0
0FC0
0FC0
0FC0
0FC0
0FC0
0FC0
FFFE
FFFE
FFFE
FFFE
0FC0
0FC0
0FC0
0FC0
0FC0
0FC0
0FC0
0FC0
0FC0
0FC0
0FC0
0FC0
0FC0
0FC0
0FC0
ENDCHAR
STARTCHAR 0198
ENCODING 408
SWIDTH 720 0
DWIDTH 33 0
BBX 28 33 4 0
BITMAP
FC000FF0
FC003FF0
FC007FF0
FC00FFF0
FC01FC00
FC01F800
FC03F000
FC07F000
FC07E000
FC0FE000
FC1FC000
FC1F8000
FC3F8000
FC7F0000
FFFE0000
FFFC0000
FFFF0000
FFFF0000
FC3F8000
FC1FC000
FC0FE000
FC0FE000
FC07F000
FC03F800
FC01FC00
FC01FC00
FC00FE00
FC007F00
FC003F80
FC003F80
FC001FC0
FC000FE0
FC0007F0
ENDCHAR
STARTCHAR 0199
ENCODING 409
SWIDTH 545 0
DWIDTH 25 0
BBX 22 33 3 0
BITMAP
07F000
1FF800
3FF000
7FF000
7E0000
FC0000
FC0000
FC0000
F80000
F803F8
F803F0
F807E0
F80FC0
F81F80
F83F80
F83F00
F87E00
F8FC00
FFF800
FFF000
FFF800
FFFC00
F8FE00
F87E00
F83F00
F83F80
F81F80
F80FC0
F80FE0
F807E0
F803F0
F803F8
F801FC
ENDCHAR
STARTCHAR 019A
ENCODING 410
SWIDTH 283 0
DWIDTH 13 0
BBX 12 34 1 0
BITMAP
3F00
3F00
3F00
3F00
3F00
3F00
3F00
3F00
3F00
3F00
3F00
3F00
3F00
3F00
3F00
FFF0
FFF0
FFF0
FFF0
3F00
3F00
3F00
3F00
3F00
3F00
3F00
3F00
3F00
3F00
3F00
3F00
3F00
3F00
3F00
ENDCHAR
STARTCHAR 019B
ENCODING 411
SWIDTH 545 0
DWIDTH 25 0
BBX 24 33 0 0
BITMAP
1F0000
3F8000
3FC000
3FE000
03E000
03F380
01FF80
01FFC0
07FE00
1FF800
1FFC00
0E7C00
007C00
00FE00
00FE00
00FE00
01FF00
01FF00
03FF80
03EF80
07EF80
07CFC0
07C7C0
0FC7C0
0F83E0
1F83E0
1F03F0
3F01F0
3F01F8
7E01FF
7E00FF
7E007F
FC001F
ENDCHAR
STARTCHAR 019C
ENCODING 412
SWIDTH 1090 0
DWIDTH 50 0
BBX 44 33 3 0
BITMAP
FE001F8007F0
FE001F8007F0
FE001F8007F0
FE001F8007F0
FE001F8007F0
FE001F8007F0
FE001F8007F0
FE001F8007F0
FE001F8007F0
FE001F8007F0
FE001F8007F0
FE001F8007F0
FE001F8007F0
FE001F8007F0
FE001F8007F0
FE001F8007F0
FE001F8007F0
FE001F8007F0
FE001F8007F0
FE001F8007F0
FE001F8007F0
FE001F8007F0
FE001F8007F0
7E001F8007F0
7E003F8007F0
7E003FC00FF0
7F003FC01FF0
3F807FE03FF0
3FC1FFF07FF0
1FFFF3FFFBF0
0FFFE1FFF3F0
07FF80FFE3F0
01FE003F81F0
ENDCHAR
STARTCHAR 019D
ENCODING 413
SWIDTH 763 0
DWIDTH 35 0
BBX 36 42 -4 -9
BITMAP
00F80003F0
00F80003F0
00FC0003F0
00FE0003F0
00FF0003F0
00FF8003F0
00FF8003F0
00FFC003F0
00FFE003F0
00FFF003F0
00FFF003F0
00FBF803F0
00F9FC03F0
00F8FE03F0
00F87F03F0
00F87F03F0
00F83F83F0
00F81FC3F0
00F80FE3F0
00F80FF3F0
00F807F3F0
00F803FBF0
00F801FFF0
00F800FFF0
00F800FFF0
00F8007FF0
00F8003FF0
00F8001FF0
00F8000FF0
00F8000FF0
00F80007F0
00F80003F0
00F80001F0
00F8000000
00F8000000
01F8000000
03F8000000
7FF0000000
7FF0000000
7FE0000000
FFC0000000
3F00000000
ENDCHAR
STARTCHAR 019E
ENCODING 414
SWIDTH 610 0
DWIDTH 28 0
BBX 24 32 1 -8
BITMAP
7807E0
FE3FF8
FF7FFC
FFFFFE
1FF07E
1FE03F
0F803F
0F803F
0F801F
0F801F
0F801F
0F801F
0F801F
0F801F
0F801F
0F801F
0F801F
0F801F
0F801F
0F801F
0F801F
0F801F
0F801F
0F801F
00001F
00001F
00001F
00001F
00001F
00001F
00001F
00001F
ENDCHAR
STARTCHAR 019F
ENCODING 415
SWIDTH 807 0
DWIDTH 37 0
BBX 33 33 2 0
BITMAP
000FF80000
007FFF0000
01FFFFC000
03FFFFE000
07FFFFF800
0FF80FF800
1FE003FC00
3F8000FE00
3F80007F00
7F00007F00
7E00003F00
FE00003F80
FE00001F80
FC00001F80
FFFFFFFF80
FFFFFFFF80
FFFFFFFF80
FFFFFFFF80
FC00001F80
FC00001F80
FE00003F80
FE00003F80
7E00003F00
7F00007F00
3F8000FF00
3FC000FE00
1FE003FC00
0FF80FFC00
07FFFFF800
03FFFFE000
01FFFFC000
007FFF0000
000FF80000
ENDCHAR
STARTCHAR 01A0
ENCODING 416
SWIDTH 872 0
DWIDTH 40 0
BBX 37 37 2 0
BITMAP
00000001F8
00000001F8
00000003F8
00000001F8
000FF801F8
007FFF01F8
01FFFFC1F0
03FFFFF1F0
07FFFFFFE0
0FF80FFFC0
1FE003FF80
3F8000FE00
3F80007E00
7F00007F00
7E00003F00
FE00003F80
FE00001F80
FC00001F80
FC00001F80
FC00001F80
FC00001F80
FC00001F80
FC00001F80
FC00001F80
FE00001F80
FE00003F80
7E00003F00
7F00007F00
3F00007F00
3F8000FE00
1FE003FC00
0FF80FFC00
07FFFFF800
03FFFFE000
01FFFFC000
007FFF0000
000FF80000
ENDCHAR
STARTCHAR 01A1
ENCODING 417
SWIDTH 632 0
DWIDTH 29 0
BBX 28 28 2 0
BITMAP
00000060
000003E0
000003F0
000003F0
01FE03E0
07FFC1E0
0FFFE3E0
3FFFF7C0
3F83FF80
7E01FF00
7E00FC00
FC00FC00
FC007C00
FC007E00
F8007E00
F8007E00
F8007E00
F8007E00
FC007E00
FC007C00
FC00FC00
7E00FC00
7E01F800
3F83F800
3FFFF000
0FFFE000
07FF8000
01FE0000
ENDCHAR
STARTCHAR 01A2
ENCODING 418
SWIDTH 1025 0
DWIDTH 47 0
BBX 42 41 2 -8
BITMAP
001FF003F800
00FFFE0FFE00
01FFFF1FFF00
07FFFFFFFF80
0FFFFFFFFF80
1FF01FFC3F80
1FC007F81FC0
3F8003F81FC0
7F0001F80FC0
7F0001FC0FC0
7E0000FC0FC0
FE0000FE0FC0
FE0000FE0FC0
FC00007E0FC0
FC00007E0FC0
FC00007E0FC0
FC00007E0FC0
FC00007E0FC0
FC00007E0FC0
FC00007E0FC0
FE0000FE0FC0
FE0000FE0FC0
7E0000FC0FC0
7F0001FC0FC0
7F0001FC0FC0
3F8003F80FC0
1FC007F80FC0
1FF01FF00FC0
0FFFFFE00FC0
07FFFFC00FC0
01FFFF800FC0
00FFFE000FC0
001FF0000FC0
000000000FC0
000000000FC0
000000000FC0
000000000FC0
000000000FC0
000000000FC0
000000000FC0
000000000FC0
ENDCHAR
STARTCHAR 01A3
ENCODING 419
SWIDTH 829 0
DWIDTH 38 0
BBX 33 32 2 -8
BITMAP
01FE01F800
07FFC7FC00
0FFFFFFE00
3FFFFFFF00
3F83FE3F00
7E01F81F80
7E00F81F80
FC00F81F80
FC00F81F80
FC00F81F80
F800F81F80
F800F81F80
F800F81F80
F800F81F80
FC00F81F80
FC00F81F80
FC00F81F80
7E01F81F80
7E01F81F80
3F83F01F80
3FFFF01F80
0FFFE01F80
07FF801F80
01FE001F80
0000001F80
0000001F80
0000001F80
0000001F80
0000001F80
0000001F80
0000001F80
0000001F80
ENDCHAR
STARTCHAR 01A4
ENCODING 420
SWIDTH 785 0
DWIDTH 36 0
BBX 34 33 1 0
BITMAP
03FFFFC000
1FFFFFF800
3FFFFFFC00
7FFFFFFE00
7FFFFFFF00
FC3F00FF80
F83F003F80
F83F001FC0
F83F001FC0
F83F000FC0
F83F000FC0
F83F000FC0
803F001FC0
003F001FC0
003F003F80
003F00FF80
003FFFFF00
003FFFFE00
003FFFFC00
003FFFF800
003FFFC000
003F000000
003F000000
003F000000
003F000000
003F000000
003F000000
003F000000
003F000000
003F000000
003F000000
003F000000
003F000000
ENDCHAR
STARTCHAR 01A5
ENCODING 421
SWIDTH 567 0
DWIDTH 26 0
BBX 22 41 3 -8
BITMAP
07F000
1FF800
3FF000
7FF000
7E0000
FC0000
FC0000
F80000
F80000
F87F00
F9FF80
FBFFE0
FFFFE0
FF07F0
FE03F0
FC01F8
F801F8
F801F8
F800F8
F800F8
F800FC
F800FC
F800F8
F801F8
F801F8
F801F8
F803F0
FC03F0
FF0FF0
FFFFE0
FFFFC0
F9FF80
F8FE00
F80000
F80000
F80000
F80000
F80000
F80000
F80000
F80000
ENDCHAR
STARTCHAR 01A6
ENCODING 422
SWIDTH 610 0
DWIDTH 28 0
BBX 26 37 4 -4
BITMAP
FC000000
FC000000
FC000000
FC000000
FFFE0000
FFFFC000
FFFFE000
FFFFF000
FFFFF800
FC07FC00
FC01FC00
FC00FC00
FC00FE00
FC007E00
FC007E00
FC007E00
FC00FC00
FC00FC00
FC00FC00
FC01F800
FC07F800
FFFFF000
FFFFC000
FFFF0000
FFFF0000
FC3F8000
FC1FC000
FC0FE000
FC0FE000
FC07F000
FC03F800
FC03F800
FC01FC00
0000FE00
00007F00
00007F00
00003FC0
ENDCHAR
STARTCHAR 01A7
ENCODING 423
SWIDTH 545 0
DWIDTH 25 0
BBX 23 33 1 0
BITMAP
01FE00
0FFF80
1FFFE0
7FFFF0
3FFFF8
3F07F8
1C01FC
0000FC
0000FC
0000FC
0001FC
0001FC
0007F8
001FF8
00FFF0
03FFE0
0FFFC0
1FFF00
3FF800
7FC000
7F0000
7E0000
FE0000
FE0000
FE0000
7E0038
7E007C
7F81FC
3FFFFE
1FFFFC
0FFFF8
07FFE0
00FF00
ENDCHAR
STARTCHAR 01A8
ENCODING 424
SWIDTH 436 0
DWIDTH 20 0
BBX 18 24 1 0
BITMAP
07F800
1FFE00
7FFF00
7FFF80
3C1F80
000F80
000FC0
000F80
001F80
007F80
03FF00
0FFE00
3FF800
7FE000
7F0000
FC0000
FC0000
FC0000
FC0300
7E0F80
7FFFC0
3FFF80
1FFF00
07F800
ENDCHAR
STARTCHAR 01A9
ENCODING 425
SWIDTH 610 0
DWIDTH 28 0
BBX 26 33 1 0
BITMAP
FFFFFFC0
FFFFFFC0
FFFFFFC0
7FFFFFC0
7FFFFFC0
3F800000
1FC00000
0FE00000
0FF00000
07F00000
03F80000
01FC0000
00FE0000
007F0000
003F0000
003F8000
001F8000
001F8000
003F8000
003F0000
007E0000
00FC0000
01F80000
03F00000
07F00000
0FE00000
1FC00000
3F800000
7F000000
7FFFFFC0
FFFFFFC0
FFFFFFC0
FFFFFFC0
ENDCHAR
STARTCHAR 01AA
ENCODING 426
SWIDTH 349 0
DWIDTH 16 0
BBX 24 44 -3 -9
BITMAP
07E000
1FF800
3FFC00
7FFE00
7E3F00
7C1F00
FC1F00
FC1F00
FC1F00
7E3F00
7FFF00
3FFF00
1FFF00
07DF00
001F00
001F00
001F00
001F00
001F00
001F00
001F00
001F00
001F00
001F00
001F00
001F00
001F00
001F00
001F00
001F00
001F00
001F00
001F00
001F00
001F00
001F00
001F00
001F80
001F80
000FC0
000FFE
0007FE
0003FF
0000FE
ENDCHAR
STARTCHAR 01AB
ENCODING 427
SWIDTH 392 0
DWIDTH 18 0
BBX 16 39 1 -9
BITMAP
0780
0780
0F80
0F80
0F80
0F80
FFFE
FFFE
FFFE
FFFE
1F80
1F80
1F80
1F80
1F80
1F80
1F80
1F80
1F80
1F80
1F80
1F80
1F80
1F80
1F80
0FFF
0FFF
0FFF
07FF
01FF
001F
001F
001F
001F
003E
03FE
07FC
07F8
03F0
ENDCHAR
STARTCHAR 01AC
ENCODING 428
SWIDTH 676 0
DWIDTH 31 0
BBX 30 33 1 0
BITMAP
03FFFFFC
0FFFFFFC
3FFFFFFC
7FFFFFFC
7FFFFFFC
FE03F000
F803F000
F803F000
F803F000
F803F000
F803F000
F803F000
6003F000
0003F000
0003F000
0003F000
0003F000
0003F000
0003F000
0003F000
0003F000
0003F000
0003F000
0003F000
0003F000
0003F000
0003F000
0003F000
0003F000
0003F000
0003F000
0003F000
0003F000
ENDCHAR
STARTCHAR 01AD
ENCODING 429
SWIDTH 370 0
DWIDTH 17 0
BBX 16 33 1 0
BITMAP
00FC
03FE
07FE
07FC
07C0
0F80
0F80
0F80
0F80
FFFE
FFFE
FFFE
FFFE
1F80
1F80
1F80
1F80
1F80
1F80
1F80
1F80
1F80
1F80
1F80
1F80
1F80
1F80
1F80
0FC4
0FFE
0FFE
07FF
01F8
ENDCHAR
STARTCHAR 01AE
ENCODING 430
SWIDTH 610 0
DWIDTH 28 0
BBX 26 42 1 -9
BITMAP
FFFFFFC0
FFFFFFC0
FFFFFFC0
FFFFFFC0
FFFFFFC0
003F0000
003F0000
003F0000
003F0000
003F0000
003F0000
003F0000
003F0000
003F0000
003F0000
003F0000
003F0000
003F0000
003F0000
003F0000
003F0000
003F0000
003F0000
003F0000
003F0000
003F0000
003F0000
003F0000
003F0000
003F0000
003F0000
003F0000
003F0000
003F0000
003F0000
003F0000
003F0000
003F8000
001FFC00
000FFE00
0007FE00
0001FC00
ENDCHAR
STARTCHAR 01AF
ENCODING 431
SWIDTH 872 0
DWIDTH 40 0
BBX 37 37 3 0
BITMAP
00000000F8
00000001F8
00000001F8
00000001F8
FC0003F0F8
FC0003F0F8
FC0003F0F8
FC0003F1F0
FC0003FFE0
FC0003FFC0
FC0003FF00
FC0003F000
FC0003F000
FC0003F000
FC0003F000
FC0003F000
FC0003F000
FC0003F000
FC0003F000
FC0003F000
FC0003F000
FC0003F000
FC0003F000
FC0003F000
FC0003F000
FE0003F000
7E0007F000
7E0007E000
7F0007E000
7F000FE000
3F801FC000
1FE07FC000
1FFFFF8000
0FFFFF0000
07FFFE0000
01FFF80000
003FC00000
ENDCHAR
STARTCHAR 01B0
ENCODING 432
SWIDTH 654 0
DWIDTH 30 0
BBX 28 28 3 0
BITMAP
00000070
000003F0
000003F0
000003F0
F803F1F0
F803F1F0
F803F1E0
F803F3E0
F803FFC0
F803FF80
F803F800
F803F000
F803F000
F803F000
F803F000
F803F000
F803F000
F803F000
F803F000
F803F000
F803F000
FC03F000
FC07F000
FE0FF000
7FFFF000
3FFDF000
1FF9F000
07E1F000
ENDCHAR
STARTCHAR 01B1
ENCODING 433
SWIDTH 829 0
DWIDTH 38 0
BBX 34 33 2 0
BITMAP
7FFC1FFF80
FFFC1FFFC0
FFFC1FFFC0
FFFC1FFFC0
FFFC1FFFC0
00FC1FC000
03FC1FE000
07F007F800
0FE001FC00
1FC000FC00
3F80007E00
3F00007F00
7F00003F00
7E00003F00
7E00003F80
7E00001F80
FE00001F80
FE00001F80
FE00001F80
7E00001F80
7E00001F80
7E00003F80
7E00003F00
7F00003F00
3F80007F00
3FC000FE00
1FE001FC00
0FF80FFC00
07FFFFF800
03FFFFE000
01FFFFC000
007FFF0000
000FF80000
ENDCHAR
STARTCHAR 01B2
ENCODING 434
SWIDTH 741 0
DWIDTH 34 0
BBX 29 33 3 0
BITMAP
FE01FE00
FE00FFC0
FE00FFE0
FE00FFE0
FE00FFF0
FE0007F0
FE0003F8
FE0001F8
FE0001F8
FE0001F8
FE0001F8
FE0001F8
FE0001F8
FE0001F8
FE0003F8
FE0003F0
FE0003F0
FE0003F0
FE0007F0
FE0007E0
FE000FE0
FE000FC0
FE001FC0
FE001F80
7E003F80
7E007F00
7F01FE00
7F83FC00
3FFFF800
3FFFF000
1FFFC000
07FF8000
01FC0000
ENDCHAR
STARTCHAR 01B3
ENCODING 435
SWIDTH 741 0
DWIDTH 34 0
BBX 34 33 0 0
BITMAP
FE00003FC0
7E0000FF80
7F0001FF80
3F0003FF80
3F8007F000
1FC007E000
0FC00FC000
0FE01F8000
07E01F8000
07F03F0000
03F03F0000
01F87E0000
01F8FC0000
00FCFC0000
00FDF80000
007FF80000
003FF00000
003FE00000
001FE00000
001FC00000
000FC00000
000FC00000
000FC00000
000FC00000
000FC00000
000FC00000
000FC00000
000FC00000
000FC00000
000FC00000
000FC00000
000FC00000
000FC00000
ENDCHAR
STARTCHAR 01B4
ENCODING 436
SWIDTH 610 0
DWIDTH 28 0
BBX 28 32 0 -8
BITMAP
FC0007F0
7E001FF0
7E003FE0
3F007FE0
3F007E00
3F007C00
1F80FC00
1F80F800
0FC1F800
0FC1F000
07C1F000
07E3F000
07E3E000
03F3E000
03F7C000
01F7C000
01FF8000
00FF8000
00FF8000
00FF0000
007F0000
007E0000
003E0000
007C0000
007C0000
00FC0000
00F80000
01F80000
01F00000
03F00000
03E00000
07E00000
ENDCHAR
STARTCHAR 01B5
ENCODING 437
SWIDTH 610 0
DWIDTH 28 0
BBX 26 33 1 0
BITMAP
7FFFFFC0
7FFFFFC0
7FFFFFC0
7FFFFF80
7FFFFF80
00007F00
00007E00
0000FE00
0001FC00
0003F800
0003F800
0007F000
000FE000
000FE000
3FFFFF80
3FFFFF80
3FFFFF80
3FFFFF80
00FE0000
01FC0000
03F80000
03F80000
07F00000
0FE00000
0FC00000
1FC00000
3F800000
7F000000
7FFFFF80
FFFFFF80
FFFFFF80
FFFFFF80
FFFFFF80
ENDCHAR
STARTCHAR 01B6
ENCODING 438
SWIDTH 458 0
DWIDTH 21 0
BBX 19 24 1 0
BITMAP
7FFFE0
7FFFE0
7FFFE0
7FFFE0
000FC0
001FC0
001F80
003F00
007E00
007E00
7FFFC0
7FFFC0
7FFFC0
7FFFC0
07E000
0FC000
0FC000
1F8000
3F0000
7E0000
7FFFC0
FFFFC0
FFFFC0
FFFFC0
ENDCHAR
STARTCHAR 01B7
ENCODING 439
SWIDTH 589 0
DWIDTH 27 0
BBX 24 33 1 0
BITMAP
7FFFFE
7FFFFE
7FFFFE
7FFFFE
7FFFFE
0003FC
0007F0
000FE0
001FC0
003F80
007F00
00FE00
01FC00
03FFE0
03FFF8
03FFFC
03FFFE
0001FF
00007F
00003F
00003F
00003F
00003F
00003F
00007F
38007F
7C00FE
FF03FE
FFFFFC
7FFFF8
1FFFF0
0FFFC0
01FE00
ENDCHAR
STARTCHAR 01B8
ENCODING 440
SWIDTH 589 0
DWIDTH 27 0
BBX 24 33 2 0
BITMAP
7FFFFE
7FFFFE
7FFFFE
7FFFFE
3FFFFE
1FC000
0FE000
07F000
03F800
01FC00
00FE00
007F00
003F80
07FFC0
1FFFC0
3FFFC0
7FFFC0
7F8000
FE0000
FE0000
FC0000
FC0000
FC0000
FC0000
FE0000
7E001C
7F003E
3FC0FF
3FFFFF
1FFFFE
07FFFC
03FFF0
007F80
ENDCHAR
STARTCHAR 01B9
ENCODING 441
SWIDTH 458 0
DWIDTH 21 0
BBX 20 33 1 -9
BITMAP
3FFFE0
3FFFE0
3FFFE0
3FFFE0
3F8000
1F8000
0FC000
07E000
03F000
03F800
01F800
00FC00
007E00
03FF00
0FFF00
1FFF00
3FFF00
7F0000
7E0000
7E0000
FC0000
FC0000
FC0000
FC0000
7C0000
7C0000
7E0000
3F0060
3F81E0
1FFFF0
0FFFF0
03FFE0
00FF00
ENDCHAR
STARTCHAR 01BA
ENCODING 442
SWIDTH 458 0
DWIDTH 21 0
BBX 18 33 1 -9
BITMAP
FFFF80
FFFF80
FFFF80
FFFF80
003F80
007E00
00FC00
01F800
03F000
07F000
0FFE00
0FFF00
0FFF80
003FC0
000FC0
000FC0
000FC0
000FC0
000FC0
003FC0
03FF80
1FFF80
3FFF00
7FFC00
FFF000
FE0000
F80000
F80000
FC0000
FFE000
7FF000
3FF000
0FE000
ENDCHAR
STARTCHAR 01BB
ENCODING 443
SWIDTH 589 0
DWIDTH 27 0
BBX 24 33 1 0
BITMAP
007F00
03FFC0
07FFF0
0FFFF8
1FFFF8
3FC3FC
3F00FC
7E00FE
7E007E
7C007E
00007E
00007C
0000FC
0000FC
0001F8
7FFFFF
7FFFFF
7FFFFF
7FFFFF
003F80
007F00
00FE00
01FC00
03F800
07F000
0FE000
1FC000
1FC000
3FFFFE
7FFFFE
FFFFFE
FFFFFE
FFFFFE
ENDCHAR
STARTCHAR 01BC
ENCODING 444
SWIDTH 589 0
DWIDTH 27 0
BBX 24 33 1 0
BITMAP
7FFFFE
7FFFFE
7FFFFE
7FFFFE
1FFFFC
03E000
07E000
07E000
07C000
0FC000
0F8000
0FFF00
1FFFE0
1FFFF0
1FFFFC
3FFFFC
0E03FE
0000FE
00007F
00003F
00003F
00003F
00003F
00003F
00007F
38007E
7C00FE
FF03FC
7FFFFC
3FFFF8
1FFFF0
07FFC0
01FE00
ENDCHAR
STARTCHAR 01BD
ENCODING 445
SWIDTH 458 0
DWIDTH 21 0
BBX 18 24 1 0
BITMAP
7FFFC0
7FFFC0
7FFF80
7FFF80
0F8000
0F8000
0F0000
1F0000
1F0000
1FF800
3FFE00
3FFF80
3FFF80
081FC0
000FC0
0007C0
0007C0
0007C0
700FC0
FC1F80
7FFF80
3FFF00
1FFE00
07F000
ENDCHAR
STARTCHAR 01BE
ENCODING 446
SWIDTH 458 0
DWIDTH 21 0
BBX 18 32 1 0
BITMAP
00E000
03E000
03E000
03E000
03E000
03E000
07E000
07E000
3FFF80
7FFF80
7FFF80
3FFF80
07E000
07E000
07E000
07F000
03F800
03FE00
01FF00
007F80
003FC0
000FC0
000FC0
0007C0
0007C0
000FC0
700FC0
FC1F80
FFFF80
7FFF00
3FFC00
07F000
ENDCHAR
STARTCHAR 01BF
ENCODING 447
SWIDTH 567 0
DWIDTH 26 0
BBX 22 32 3 -8
BITMAP
F07F00
F9FFC0
FBFFE0
FFFFF0
FF87F8
FE01F8
FC01F8
F801F8
F800FC
F800F8
F800F8
F801F8
F801F8
F801F8
F803F0
F807F0
F80FE0
F81FC0
F83F80
F8FF00
FBFE00
FFFC00
FFF000
FFC000
FF0000
FC0000
F80000
F80000
F80000
F80000
F80000
F80000
ENDCHAR
STARTCHAR 01C0
ENCODING 448
SWIDTH 218 0
DWIDTH 10 0
BBX 4 44 3 -8
BITMAP
F0
F0
F0
F0
F0
F0
F0
F0
F0
F0
F0
F0
F0
F0
F0
F0
F0
F0
F0
F0
F0
F0
F0
F0
F0
F0
F0
F0
F0
F0
F0
F0
F0
F0
F0
F0
F0
F0
F0
F0
F0
F0
F0
F0
ENDCHAR
STARTCHAR 01C1
ENCODING 449
SWIDTH 523 0
DWIDTH 24 0
BBX 18 44 3 -8
BITMAP
F003C0
F003C0
F003C0
F003C0
F003C0
F003C0
F003C0
F003C0
F003C0
F003C0
F003C0
F003C0
F003C0
F003C0
F003C0
F003C0
F003C0
F003C0
F003C0
F003C0
F003C0
F003C0
F003C0
F003C0
F003C0
F003C0
F003C0
F003C0
F003C0
F003C0
F003C0
F003C0
F003C0
F003C0
F003C0
F003C0
F003C0
F003C0
F003C0
F003C0
F003C0
F003C0
F003C0
F003C0
ENDCHAR
STARTCHAR 01C2
ENCODING 450
SWIDTH 545 0
DWIDTH 25 0
BBX 21 43 2 -9
BITMAP
00F800
00F800
00F800
00F800
00F800
00F800
00F800
00F800
00F800
00F800
00F800
00F800
00F800
00F800
00F800
FFFFF8
FFFFF8
FFFFF8
FFFFF8
00F800
00F800
00F800
00F800
00F800
FFFFF8
FFFFF8
FFFFF8
FFFFF8
00F800
00F800
00F800
00F800
00F800
00F800
00F800
00F800
00F800
00F800
00F800
00F800
00F800
00F800
00F800
ENDCHAR
STARTCHAR 01C3
ENCODING 451
SWIDTH 218 0
DWIDTH 10 0
BBX 6 33 2 0
BITMAP
FC
FC
FC
FC
FC
FC
FC
FC
FC
FC
FC
FC
FC
FC
FC
FC
FC
7C
78
78
78
78
00
00
00
00
78
FC
FC
FC
FC
FC
78
ENDCHAR
STARTCHAR 01C4
ENCODING 452
SWIDTH 1374 0
DWIDTH 63 0
BBX 58 43 4 0
BITMAP
0000000007807800
0000000003E1F800
0000000001F1F000
0000000000FBE000
0000000000FFC000
00000000007F8000
00000000003F0000
0000000000000000
0000000000000000
0000000000000000
FFFF80007FFFFFC0
FFFFF0007FFFFFC0
FFFFFC007FFFFFC0
FFFFFE007FFFFF80
FFFFFF007FFFFF80
FC00FF8000007F00
FC003FC000007E00
FC001FE00000FE00
FC000FE00001FC00
FC0007F00003F800
FC0003F00003F000
FC0003F80007F000
FC0003F8000FE000
FC0001F8000FC000
FC0001F8001FC000
FC0001F8003F8000
FC0001F8007F0000
FC0001F8007E0000
FC0001F800FE0000
FC0001F801FC0000
FC0003F801F80000
FC0003F803F80000
FC0003F007F00000
FC0007F00FE00000
FC000FE00FC00000
FC001FE01FC00000
FC003FC03F800000
FC00FF803F000000
FFFFFF007FFFFF80
FFFFFE00FFFFFF80
FFFFFC00FFFFFF80
FFFFF000FFFFFF80
FFFF8000FFFFFF80
ENDCHAR
STARTCHAR 01C5
ENCODING 453
SWIDTH 1221 0
DWIDTH 56 0
BBX 51 33 4 0
BITMAP
FFFF80003E07C0
FFFFF0001F0F80
FFFFFC000F9F00
FFFFFE0007FE00
FFFFFF0003FE00
FC00FF8001FC00
FC003FC0000000
FC001FE0000000
FC000FE0000000
FC0007F07FFFE0
FC0003F07FFFE0
FC0003F87FFFE0
FC0003F87FFFE0
FC0001F8000FC0
FC0001F8001F80
FC0001F8003F80
FC0001F8003F00
FC0001F8007E00
FC0001F800FC00
FC0001F800FC00
FC0003F801F800
FC0003F803F000
FC0003F007F000
FC0007F007E000
FC000FE00FC000
FC001FE01F8000
FC003FC01F8000
FC00FF803F0000
FFFFFF007E0000
FFFFFE007FFFC0
FFFFFC00FFFFC0
FFFFF000FFFFC0
FFFF8000FFFFC0
ENDCHAR
STARTCHAR 01C6
ENCODING 454
SWIDTH 1047 0
DWIDTH 48 0
BBX 45 34 2 0
BITMAP
0000F8000000
0000F80F81F0
0000F807C3E0
0000F803E7C0
0000F801FF80
0000F800FF80
0000F8007F00
0000F8000000
0000F8000000
0000F8000000
01F8F81FFFF8
07FEF81FFFF8
1FFFF81FFFF8
3FFFF81FFFF8
3F87F80003F0
7E01F80007E0
7E00F8000FE0
FC00F8000FC0
FC00F8001F80
FC00F8003F00
FC00F8003F00
F800F8007E00
F800F800FC00
F800F801FC00
FC00F801F800
FC00F803F000
FC00F807E000
FC01F807E000
7E03F80FC000
7F07F81F8000
3FFFF81FFFF0
3FFEF83FFFF0
0FFCF83FFFF0
07F0783FFFF0
ENDCHAR
STARTCHAR 01C7
ENCODING 455
SWIDTH 960 0
DWIDTH 44 0
BBX 36 33 4 0
BITMAP
FC000003F0
FC000003F0
FC000003F0
FC000003F0
FC000003F0
FC000003F0
FC000003F0
FC000003F0
FC000003F0
FC000003F0
FC000003F0
FC000003F0
FC000003F0
FC000003F0
FC000003F0
FC000003F0
FC000003F0
FC000003F0
FC000003F0
FC000003F0
FC000003F0
FC000003F0
FC000003F0
FC000003F0
FC000003F0
FC000007F0
FC000007F0
FC00001FE0
FFFFE7FFE0
FFFFE7FFC0
FFFFE7FF80
FFFFE7FF00
FFFFEFF800
ENDCHAR
STARTCHAR 01C8
ENCODING 456
SWIDTH 785 0
DWIDTH 36 0
BBX 29 43 4 -9
BITMAP
000000F0
FC0001F8
FC0003F8
FC0003F8
FC0003F8
FC0001F8
FC0000F0
FC000000
FC000000
FC000000
FC0001F8
FC0001F8
FC0001F8
FC0001F8
FC0001F8
FC0001F8
FC0001F8
FC0001F8
FC0001F8
FC0001F8
FC0001F8
FC0001F8
FC0001F8
FC0001F8
FC0001F8
FC0001F8
FC0001F8
FC0001F8
FC0001F8
FFFFE1F8
FFFFE1F8
FFFFE1F8
FFFFE1F8
FFFFE1F8
000001F8
000001F8
000001F8
000001F0
000003F0
00001FF0
00003FE0
00003FC0
00003F00
ENDCHAR
STARTCHAR 01C9
ENCODING 457
SWIDTH 523 0
DWIDTH 24 0
BBX 18 43 3 -9
BITMAP
FC0780
FC0FC0
FC1FC0
FC1FC0
FC1FC0
FC0FC0
FC0780
FC0000
FC0000
FC0000
FC0FC0
FC0FC0
FC0FC0
FC0FC0
FC0FC0
FC0FC0
FC0FC0
FC0FC0
FC0FC0
FC0FC0
FC0FC0
FC0FC0
FC0FC0
FC0FC0
FC0FC0
FC0FC0
FC0FC0
FC0FC0
FC0FC0
FC0FC0
FC0FC0
FC0FC0
FC0FC0
FC0FC0
000FC0
000FC0
000FC0
000F80
001F80
00FF80
01FF00
01FE00
01F800
ENDCHAR
STARTCHAR 01CA
ENCODING 458
SWIDTH 1200 0
DWIDTH 55 0
BBX 47 33 4 0
BITMAP
F80003F0007E
F80003F0007E
FC0003F0007E
FE0003F0007E
FF0003F0007E
FF8003F0007E
FF8003F0007E
FFC003F0007E
FFE003F0007E
FFF003F0007E
FFF003F0007E
FBF803F0007E
F9FC03F0007E
F8FE03F0007E
F87F03F0007E
F87F03F0007E
F83F83F0007E
F81FC3F0007E
F80FE3F0007E
F80FF3F0007E
F807F3F0007E
F803FBF0007E
F801FFF0007E
F800FFF0007E
F800FFF0007E
F8007FF000FE
F8003FF000FE
F8001FF003FC
F8000FF0FFFC
F8000FF0FFF8
F80007F0FFF0
F80003F0FFE0
F80001F1FF00
ENDCHAR
STARTCHAR 01CB
ENCODING 459
SWIDTH 1025 0
DWIDTH 47 0
BBX 40 43 4 -9
BITMAP
000000001E
F80003F03F
F80003F07F
FC0003F07F
FE0003F07F
FF0003F03F
FF8003F01E
FF8003F000
FFC003F000
FFE003F000
FFF003F03F
FFF003F03F
FBF803F03F
F9FC03F03F
F8FE03F03F
F87F03F03F
F87F03F03F
F83F83F03F
F81FC3F03F
F80FE3F03F
F80FF3F03F
F807F3F03F
F803FBF03F
F801FFF03F
F800FFF03F
F800FFF03F
F8007FF03F
F8003FF03F
F8001FF03F
F8000FF03F
F8000FF03F
F80007F03F
F80003F03F
F80001F03F
000000003F
000000003F
000000003F
000000003E
000000007E
00000003FE
00000007FC
00000007F8
00000007E0
ENDCHAR
STARTCHAR 01CC
ENCODING 460
SWIDTH 829 0
DWIDTH 38 0
BBX 32 43 3 -9
BITMAP
0000001E
0000003F
0000007F
0000007F
0000007F
0000003F
0000001E
00000000
00000000
00000000
F0FE003F
F9FF803F
FBFFC03F
FFFFE03F
FF07F03F
FE03F03F
FC03F03F
F801F03F
F801F03F
F801F03F
F801F03F
F801F03F
F801F03F
F801F03F
F801F03F
F801F03F
F801F03F
F801F03F
F801F03F
F801F03F
F801F03F
F801F03F
F801F03F
F801F03F
0000003F
0000003F
0000003F
0000003E
0000007E
000003FE
000007FC
000007F8
000007E0
ENDCHAR
STARTCHAR 01CD
ENCODING 461
SWIDTH 698 0
DWIDTH 32 0
BBX 32 43 0 0
BITMAP
00F00F00
007C3F00
003E3E00
001F7C00
001FF800
000FF000
0007E000
00000000
00000000
00000000
0007E000
000FF000
000FF000
001FF800
001FF800
001FF800
003FFC00
003FFC00
007E7E00
007E7E00
007E7E00
00FC3F00
00FC3F00
01F81F00
01F81F80
01F81F80
03F00FC0
03F00FC0
07F00FC0
07E007E0
07E007E0
0FFFFFF0
0FFFFFF0
0FFFFFF0
1FFFFFF8
1F8001F8
3F8001FC
3F0000FC
3F0000FC
7E00007E
7E00007E
FE00007F
FC00003F
ENDCHAR
STARTCHAR 01CE
ENCODING 462
SWIDTH 501 0
DWIDTH 23 0
BBX 20 33 1 0
BITMAP
3E07C0
1F0F80
0F9F00
07FE00
03FE00
01FC00
000000
000000
000000
01FC00
0FFF00
3FFF80
7FFFC0
3F0FE0
1C03E0
0003F0
0003F0
0003F0
0003F0
007FF0
07FFF0
1FFFF0
3FFFF0
7F83F0
FE03F0
FC03F0
FC03F0
FC07F0
FE0FF0
7FFFF0
7FFDF0
3FF9F0
0FC0F0
ENDCHAR
STARTCHAR 01CF
ENCODING 463
SWIDTH 305 0
DWIDTH 14 0
BBX 16 43 -1 0
BITMAP
F00F
7C3F
3E3E
1F7C
1FF8
0FF0
07E0
0000
0000
0000
07E0
07E0
07E0
07E0
07E0
07E0
07E0
07E0
07E0
07E0
07E0
07E0
07E0
07E0
07E0
07E0
07E0
07E0
07E0
07E0
07E0
07E0
07E0
07E0
07E0
07E0
07E0
07E0
07E0
07E0
07E0
07E0
07E0
ENDCHAR
STARTCHAR 01D0
ENCODING 464
SWIDTH 261 0
DWIDTH 12 0
BBX 16 33 -2 0
BITMAP
F81F
7C3E
3E7C
1FF8
0FF8
07F0
0000
0000
0000
07E0
07E0
07E0
07E0
07E0
07E0
07E0
07E0
07E0
07E0
07E0
07E0
07E0
07E0
07E0
07E0
07E0
07E0
07E0
07E0
07E0
07E0
07E0
07E0
ENDCHAR
STARTCHAR 01D1
ENCODING 465
SWIDTH 807 0
DWIDTH 37 0
BBX 33 43 2 0
BITMAP
00F00F0000
007C3F0000
003E3E0000
001F7C0000
001FF80000
000FF00000
0007E00000
0000000000
0000000000
0000000000
000FF80000
007FFF0000
01FFFFC000
03FFFFE000
07FFFFF800
0FF80FF800
1FE003FC00
3F8000FE00
3F80007F00
7F00007F00
7E00003F00
FE00003F80
FE00001F80
FC00001F80
FC00001F80
FC00001F80
FC00001F80
FC00001F80
FC00001F80
FC00001F80
FE00001F80
FE00003F80
7E00003F00
7F00007F00
3F00007F00
3F8000FE00
1FE003FC00
0FF80FFC00
07FFFFF800
03FFFFE000
01FFFFC000
007FFF0000
000FF80000
ENDCHAR
STARTCHAR 01D2
ENCODING 466
SWIDTH 567 0
DWIDTH 26 0
BBX 23 33 2 0
BITMAP
1F03E0
0F87C0
07CF80
03FF00
01FF00
00FE00
000000
000000
000000
01FE00
07FF80
0FFFE0
3FFFF0
3F83F8
7E01F8
7E00FC
FC00FC
FC007C
FC007E
F8007E
F8007E
F8007E
F8007E
FC007E
FC007C
FC00FC
7E00FC
7E01F8
3F83F8
3FFFF0
0FFFE0
07FF80
01FE00
ENDCHAR
STARTCHAR 01D3
ENCODING 467
SWIDTH 741 0
DWIDTH 34 0
BBX 28 43 3 0
BITMAP
03C03C00
01F0FC00
00F8F800
007DF000
007FE000
003FC000
001F8000
00000000
00000000
00000000
FC0003F0
FC0003F0
FC0003F0
FC0003F0
FC0003F0
FC0003F0
FC0003F0
FC0003F0
FC0003F0
FC0003F0
FC0003F0
FC0003F0
FC0003F0
FC0003F0
FC0003F0
FC0003F0
FC0003F0
FC0003F0
FC0003F0
FC0003F0
FC0003F0
FE0003F0
7E0007F0
7E0007E0
7F0007E0
7F000FE0
3F801FC0
1FE07FC0
1FFFFF80
0FFFFF00
07FFFE00
01FFF800
003FC000
ENDCHAR
STARTCHAR 01D4
ENCODING 468
SWIDTH 567 0
DWIDTH 26 0
BBX 20 33 3 0
BITMAP
3E07C0
1F0F80
0F9F00
07FE00
03FE00
01FC00
000000
000000
000000
F803F0
F803F0
F803F0
F803F0
F803F0
F803F0
F803F0
F803F0
F803F0
F803F0
F803F0
F803F0
F803F0
F803F0
F803F0
F803F0
F803F0
FC03F0
FC07F0
FE0FF0
7FFFF0
3FFDF0
1FF9F0
07E1F0
ENDCHAR
STARTCHAR 01D5
ENCODING 469
SWIDTH 741 0
DWIDTH 34 0
BBX 28 47 3 0
BITMAP
01FFF800
01FFF800
01FFF800
01FFF800
00000000
00000000
01E03800
01F07C00
03F0FC00
03F0FC00
03F07C00
01E07800
00000000
00000000
FC0003F0
FC0003F0
FC0003F0
FC0003F0
FC0003F0
FC0003F0
FC0003F0
FC0003F0
FC0003F0
FC0003F0
FC0003F0
FC0003F0
FC0003F0
FC0003F0
FC0003F0
FC0003F0
FC0003F0
FC0003F0
FC0003F0
FC0003F0
FC0003F0
FE0003F0
7E0007F0
7E0007E0
7F0007E0
7F000FE0
3F801FC0
1FE07FC0
1FFFFF80
0FFFFF00
07FFFE00
01FFF800
003FC000
ENDCHAR
STARTCHAR 01D6
ENCODING 470
SWIDTH 567 0
DWIDTH 26 0
BBX 20 40 3 0
BITMAP
1FFF80
1FFF80
1FFF80
1FFF80
000000
000000
000000
0E0780
1F0FC0
3F8FC0
3F8FC0
1F0FC0
0E0780
000000
000000
000000
F803F0
F803F0
F803F0
F803F0
F803F0
F803F0
F803F0
F803F0
F803F0
F803F0
F803F0
F803F0
F803F0
F803F0
F803F0
F803F0
F803F0
FC03F0
FC07F0
FE0FF0
7FFFF0
3FFDF0
1FF9F0
07E1F0
ENDCHAR
STARTCHAR 01D7
ENCODING 471
SWIDTH 741 0
DWIDTH 34 0
BBX 28 50 3 0
BITMAP
00007F80
0000FF00
0001FC00
0003F800
0003F000
0007E000
000FC000
00000000
00000000
01E03800
01F07C00
03F0FC00
03F0FC00
03F07C00
01E07800
00000000
00000000
FC0003F0
FC0003F0
FC0003F0
FC0003F0
FC0003F0
FC0003F0
FC0003F0
FC0003F0
FC0003F0
FC0003F0
FC0003F0
FC0003F0
FC0003F0
FC0003F0
FC0003F0
FC0003F0
FC0003F0
FC0003F0
FC0003F0
FC0003F0
FC0003F0
FE0003F0
7E0007F0
7E0007E0
7F0007E0
7F000FE0
3F801FC0
1FE07FC0
1FFFFF80
0FFFFF00
07FFFE00
01FFF800
003FC000
ENDCHAR
STARTCHAR 01D8
ENCODING 472
SWIDTH 567 0
DWIDTH 26 0
BBX 20 40 3 0
BITMAP
000FE0
001FC0
001F80
003F00
003E00
007C00
00F800
0E0780
1F0FC0
3F8FC0
3F8FC0
1F0FC0
0E0780
000000
000000
000000
F803F0
F803F0
F803F0
F803F0
F803F0
F803F0
F803F0
F803F0
F803F0
F803F0
F803F0
F803F0
F803F0
F803F0
F803F0
F803F0
F803F0
FC03F0
FC07F0
FE0FF0
7FFFF0
3FFDF0
1FF9F0
07E1F0
ENDCHAR
STARTCHAR 01D9
ENCODING 473
SWIDTH 741 0
DWIDTH 34 0
BBX 28 50 3 0
BITMAP
03C03C00
01F0FC00
00F8F800
007DF000
007FE000
003FC000
001F8000
00000000
00000000
01E03800
01F07C00
03F0FC00
03F0FC00
03F07C00
01E07800
00000000
00000000
FC0003F0
FC0003F0
FC0003F0
FC0003F0
FC0003F0
FC0003F0
FC0003F0
FC0003F0
FC0003F0
FC0003F0
FC0003F0
FC0003F0
FC0003F0
FC0003F0
FC0003F0
FC0003F0
FC0003F0
FC0003F0
FC0003F0
FC0003F0
FC0003F0
FE0003F0
7E0007F0
7E0007E0
7F0007E0
7F000FE0
3F801FC0
1FE07FC0
1FFFFF80
0FFFFF00
07FFFE00
01FFF800
003FC000
ENDCHAR
STARTCHAR 01DA
ENCODING 474
SWIDTH 567 0
DWIDTH 26 0
BBX 20 41 3 0
BITMAP
3E07C0
0F0F80
0F9F00
07FE00
03FC00
01F800
000000
000000
0E0780
1F0FC0
3F8FC0
3F8FC0
1F0FC0
0E0780
000000
000000
000000
F803F0
F803F0
F803F0
F803F0
F803F0
F803F0
F803F0
F803F0
F803F0
F803F0
F803F0
F803F0
F803F0
F803F0
F803F0
F803F0
F803F0
FC03F0
FC07F0
FE0FF0
7FFFF0
3FFDF0
1FF9F0
07E1F0
ENDCHAR
STARTCHAR 01DB
ENCODING 475
SWIDTH 741 0
DWIDTH 34 0
BBX 28 50 3 0
BITMAP
0FF00000
03F80000
01FC0000
00FC0000
007E0000
003F0000
001F8000
00000000
00000000
01E03800
01F07C00
03F0FC00
03F0FC00
03F07C00
01E07800
00000000
00000000
FC0003F0
FC0003F0
FC0003F0
FC0003F0
FC0003F0
FC0003F0
FC0003F0
FC0003F0
FC0003F0
FC0003F0
FC0003F0
FC0003F0
FC0003F0
FC0003F0
FC0003F0
FC0003F0
FC0003F0
FC0003F0
FC0003F0
FC0003F0
FC0003F0
FE0003F0
7E0007F0
7E0007E0
7F0007E0
7F000FE0
3F801FC0
1FE07FC0
1FFFFF80
0FFFFF00
07FFFE00
01FFF800
003FC000
ENDCHAR
STARTCHAR 01DC
ENCODING 476
SWIDTH 567 0
DWIDTH 26 0
BBX 20 42 3 0
BITMAP
3E0000
1F8000
0FC000
07E000
03E000
01F000
00F000
003800
000000
0E0780
1F0FC0
3F8FC0
3F8FC0
1F0FC0
0E0780
000000
000000
000000
F803F0
F803F0
F803F0
F803F0
F803F0
F803F0
F803F0
F803F0
F803F0
F803F0
F803F0
F803F0
F803F0
F803F0
F803F0
F803F0
F803F0
FC03F0
FC07F0
FE0FF0
7FFFF0
3FFDF0
1FF9F0
07E1F0
ENDCHAR
STARTCHAR 01DD
ENCODING 477
SWIDTH 545 0
DWIDTH 25 0
BBX 22 24 1 0
BITMAP
03FC00
1FFF00
3FFFC0
7FFFE0
7E07F0
3803F0
0001F8
0000F8
0000FC
0000FC
0000FC
7FFFFC
FFFFFC
FFFFFC
7FFFFC
7C00FC
7C00F8
7C01F8
7E01F8
3F07F0
1FFFE0
0FFFC0
07FF80
01FC00
ENDCHAR
STARTCHAR 01DE
ENCODING 478
SWIDTH 698 0
DWIDTH 32 0
BBX 32 47 0 0
BITMAP
007FFE00
007FFE00
007FFE00
007FFE00
00000000
00000000
00780E00
007C1F00
00FC3F00
00FC3F00
00FC1F00
00781E00
00000000
00000000
0007E000
000FF000
000FF000
001FF800
001FF800
001FF800
003FFC00
003FFC00
007E7E00
007E7E00
007E7E00
00FC3F00
00FC3F00
01F81F00
01F81F80
01F81F80
03F00FC0
03F00FC0
07F00FC0
07E007E0
07E007E0
0FFFFFF0
0FFFFFF0
0FFFFFF0
1FFFFFF8
1F8001F8
3F8001FC
3F0000FC
3F0000FC
7E00007E
7E00007E
FE00007F
FC00003F
ENDCHAR
STARTCHAR 01DF
ENCODING 479
SWIDTH 501 0
DWIDTH 23 0
BBX 20 40 1 0
BITMAP
1FFF80
1FFF80
1FFF80
1FFF80
000000
000000
000000
0E0780
1F0FC0
3F8FC0
3F8FC0
1F0FC0
0E0780
000000
000000
000000
01FC00
0FFF00
3FFF80
7FFFC0
3F0FE0
1C03E0
0003F0
0003F0
0003F0
0003F0
007FF0
07FFF0
1FFFF0
3FFFF0
7F83F0
FE03F0
FC03F0
FC03F0
FC07F0
FE0FF0
7FFFF0
7FFDF0
3FF9F0
0FC0F0
ENDCHAR
STARTCHAR 01E0
ENCODING 480
SWIDTH 698 0
DWIDTH 32 0
BBX 32 48 0 0
BITMAP
007FFE00
007FFE00
007FFE00
007FFE00
00000000
0003C000
0007E000
0007E000
0007F000
0007F000
0007E000
0003C000
00000000
00000000
00000000
0007E000
000FF000
000FF000
001FF800
001FF800
001FF800
003FFC00
003FFC00
007E7E00
007E7E00
007E7E00
00FC3F00
00FC3F00
01F81F00
01F81F80
01F81F80
03F00FC0
03F00FC0
07F00FC0
07E007E0
07E007E0
0FFFFFF0
0FFFFFF0
0FFFFFF0
1FFFFFF8
1F8001F8
3F8001FC
3F0000FC
3F0000FC
7E00007E
7E00007E
FE00007F
FC00003F
ENDCHAR
STARTCHAR 01E1
ENCODING 481
SWIDTH 501 0
DWIDTH 23 0
BBX 20 39 1 0
BITMAP
1FFF80
1FFF80
1FFF80
1FFF80
000000
00F000
01F800
01FC00
01FC00
01FC00
01F800
00F000
000000
000000
000000
01FC00
0FFF00
3FFF80
7FFFC0
3F0FE0
1C03E0
0003F0
0003F0
0003F0
0003F0
007FF0
07FFF0
1FFFF0
3FFFF0
7F83F0
FE03F0
FC03F0
FC03F0
FC07F0
FE0FF0
7FFFF0
7FFDF0
3FF9F0
0FC0F0
ENDCHAR
STARTCHAR 01E2
ENCODING 482
SWIDTH 938 0
DWIDTH 43 0
BBX 41 40 0 0
BITMAP
000007FFE000
000007FFE000
000007FFE000
000007FFE000
000000000000
000000000000
000000000000
0000FFFFFF80
0000FFFFFF80
0001FFFFFF80
0001FFFFFF80
0003FFFFFF80
0003FF800000
0007FF800000
0007CF800000
000FCFC00000
000F8FC00000
001F8FC00000
001F0FC00000
003F0FC00000
003F0FC00000
007E0FFFFC00
00FE07FFFC00
00FC07FFFC00
01FC07FFFC00
01F807FFFC00
03F807E00000
03F007E00000
07FFFFE00000
07FFFFE00000
0FFFFFE00000
0FFFFFF00000
1FC003F00000
1F8003F00000
3F8003F00000
3F0003FFFF80
7F0003FFFF80
7E0003FFFF80
FE0001FFFF80
FC0001FFFF80
ENDCHAR
STARTCHAR 01E3
ENCODING 483
SWIDTH 807 0
DWIDTH 37 0
BBX 35 32 1 0
BITMAP
003FFF0000
003FFF0000
003FFF0000
003FFF0000
0000000000
0000000000
0000000000
0000000000
01FC03F000
0FFF0FFC00
1FFF9FFF00
7FFFBFFF00
3F0FFE1F80
1C03F807C0
0003F007C0
0003F007C0
0003F003E0
007FFFFFE0
07FFFFFFE0
1FFFFFFFE0
3FFFFFFFE0
7FC3F00000
7E03F00000
FC03F00000
FC03F00000
FC03F80000
FC07FC0180
7E1FFE07C0
7FFF7FFFE0
7FFE3FFF80
1FFC0FFF00
0FF003F800
ENDCHAR
STARTCHAR 01E4
ENCODING 484
SWIDTH 741 0
DWIDTH 34 0
BBX 32 33 2 0
BITMAP
000FFC00
007FFF80
01FFFFE0
03FFFFF0
0FFFFFF8
0FF807F0
1FE001F0
3FC00060
3F800000
7F000000
7E000000
FE000000
FE000000
FC000000
FC003FF8
FC003FF8
FC003FF8
FC003FF8
FC0000F8
FC0000F8
FE0000F8
FE003FFF
7E003FFF
7F003FFF
3F803FFF
3FC000F8
1FE000F8
0FF807F8
07FFFFF8
03FFFFF8
01FFFFE0
007FFF80
000FFC00
ENDCHAR
STARTCHAR 01E5
ENCODING 485
SWIDTH 545 0
DWIDTH 25 0
BBX 26 33 0 -9
BITMAP
007F0000
03FFFF00
07FFFF00
0FFFFF00
0FC3FF00
1F80F800
1F00F800
1F00F800
1F00F800
1F00F800
1F80F800
0FC3F800
0FFFF000
07FFE000
01FFC000
07FF0000
0F800000
0F800000
0F800000
0FFFC000
0FFFF800
07FFFE00
07FFFE00
1F003F00
FFFFFFC0
FFFFFFC0
FFFFFFC0
FE003FC0
3F807E00
1FFFFC00
0FFFF800
07FFE000
00FF8000
ENDCHAR
STARTCHAR 01E6
ENCODING 486
SWIDTH 720 0
DWIDTH 33 0
BBX 29 43 2 0
BITMAP
00780780
003E1F80
001F1F00
000FBE00
000FFC00
0007F800
0003F000
00000000
00000000
00000000
000FFC00
007FFF80
01FFFFE0
03FFFFF0
0FFFFFF8
0FF807F0
1FE001F0
3FC00060
3F800000
7F000000
7E000000
FE000000
FE000000
FC000000
FC000000
FC000000
FC003FF8
FC003FF8
FC003FF8
FC003FF8
FE0000F8
FE0000F8
7E0000F8
7F0000F8
3F8000F8
3FC000F8
1FE001F8
0FFC07F8
07FFFFF8
03FFFFF8
01FFFFE0
007FFF80
0007FC00
ENDCHAR
STARTCHAR 01E7
ENCODING 487
SWIDTH 523 0
DWIDTH 24 0
BBX 23 42 1 -9
BITMAP
1F03E0
0F87C0
07CF80
03FF00
01FF00
00FE00
000000
000000
000000
01FC00
07FFFE
1FFFFE
3FFFFE
3F07FC
7E03E0
7C03F0
7C01F0
7C01F0
7C03F0
7E03E0
3F07E0
3FFFC0
1FFF80
07FF00
1FFC00
1E0000
3E0000
3F0000
3FFF80
3FFFF0
1FFFF8
1FFFFC
7C01FC
78007C
F8007C
F8007C
FC00F8
7E03F8
7FFFF0
3FFFE0
1FFF80
03FE00
ENDCHAR
STARTCHAR 01E8
ENCODING 488
SWIDTH 698 0
DWIDTH 32 0
BBX 28 43 4 0
BITMAP
0F00F000
07C3F000
03E3E000
01F7C000
01FF8000
00FF0000
007E0000
00000000
00000000
00000000
FC000FE0
FC001FC0
FC003F80
FC007F00
FC00FE00
FC00FE00
FC01FC00
FC03F800
FC07F000
FC0FE000
FC0FE000
FC1FC000
FC3F8000
FC7F0000
FFFE0000
FFFC0000
FFFE0000
FFFF0000
FC3F8000
FC1FC000
FC0FE000
FC0FE000
FC07F000
FC03F800
FC01FC00
FC01FC00
FC00FE00
FC007F00
FC007F80
FC003F80
FC001FC0
FC000FE0
FC0007F0
ENDCHAR
STARTCHAR 01E9
ENCODING 489
SWIDTH 545 0
DWIDTH 25 0
BBX 28 43 -3 0
BITMAP
F00F0000
7C3F0000
3E3E0000
1F7C0000
1FF80000
0FF00000
07E00000
00000000
00000000
03E00000
03E00000
03E00000
03E00000
03E00000
03E00000
03E00000
03E00000
03E00000
03E00000
03E00FE0
03E00FC0
03E01F80
03E03F00
03E07E00
03E0FE00
03E0FC00
03E1F800
03E3F000
03FFE000
03FFC000
03FFE000
03FFF000
03E3F800
03E1F800
03E0FC00
03E0FE00
03E07E00
03E03F00
03E03F80
03E01F80
03E00FC0
03E00FE0
03E007F0
ENDCHAR
STARTCHAR 01EA
ENCODING 490
SWIDTH 807 0
DWIDTH 37 0
BBX 33 41 2 -8
BITMAP
000FF80000
007FFF0000
01FFFFC000
03FFFFE000
07FFFFF800
0FF80FFC00
1FE003FC00
3F8000FE00
3F80007F00
7F00007F00
7E00003F00
FE00003F80
FE00001F80
FC00001F80
FC00001F80
FC00001F80
FC00001F80
FC00001F80
FC00001F80
FC00001F80
FE00001F80
FE00003F80
7E00003F00
7F00007F00
7F00007E00
3F8000FE00
1FE003FC00
1FF80FF800
0FFFFFF000
07FFFFE000
01FFFFC000
007FFF0000
000FF00000
0001C00000
0003800000
0007800000
0007800000
0007F80000
0007F80000
0007FC0000
0001F00000
ENDCHAR
STARTCHAR 01EB
ENCODING 491
SWIDTH 567 0
DWIDTH 26 0
BBX 23 32 2 -8
BITMAP
01FE00
07FF80
0FFFE0
3FFFF0
3F83F8
7E01F8
7E00FC
FC00FC
FC007C
FC007E
F8007E
F8007E
F8007E
F8007E
FC007E
FC007C
FC00FC
FE00FC
7E01F8
3F83F8
3FFFF0
1FFFE0
07FF80
01FC00
007800
00F000
00F000
01F000
01FF00
01FF00
00FF00
007E00
ENDCHAR
STARTCHAR 01EC
ENCODING 492
SWIDTH 807 0
DWIDTH 37 0
BBX 33 48 2 -8
BITMAP
003FFF0000
003FFF0000
003FFF0000
003FFF0000
0000000000
0000000000
0000000000
000FF80000
007FFF0000
01FFFFC000
03FFFFE000
07FFFFF800
0FF80FFC00
1FE003FC00
3F8000FE00
3F80007F00
7F00007F00
7E00003F00
FE00003F80
FE00001F80
FC00001F80
FC00001F80
FC00001F80
FC00001F80
FC00001F80
FC00001F80
FC00001F80
FE00001F80
FE00003F80
7E00003F00
7F00007F00
3F8000FF00
3FC001FE00
1FE003FC00
0FFC1FF800
07FFFFF000
03FFFFE000
01FFFFC000
007FFF0000
0007F80000
0003C00000
0007800000
0007800000
000F800000
000FF80000
000FF80000
0007F80000
0003F00000
ENDCHAR
STARTCHAR 01ED
ENCODING 493
SWIDTH 567 0
DWIDTH 26 0
BBX 23 40 2 -8
BITMAP
0FFFC0
0FFFC0
0FFFC0
0FFFC0
000000
000000
000000
000000
01FE00
07FF80
0FFFE0
3FFFF0
3F83F8
7E01F8
7E00FC
FC00FC
FC007C
FC007E
F8007E
F8007E
F8007E
F8007E
FC007E
FC007C
FC00FC
7E00FC
7F01F8
3FFFF8
1FFFF0
0FFFE0
07FF80
00FC00
007000
00E000
01E000
01F000
01FE00
01FF00
00FF00
007C00
ENDCHAR
STARTCHAR 01EE
ENCODING 494
SWIDTH 589 0
DWIDTH 27 0
BBX 24 43 1 0
BITMAP
0F00F0
07C3F0
03E3E0
01F7C0
01FF80
00FF00
007E00
000000
000000
000000
7FFFFE
7FFFFE
7FFFFE
7FFFFE
7FFFFE
0003FC
0007F0
000FE0
001FC0
003F80
007F00
00FE00
01FC00
03FFE0
03FFF8
03FFFC
03FFFE
0001FF
00007F
00003F
00003F
00003F
00003F
00003F
00007F
38007F
7C00FE
FF03FE
FFFFFC
7FFFF8
1FFFF0
0FFFC0
01FE00
ENDCHAR
STARTCHAR 01EF
ENCODING 495
SWIDTH 458 0
DWIDTH 21 0
BBX 20 42 -1 -9
BITMAP
1F03E0
0F87C0
07CF80
03FF00
01FF00
00FE00
000000
000000
000000
3FFFE0
3FFFE0
3FFFE0
3FFFE0
000FC0
001F80
003F80
003F00
007E00
00FC00
01F800
01F800
03F000
07FC00
07FF00
07FFC0
07FFC0
000FE0
0007F0
0003F0
0003F0
0001F0
0001F0
0001F0
0003F0
0003F0
0003E0
3007E0
7C1FC0
7FFFC0
FFFF00
3FFE00
0FF000
ENDCHAR
STARTCHAR 01F0
ENCODING 496
SWIDTH 261 0
DWIDTH 12 0
BBX 16 42 -2 -9
BITMAP
F81F
7C3E
3E7C
1FF8
0FF8
07F0
0000
0000
0000
07E0
07E0
07E0
07E0
07E0
07E0
07E0
07E0
07E0
07E0
07E0
07E0
07E0
07E0
07E0
07E0
07E0
07E0
07E0
07E0
07E0
07E0
07E0
07E0
07E0
07E0
07E0
07C0
0FC0
7FC0
FF80
FF00
FC00
ENDCHAR
STARTCHAR 01F1
ENCODING 497
SWIDTH 1374 0
DWIDTH 63 0
BBX 58 33 4 0
BITMAP
FFFF80007FFFFFC0
FFFFF0007FFFFFC0
FFFFFC007FFFFFC0
FFFFFE007FFFFF80
FFFFFF007FFFFF80
FC00FF8000007F00
FC003FC000007E00
FC001FE00000FE00
FC000FE00001FC00
FC0007F00003F800
FC0003F00003F000
FC0003F80007F000
FC0003F8000FE000
FC0001F8000FC000
FC0001F8001FC000
FC0001F8003F8000
FC0001F8007F0000
FC0001F8007E0000
FC0001F800FE0000
FC0001F801FC0000
FC0003F801F80000
FC0003F803F80000
FC0003F007F00000
FC0007F00FE00000
FC000FE00FC00000
FC001FE01FC00000
FC003FC03F800000
FC00FF803F000000
FFFFFF007FFFFF80
FFFFFE00FFFFFF80
FFFFFC00FFFFFF80
FFFFF000FFFFFF80
FFFF8000FFFFFF80
ENDCHAR
STARTCHAR 01F2
ENCODING 498
SWIDTH 1221 0
DWIDTH 56 0
BBX 51 33 4 0
BITMAP
FFFF8000000000
FFFFF000000000
FFFFFC00000000
FFFFFE00000000
FFFFFF00000000
FC00FF80000000
FC003FC0000000
FC001FE0000000
FC000FE0000000
FC0007F07FFFE0
FC0003F07FFFE0
FC0003F87FFFE0
FC0003F87FFFE0
FC0001F8000FC0
FC0001F8001F80
FC0001F8003F80
FC0001F8003F00
FC0001F8007E00
FC0001F800FC00
FC0001F800FC00
FC0003F801F800
FC0003F803F000
FC0003F007F000
FC0007F007E000
FC000FE00FC000
FC001FE01F8000
FC003FC01F8000
FC00FF803F0000
FFFFFF007E0000
FFFFFE007FFFC0
FFFFFC00FFFFC0
FFFFF000FFFFC0
FFFF8000FFFFC0
ENDCHAR
STARTCHAR 01F3
ENCODING 499
SWIDTH 1047 0
DWIDTH 48 0
BBX 45 34 2 0
BITMAP
0000F8000000
0000F8000000
0000F8000000
0000F8000000
0000F8000000
0000F8000000
0000F8000000
0000F8000000
0000F8000000
0000F8000000
01F8F81FFFF8
07FEF81FFFF8
1FFFF81FFFF8
3FFFF81FFFF8
3F87F80003F0
7E01F80007E0
7E00F8000FE0
FC00F8000FC0
FC00F8001F80
FC00F8003F00
FC00F8003F00
F800F8007E00
F800F800FC00
F800F801FC00
FC00F801F800
FC00F803F000
FC00F807E000
FC01F807E000
7E03F80FC000
7F07F81F8000
3FFFF81FFFF0
3FFEF83FFFF0
0FFCF83FFFF0
07F0783FFFF0
ENDCHAR
STARTCHAR 01F4
ENCODING 500
SWIDTH 720 0
DWIDTH 33 0
BBX 29 43 2 0
BITMAP
00003FC0
00007F80
0000FE00
0001FC00
0001F800
0003F000
0007E000
00000000
00000000
00000000
000FFC00
007FFF80
01FFFFE0
03FFFFF0
0FFFFFF8
0FF807F0
1FE001F0
3FC00060
3F800000
7F000000
7E000000
FE000000
FE000000
FC000000
FC000000
FC000000
FC003FF8
FC003FF8
FC003FF8
FC003FF8
FE0000F8
FE0000F8
7E0000F8
7F0000F8
3F8000F8
3FC000F8
1FE001F8
0FFC07F8
07FFFFF8
03FFFFF8
01FFFFE0
007FFF80
0007FC00
ENDCHAR
STARTCHAR 01F5
ENCODING 501
SWIDTH 523 0
DWIDTH 24 0
BBX 23 42 1 -9
BITMAP
000FE0
001FC0
001F80
003F00
003E00
007C00
00F800
000000
000000
01FC00
07FFFE
1FFFFE
3FFFFE
3F07FC
7E03E0
7C03F0
7C01F0
7C01F0
7C03F0
7E03E0
3F07E0
3FFFC0
1FFF80
07FF00
1FFC00
1E0000
3E0000
3F0000
3FFF80
3FFFF0
1FFFF8
1FFFFC
7C01FC
78007C
F8007C
F8007C
FC00F8
7E03F8
7FFFF0
3FFFE0
1FFF80
03FE00
ENDCHAR
STARTCHAR 01F6
ENCODING 502
SWIDTH 1069 0
DWIDTH 49 0
BBX 44 33 4 0
BITMAP
FC0003F00000
FC0003F00000
FC0003F00000
FC0003F00000
FC0003F00000
FC0003F00000
FC0003F00000
FC0003F00000
FC0003F00000
FC0003F0FE00
FC0003F0FF80
FC0003F0FFC0
FC0003F07FE0
FC0003F007E0
FFFFFFF007E0
FFFFFFF003E0
FFFFFFF003F0
FFFFFFF003F0
FC0003F003F0
FC0003F003E0
FC0003F003E0
FC0003F007E0
FC0003F007E0
FC0003F007E0
FC0003F007C0
FC0003F00FC0
FC0003F00FC0
FC0003F81F80
FC0001FC3F00
FC0001FFFE00
FC0000FFFC00
FC00007FF800
FC00000FE000
ENDCHAR
STARTCHAR 01F7
ENCODING 503
SWIDTH 720 0
DWIDTH 33 0
BBX 27 41 4 -8
BITMAP
F80FF000
FC3FFC00
FCFFFE00
FDFFFF00
FFFFFF80
FFF07FC0
FFC01FC0
FF000FE0
FE000FE0
FC0007E0
FC0007E0
FC0007E0
FC0007E0
FC0007E0
FC0007E0
FC000FE0
FC000FC0
FC000FC0
FC001FC0
FC003F80
FC003F80
FC007F00
FC00FE00
FC01FC00
FC07F800
FC0FF000
FC3FE000
FCFFC000
FFFF8000
FFFE0000
FFFC0000
FFF00000
FFC00000
FF000000
FC000000
FC000000
FC000000
FC000000
FC000000
FC000000
FC000000
ENDCHAR
STARTCHAR 01F8
ENCODING 504
SWIDTH 763 0
DWIDTH 35 0
BBX 28 43 4 0
BITMAP
007F0000
003F0000
001F8000
000FC000
0007C000
0003E000
0001F000
00000000
00000000
00000000
F80003F0
F80003F0
FC0003F0
FE0003F0
FF0003F0
FF8003F0
FF8003F0
FFC003F0
FFE003F0
FFF003F0
FFF003F0
FBF803F0
F9FC03F0
F8FE03F0
F87F03F0
F87F03F0
F83F83F0
F81FC3F0
F80FE3F0
F80FF3F0
F807F3F0
F803FBF0
F801FFF0
F800FFF0
F800FFF0
F8007FF0
F8003FF0
F8001FF0
F8000FF0
F8000FF0
F80007F0
F80003F0
F80001F0
ENDCHAR
STARTCHAR 01F9
ENCODING 505
SWIDTH 567 0
DWIDTH 26 0
BBX 20 33 3 0
BITMAP
1FC000
0FC000
07E000
03F000
01F000
00F800
007C00
000000
000000
F0FE00
F9FF80
FBFFC0
FFFFE0
FF07F0
FE03F0
FC03F0
F801F0
F801F0
F801F0
F801F0
F801F0
F801F0
F801F0
F801F0
F801F0
F801F0
F801F0
F801F0
F801F0
F801F0
F801F0
F801F0
F801F0
ENDCHAR
STARTCHAR 01FA
ENCODING 506
SWIDTH 698 0
DWIDTH 32 0
BBX 32 49 0 0
BITMAP
00001FE0
00003F80
00007F00
0000FC00
0001F800
0007E000
00000000
0003C000
0007F000
000E3000
000C3800
000C3800
000E7000
0007F000
0003C000
00000000
0007E000
000FF000
000FF000
001FF800
001FF800
001FF800
003FFC00
003FFC00
007E7E00
007E7E00
007E7E00
00FC3F00
00FC3F00
01F81F00
01F81F80
01F81F80
03F00FC0
03F00FC0
07F00FC0
07E007E0
07E007E0
0FFFFFF0
0FFFFFF0
0FFFFFF0
1FFFFFF8
1F8001F8
3F8001FC
3F0000FC
3F0000FC
7E00007E
7E00007E
FE00007F
FC00003F
ENDCHAR
STARTCHAR 01FB
ENCODING 507
SWIDTH 501 0
DWIDTH 23 0
BBX 20 44 1 0
BITMAP
0003E0
000FC0
001F80
003F00
003E00
007E00
007C00
00F000
000000
00F800
03FC00
03FE00
078E00
070E00
078E00
03FE00
03FC00
00F800
000000
000000
01FC00
0FFF00
3FFF80
7FFFC0
3F0FE0
1C03E0
0003F0
0003F0
0003F0
0003F0
007FF0
07FFF0
1FFFF0
3FFFF0
7F83F0
FE03F0
FC03F0
FC03F0
FC07F0
FE0FF0
7FFFF0
7FFDF0
3FF9F0
0FC0F0
ENDCHAR
STARTCHAR 01FC
ENCODING 508
SWIDTH 938 0
DWIDTH 43 0
BBX 41 43 0 0
BITMAP
00000003FC00
00000007F800
0000000FE000
0000001FC000
0000001F8000
0000003F0000
0000007E0000
000000000000
000000000000
000000000000
0000FFFFFF80
0000FFFFFF80
0001FFFFFF80
0001FFFFFF80
0003FFFFFF80
0003FF800000
0007FF800000
0007CF800000
000FCFC00000
000F8FC00000
001F8FC00000
001F0FC00000
003F0FC00000
003F0FC00000
007E0FFFFC00
00FE07FFFC00
00FC07FFFC00
01FC07FFFC00
01F807FFFC00
03F807E00000
03F007E00000
07FFFFE00000
07FFFFE00000
0FFFFFE00000
0FFFFFF00000
1FC003F00000
1F8003F00000
3F8003F00000
3F0003FFFF80
7F0003FFFF80
7E0003FFFF80
FE0001FFFF80
FC0001FFFF80
ENDCHAR
STARTCHAR 01FD
ENCODING 509
SWIDTH 807 0
DWIDTH 37 0
BBX 35 33 1 0
BITMAP
00003F8000
00007F0000
00007E0000
0000FC0000
0000F80000
0001F00000
0003E00000
0000000000
0000000000
01FC03F000
0FFF0FFC00
1FFF9FFF00
7FFFBFFF00
3F0FFE1F80
1C03F807C0
0003F007C0
0003F007C0
0003F003E0
007FFFFFE0
07FFFFFFE0
1FFFFFFFE0
3FFFFFFFE0
7FC3F00000
7E03F00000
FC03F00000
FC03F00000
FC03F80000
FC07FC0180
7E1FFE07C0
7FFF7FFFE0
7FFE3FFF80
1FFC0FFF00
0FF003F800
ENDCHAR
STARTCHAR 01FE
ENCODING 510
SWIDTH 807 0
DWIDTH 37 0
BBX 33 45 2 -2
BITMAP
00003FC000
00007F8000
0000FE0000
0001FC0000
0001F80000
0003F00000
0007E00000
0000000000
0000000F80
0000001E00
000FF83E00
007FFF3C00
01FFFFF800
03FFFFF800
07FFFFF800
0FF80FFC00
1FE003FE00
3F8007FE00
3F8007FF00
7F000FFF00
7E001F3F80
FE003E3F80
FE003C1F80
FC007C1F80
FC00F81F80
FC01F01F80
FC01E01F80
FC03E01F80
FC07C01F80
FC07801F80
FC0F001F80
FE1F003F80
7E3E003F00
7F3C007F00
7F78007E00
3FF800FE00
1FF003FC00
1FF80FF800
0FFFFFF000
07FFFFE000
0FFFFFC000
1F7FFF0000
1E0FF80000
3E00000000
7800000000
ENDCHAR
STARTCHAR 01FF
ENCODING 511
SWIDTH 567 0
DWIDTH 26 0
BBX 25 34 1 -1
BITMAP
0007F000
000FE000
000FC000
001F8000
001F0000
003E0000
007C0000
00000F80
00001F00
00FF1E00
03FFFC00
07FFF800
1FFFF800
1FC1FC00
3F01FC00
3E03FE00
7E07FE00
7C07BE00
7C0F3F00
7C1F3F00
7C3E3F00
7C3C3F00
7C783F00
7CF83F00
7CF03E00
7FE03E00
3FC07E00
3FC0FC00
1FC1FC00
1FFFF800
1FFFF000
3FFFC000
3CFF0000
F8000000
ENDCHAR
STARTCHAR 0200
ENCODING 512
SWIDTH 698 0
DWIDTH 32 0
BBX 32 42 0 0
BITMAP
0FC7E000
03E3E000
01F1F000
00F8F800
007C7800
003E3C00
00000000
00000000
00000000
0007E000
000FF000
000FF000
001FF800
001FF800
001FF800
003FFC00
003FFC00
007E7E00
007E7E00
007E7E00
00FC3F00
00FC3F00
01F81F00
01F81F80
01F81F80
03F00FC0
03F00FC0
07F00FC0
07E007E0
07E007E0
0FFFFFF0
0FFFFFF0
0FFFFFF0
1FFFFFF8
1F8001F8
3F8001FC
3F0000FC
3F0000FC
7E00007E
7E00007E
FE00007F
FC00003F
ENDCHAR
STARTCHAR 0201
ENCODING 513
SWIDTH 501 0
DWIDTH 23 0
BBX 21 33 0 0
BITMAP
FCF800
3E7C00
1E3E00
1F1E00
0F8F00
078F00
03E780
000000
000000
00FE00
07FF80
1FFFC0
3FFFE0
1F87F0
0E01F0
0001F8
0001F8
0001F8
0001F8
003FF8
03FFF8
0FFFF8
1FFFF8
3FC1F8
7F01F8
7E01F8
7E01F8
7E03F8
7F07F8
3FFFF8
3FFEF8
1FFCF8
07E078
ENDCHAR
STARTCHAR 0202
ENCODING 514
SWIDTH 698 0
DWIDTH 32 0
BBX 32 42 0 0
BITMAP
0007E000
001FF800
003FFC00
007FFE00
007C3E00
00781F00
00781F00
00000000
00000000
0007E000
000FF000
000FF000
001FF800
001FF800
001FF800
003FFC00
003FFC00
007E7E00
007E7E00
007E7E00
00FC3F00
00FC3F00
01F81F00
01F81F80
01F81F80
03F00FC0
03F00FC0
07F00FC0
07E007E0
07E007E0
0FFFFFF0
0FFFFFF0
0FFFFFF0
1FFFFFF8
1F8001F8
3F8001FC
3F0000FC
3F0000FC
7E00007E
7E00007E
FE00007F
FC00003F
ENDCHAR
STARTCHAR 0203
ENCODING 515
SWIDTH 501 0
DWIDTH 23 0
BBX 20 33 1 0
BITMAP
01F800
07FE00
0FFF00
0FFF00
0F0F80
1E0780
1E0780
000000
000000
01FC00
0FFF00
3FFF80
7FFFC0
3F0FE0
1C03E0
0003F0
0003F0
0003F0
0003F0
007FF0
07FFF0
1FFFF0
3FFFF0
7F83F0
FE03F0
FC03F0
FC03F0
FC07F0
FE0FF0
7FFFF0
7FFDF0
3FF9F0
0FC0F0
ENDCHAR
STARTCHAR 0204
ENCODING 516
SWIDTH 567 0
DWIDTH 26 0
BBX 23 42 2 0
BITMAP
FC7E00
3E3E00
1F1F00
0F8F80
07C780
03E3C0
000000
000000
000000
3FFFFE
3FFFFE
3FFFFE
3FFFFE
3FFFFE
3F0000
3F0000
3F0000
3F0000
3F0000
3F0000
3F0000
3F0000
3F0000
3FFFF0
3FFFF0
3FFFF0
3FFFF0
3FFFF0
3F0000
3F0000
3F0000
3F0000
3F0000
3F0000
3F0000
3F0000
3F0000
3FFFFE
3FFFFE
3FFFFE
3FFFFE
3FFFFE
ENDCHAR
STARTCHAR 0205
ENCODING 517
SWIDTH 545 0
DWIDTH 25 0
BBX 21 33 2 0
BITMAP
FCF800
3E7C00
1E3E00
1F1E00
0F8F00
078F00
03E780
000000
000000
01FC00
07FF80
1FFFC0
3FFFE0
3F07E0
7E01F0
FC01F0
FC00F8
F800F8
FFFFF8
FFFFF8
FFFFF8
FFFFF8
F80000
F80000
FC0000
FC0000
7C0000
7E0060
3F81F0
1FFFF8
0FFFF0
07FFC0
01FE00
ENDCHAR
STARTCHAR 0206
ENCODING 518
SWIDTH 567 0
DWIDTH 26 0
BBX 21 42 4 0
BITMAP
01F800
07FE00
0FFF00
1FFF80
1F0F80
1E07C0
1E07C0
000000
000000
FFFFF8
FFFFF8
FFFFF8
FFFFF8
FFFFF8
FC0000
FC0000
FC0000
FC0000
FC0000
FC0000
FC0000
FC0000
FC0000
FFFFC0
FFFFC0
FFFFC0
FFFFC0
FFFFC0
FC0000
FC0000
FC0000
FC0000
FC0000
FC0000
FC0000
FC0000
FC0000
FFFFF8
FFFFF8
FFFFF8
FFFFF8
FFFFF8
ENDCHAR
STARTCHAR 0207
ENCODING 519
SWIDTH 545 0
DWIDTH 25 0
BBX 21 33 2 0
BITMAP
00FC00
03FF00
07FF80
07FF80
0787C0
0F03C0
0F03C0
000000
000000
01FC00
07FF80
1FFFC0
3FFFE0
3F07E0
7E01F0
FC01F0
FC00F8
F800F8
FFFFF8
FFFFF8
FFFFF8
FFFFF8
F80000
F80000
FC0000
FC0000
7C0000
7E0060
3F81F0
1FFFF8
0FFFF0
07FFC0
01FE00
ENDCHAR
STARTCHAR 0208
ENCODING 520
SWIDTH 305 0
DWIDTH 14 0
BBX 18 42 -5 0
BITMAP
FC7E00
3E3E00
1F1F00
0F8F80
07C780
03E3C0
000000
000000
000000
007E00
007E00
007E00
007E00
007E00
007E00
007E00
007E00
007E00
007E00
007E00
007E00
007E00
007E00
007E00
007E00
007E00
007E00
007E00
007E00
007E00
007E00
007E00
007E00
007E00
007E00
007E00
007E00
007E00
007E00
007E00
007E00
007E00
ENDCHAR
STARTCHAR 0209
ENCODING 521
SWIDTH 261 0
DWIDTH 12 0
BBX 17 33 -5 0
BITMAP
FCF800
3E7C00
1E3E00
1F1E00
0F8F00
078F00
03E780
000000
000000
00FC00
00FC00
00FC00
00FC00
00FC00
00FC00
00FC00
00FC00
00FC00
00FC00
00FC00
00FC00
00FC00
00FC00
00FC00
00FC00
00FC00
00FC00
00FC00
00FC00
00FC00
00FC00
00FC00
00FC00
ENDCHAR
STARTCHAR 020A
ENCODING 522
SWIDTH 305 0
DWIDTH 14 0
BBX 15 42 0 0
BITMAP
0FC0
3FF0
7FF8
FFFC
F87C
F03E
F03E
0000
0000
0FC0
0FC0
0FC0
0FC0
0FC0
0FC0
0FC0
0FC0
0FC0
0FC0
0FC0
0FC0
0FC0
0FC0
0FC0
0FC0
0FC0
0FC0
0FC0
0FC0
0FC0
0FC0
0FC0
0FC0
0FC0
0FC0
0FC0
0FC0
0FC0
0FC0
0FC0
0FC0
0FC0
ENDCHAR
STARTCHAR 020B
ENCODING 523
SWIDTH 261 0
DWIDTH 12 0
BBX 14 33 -1 0
BITMAP
0FC0
3FF0
7FF8
7FF8
787C
F03C
F03C
0000
0000
0FC0
0FC0
0FC0
0FC0
0FC0
0FC0
0FC0
0FC0
0FC0
0FC0
0FC0
0FC0
0FC0
0FC0
0FC0
0FC0
0FC0
0FC0
0FC0
0FC0
0FC0
0FC0
0FC0
0FC0
ENDCHAR
STARTCHAR 020C
ENCODING 524
SWIDTH 807 0
DWIDTH 37 0
BBX 33 42 2 0
BITMAP
0FC7E00000
03E3E00000
01F1F00000
00F8F80000
007C780000
003E3C0000
0000000000
0000000000
0000000000
000FF80000
007FFF0000
01FFFFC000
03FFFFE000
07FFFFF800
0FF80FF800
1FE003FC00
3F8000FE00
3F80007F00
7F00007F00
7E00003F00
FE00003F80
FE00001F80
FC00001F80
FC00001F80
FC00001F80
FC00001F80
FC00001F80
FC00001F80
FC00001F80
FE00001F80
FE00003F80
7E00003F00
7F00007F00
3F00007F00
3F8000FE00
1FE003FC00
0FF80FFC00
07FFFFF800
03FFFFE000
01FFFFC000
007FFF0000
000FF80000
ENDCHAR
STARTCHAR 020D
ENCODING 525
SWIDTH 567 0
DWIDTH 26 0
BBX 23 33 2 0
BITMAP
FCF800
3E7C00
1E3E00
1F1E00
0F8F00
078F00
03E780
000000
000000
01FE00
07FF80
0FFFE0
3FFFF0
3F83F8
7E01F8
7E00FC
FC00FC
FC007C
FC007E
F8007E
F8007E
F8007E
F8007E
FC007E
FC007C
FC00FC
7E00FC
7E01F8
3F83F8
3FFFF0
0FFFE0
07FF80
01FE00
ENDCHAR
STARTCHAR 020E
ENCODING 526
SWIDTH 807 0
DWIDTH 37 0
BBX 33 42 2 0
BITMAP
0007E00000
001FF80000
003FFC0000
007FFE0000
007C3E0000
00781F0000
00781F0000
0000000000
0000000000
000FF80000
007FFF0000
01FFFFC000
03FFFFE000
07FFFFF800
0FF80FF800
1FE003FC00
3F8000FE00
3F80007F00
7F00007F00
7E00003F00
FE00003F80
FE00001F80
FC00001F80
FC00001F80
FC00001F80
FC00001F80
FC00001F80
FC00001F80
FC00001F80
FE00001F80
FE00003F80
7E00003F00
7F00007F00
3F00007F00
3F8000FE00
1FE003FC00
0FF80FFC00
07FFFFF800
03FFFFE000
01FFFFC000
007FFF0000
000FF80000
ENDCHAR
STARTCHAR 020F
ENCODING 527
SWIDTH 567 0
DWIDTH 26 0
BBX 23 33 2 0
BITMAP
00FC00
03FF00
07FF80
07FF80
0787C0
0F03C0
0F03C0
000000
000000
01FE00
07FF80
0FFFE0
3FFFF0
3F83F8
7E01F8
7E00FC
FC00FC
FC007C
FC007E
F8007E
F8007E
F8007E
F8007E
FC007E
FC007C
FC00FC
7E00FC
7E01F8
3F83F8
3FFFF0
0FFFE0
07FF80
01FE00
ENDCHAR
STARTCHAR 0210
ENCODING 528
SWIDTH 654 0
DWIDTH 30 0
BBX 28 42 2 0
BITMAP
FC7E0000
3E3E0000
1F1F0000
0F8F8000
07C78000
03E3C000
00000000
00000000
00000000
3FFF8000
3FFFF000
3FFFF800
3FFFFE00
3FFFFE00
3F01FF00
3F007F00
3F003F00
3F003F80
3F001F80
3F001F80
3F003F00
3F003F00
3F003F00
3F007E00
3F01FE00
3FFFFC00
3FFFF000
3FFFE000
3FFFC000
3F0FE000
3F07F000
3F03F000
3F03F800
3F01FC00
3F00FE00
3F00FE00
3F007F00
3F003F80
3F003F80
3F001FC0
3F000FE0
3F000FF0
ENDCHAR
STARTCHAR 0211
ENCODING 529
SWIDTH 370 0
DWIDTH 17 0
BBX 19 33 -2 0
BITMAP
FCF800
3E7C00
1E3E00
1F1E00
0F8F00
078F00
03E780
000000
000000
0783E0
07CFE0
07DFE0
07FFE0
07FFE0
07FFE0
07F800
07F000
07E000
07E000
07C000
07C000
07C000
07C000
07C000
07C000
07C000
07C000
07C000
07C000
07C000
07C000
07C000
07C000
ENDCHAR
STARTCHAR 0212
ENCODING 530
SWIDTH 654 0
DWIDTH 30 0
BBX 26 42 4 0
BITMAP
01F80000
07FE0000
0FFF0000
1FFF8000
1F0F8000
1E07C000
1E07C000
00000000
00000000
FFFE0000
FFFFC000
FFFFE000
FFFFF800
FFFFF800
FC07FC00
FC01FC00
FC00FC00
FC00FE00
FC007E00
FC007E00
FC00FC00
FC00FC00
FC00FC00
FC01F800
FC07F800
FFFFF000
FFFFC000
FFFF8000
FFFF0000
FC3F8000
FC1FC000
FC0FC000
FC0FE000
FC07F000
FC03F800
FC03F800
FC01FC00
FC00FE00
FC00FE00
FC007F00
FC003F80
FC003FC0
ENDCHAR
STARTCHAR 0213
ENCODING 531
SWIDTH 370 0
DWIDTH 17 0
BBX 15 33 2 0
BITMAP
0FC0
3FF0
7FF8
7FF8
787C
F03C
F03C
0000
0000
783E
7CFE
7DFE
7FFE
7FFE
7FFE
7F80
7F00
7E00
7E00
7C00
7C00
7C00
7C00
7C00
7C00
7C00
7C00
7C00
7C00
7C00
7C00
7C00
7C00
ENDCHAR
STARTCHAR 0214
ENCODING 532
SWIDTH 741 0
DWIDTH 34 0
BBX 28 42 3 0
BITMAP
3F1F8000
0F8F8000
07C7C000
03E3E000
01F1E000
00F8F000
00000000
00000000
00000000
FC0003F0
FC0003F0
FC0003F0
FC0003F0
FC0003F0
FC0003F0
FC0003F0
FC0003F0
FC0003F0
FC0003F0
FC0003F0
FC0003F0
FC0003F0
FC0003F0
FC0003F0
FC0003F0
FC0003F0
FC0003F0
FC0003F0
FC0003F0
FC0003F0
FE0003F0
7E0007F0
7E0007E0
7F0007E0
7F000FE0
3F801FC0
1FE07FC0
1FFFFF80
0FFFFF00
07FFFE00
01FFF800
003FC000
ENDCHAR
STARTCHAR 0215
ENCODING 533
SWIDTH 567 0
DWIDTH 26 0
BBX 21 33 2 0
BITMAP
FCF800
3E7C00
1E3E00
1F1E00
0F8F00
078F00
03E780
000000
000000
7C01F8
7C01F8
7C01F8
7C01F8
7C01F8
7C01F8
7C01F8
7C01F8
7C01F8
7C01F8
7C01F8
7C01F8
7C01F8
7C01F8
7C01F8
7C01F8
7C01F8
7E01F8
7E03F8
7F07F8
3FFFF8
1FFEF8
0FFCF8
03F0F8
ENDCHAR
STARTCHAR 0216
ENCODING 534
SWIDTH 741 0
DWIDTH 34 0
BBX 28 42 3 0
BITMAP
001F8000
007FE000
00FFF000
01FFF800
01F0F800
01E07C00
01E07C00
00000000
00000000
FC0003F0
FC0003F0
FC0003F0
FC0003F0
FC0003F0
FC0003F0
FC0003F0
FC0003F0
FC0003F0
FC0003F0
FC0003F0
FC0003F0
FC0003F0
FC0003F0
FC0003F0
FC0003F0
FC0003F0
FC0003F0
FC0003F0
FC0003F0
FC0003F0
FE0003F0
7E0007F0
7E0007E0
7F0007E0
7F000FE0
3F801FC0
1FE07FC0
1FFFFF80
0FFFFF00
07FFFE00
01FFF800
003FC000
ENDCHAR
STARTCHAR 0217
ENCODING 535
SWIDTH 567 0
DWIDTH 26 0
BBX 20 33 3 0
BITMAP
01F800
07FE00
0FFF00
0FFF00
0F0F80
1E0780
1E0780
000000
000000
F803F0
F803F0
F803F0
F803F0
F803F0
F803F0
F803F0
F803F0
F803F0
F803F0
F803F0
F803F0
F803F0
F803F0
F803F0
F803F0
F803F0
FC03F0
FC07F0
FE0FF0
7FFFF0
3FFDF0
1FF9F0
07E1F0
ENDCHAR
STARTCHAR 0218
ENCODING 536
SWIDTH 545 0
DWIDTH 25 0
BBX 23 42 1 -9
BITMAP
007F00
03FFE0
07FFF8
0FFFFC
1FFFF8
3FC1F8
3F0070
3E0000
7E0000
7E0000
7F0000
3F0000
3FC000
3FF800
1FFF00
0FFFC0
07FFF0
01FFF8
003FFC
0007FC
0001FC
0000FC
00007E
00007E
00007C
3000FC
7C00FC
7F03F8
FFFFF8
7FFFF0
3FFFE0
0FFF80
01FE00
000000
000000
007C00
007C00
007C00
007800
007800
007800
00F000
ENDCHAR
STARTCHAR 0219
ENCODING 537
SWIDTH 436 0
DWIDTH 20 0
BBX 18 33 1 -9
BITMAP
03F800
0FFF00
1FFF80
3FFF80
7F0700
7C0000
7C0000
7C0000
7F0000
7FC000
3FF800
1FFE00
0FFF00
03FF80
007FC0
001FC0
000FC0
000FC0
300F80
7C1F80
FFFF80
7FFF00
3FFC00
07F000
000000
000000
01F000
01F000
01F000
01E000
01E000
01E000
03C000
ENDCHAR
STARTCHAR 021A
ENCODING 538
SWIDTH 610 0
DWIDTH 28 0
BBX 26 42 1 -9
BITMAP
FFFFFFC0
FFFFFFC0
FFFFFFC0
FFFFFFC0
FFFFFFC0
003F0000
003F0000
003F0000
003F0000
003F0000
003F0000
003F0000
003F0000
003F0000
003F0000
003F0000
003F0000
003F0000
003F0000
003F0000
003F0000
003F0000
003F0000
003F0000
003F0000
003F0000
003F0000
003F0000
003F0000
003F0000
003F0000
003F0000
003F0000
00000000
00000000
001F0000
001F0000
001F0000
001E0000
001E0000
001E0000
003C0000
ENDCHAR
STARTCHAR 021B
ENCODING 539
SWIDTH 370 0
DWIDTH 17 0
BBX 16 40 1 -9
BITMAP
0780
0780
0F80
0F80
0F80
0F80
0F80
FFFE
FFFE
FFFE
FFFE
1F80
1F80
1F80
1F80
1F80
1F80
1F80
1F80
1F80
1F80
1F80
1F80
1F80
1F80
1F80
0FC4
0FFE
0FFE
07FF
01F8
0000
0000
01F0
01F0
01F0
01E0
01E0
01E0
03C0
ENDCHAR
STARTCHAR 021C
ENCODING 540
SWIDTH 589 0
DWIDTH 27 0
BBX 24 33 1 0
BITMAP
7FFFFE
7FFFFE
7FFFFE
7FFFFE
7FFFFE
0003FC
0007F0
000FE0
001FC0
003F80
007F00
00FE00
01FC00
03FFE0
03FFF8
03FFFC
03FFFE
0001FF
00007F
00003F
00003F
00003F
00003F
00003F
00007F
38007F
7C00FE
FF03FE
FFFFFC
7FFFF8
1FFFF0
0FFFC0
01FE00
ENDCHAR
STARTCHAR 021D
ENCODING 541
SWIDTH 458 0
DWIDTH 21 0
BBX 20 33 -1 -9
BITMAP
3FFFE0
3FFFE0
3FFFE0
3FFFE0
000FC0
001F80
003F80
003F00
007E00
00FC00
01F800
01F800
03F000
07FC00
07FF00
07FFC0
07FFE0
000FE0
0007F0
0003F0
0003F0
0001F0
0001F0
0001F0
0003F0
0003F0
0003E0
3007E0
7C1FC0
7FFF80
FFFF00
3FFE00
0FF000
ENDCHAR
STARTCHAR 021E
ENCODING 542
SWIDTH 763 0
DWIDTH 35 0
BBX 28 43 4 0
BITMAP
03C03C00
01F0FC00
00F8F800
007DF000
007FE000
003FC000
001F8000
00000000
00000000
00000000
FC0003F0
FC0003F0
FC0003F0
FC0003F0
FC0003F0
FC0003F0
FC0003F0
FC0003F0
FC0003F0
FC0003F0
FC0003F0
FC0003F0
FC0003F0
FC0003F0
FFFFFFF0
FFFFFFF0
FFFFFFF0
FFFFFFF0
FC0003F0
FC0003F0
FC0003F0
FC0003F0
FC0003F0
FC0003F0
FC0003F0
FC0003F0
FC0003F0
FC0003F0
FC0003F0
FC0003F0
FC0003F0
FC0003F0
FC0003F0
ENDCHAR
STARTCHAR 021F
ENCODING 543
SWIDTH 567 0
DWIDTH 26 0
BBX 25 43 -2 0
BITMAP
F00F0000
7C3F0000
3E3E0000
1F7C0000
1FF80000
0FF00000
07E00000
00000000
00000000
07C00000
07C00000
07C00000
07C00000
07C00000
07C00000
07C00000
07C00000
07C00000
07C00000
07C3F000
07CFFC00
07DFFE00
07FFFF00
07F83F80
07F01F80
07E01F80
07C00F80
07C00F80
07C00F80
07C00F80
07C00F80
07C00F80
07C00F80
07C00F80
07C00F80
07C00F80
07C00F80
07C00F80
07C00F80
07C00F80
07C00F80
07C00F80
07C00F80
ENDCHAR
STARTCHAR 0220
ENCODING 544
SWIDTH 741 0
DWIDTH 34 0
BBX 27 41 4 -8
BITMAP
F80FE000
FC3FF800
FCFFFE00
FDFFFF00
FFFFFF80
FFF07F80
FF801FC0
FF000FC0
FE000FC0
FC000FE0
FC000FE0
FC000FE0
FC000FE0
FC000FE0
FC000FE0
FC000FE0
FC000FE0
FC000FE0
FC000FE0
FC000FE0
FC000FE0
FC000FE0
FC000FE0
FC000FE0
FC000FE0
FC000FE0
FC000FE0
FC000FE0
FC000FE0
FC000FE0
FC000FE0
FC000FE0
FC000FE0
00000FE0
00000FE0
00000FE0
00000FE0
00000FE0
00000FE0
00000FE0
00000FE0
ENDCHAR
STARTCHAR 0221
ENCODING 545
SWIDTH 654 0
DWIDTH 30 0
BBX 30 43 2 -9
BITMAP
0000F800
0000F800
0000F800
0000F800
0000F800
0000F800
0000F800
0000F800
0000F800
0000F800
01F8F800
07FEF800
1FFFF800
3FFFF800
3F87F800
7E01F800
7E00F800
FC00F800
FC00F800
FC00F800
FC00F800
F800F800
F800F800
F800F800
FC00F800
FC00F800
FC00F800
FC01F800
7E03F800
7F07F800
3FFFF800
3FFFF800
0FFCF800
07F0FBE0
00007FF8
00007FF8
00007FFC
00007C3C
00007E3C
0000FFFC
0001FFF8
0001EFF8
000043E0
ENDCHAR
STARTCHAR 0222
ENCODING 546
SWIDTH 654 0
DWIDTH 30 0
BBX 26 33 2 0
BITMAP
3F001F00
7F003F80
7E001F80
7E001F80
7E001F80
7E001F80
7E001F80
7F003F80
3F807F00
3FE0FE00
1FF9FC00
0FFFF800
03FFE000
00FFE000
03FFF800
0FFFFC00
1FE1FE00
3F80FF00
7F003F80
7E001F80
FC001FC0
FC000FC0
FC000FC0
FC000FC0
FC001FC0
FE001FC0
7F003F80
7FC0FF80
3FFFFF00
3FFFFE00
0FFFFC00
07FFF800
00FFC000
ENDCHAR
STARTCHAR 0223
ENCODING 547
SWIDTH 545 0
DWIDTH 25 0
BBX 22 33 1 0
BITMAP
3E00F8
3E00F8
7E00FC
7E00FC
7E00FC
7E00FC
7E00FC
7F00F8
3F01F8
3F83F0
1FE7E0
0FFFC0
07FF80
01FF00
03FFC0
0FFFE0
1FCFF0
3F87F8
3F01F8
7E01FC
7E00FC
7C00FC
FC007C
FC007C
FC007C
7C00FC
7E00FC
7F01FC
3F83F8
1FFFF0
0FFFE0
07FFC0
01FE00
ENDCHAR
STARTCHAR 0224
ENCODING 548
SWIDTH 610 0
DWIDTH 28 0
BBX 26 42 1 -9
BITMAP
7FFFFFC0
7FFFFFC0
7FFFFFC0
7FFFFF80
7FFFFF80
00007F00
00007E00
0000FE00
0001FC00
0003F800
0003F000
0007F000
000FE000
000FC000
001FC000
003F8000
007F0000
007E0000
00FE0000
01FC0000
01F80000
03F80000
07F00000
0FE00000
0FC00000
1FC00000
3F800000
3F000000
7FFFFFC0
FFFFFFC0
FFFFFFC0
FFFFFFC0
FFFFFFC0
00000FC0
00000FC0
00000FC0
00000F80
00001F80
0003FF80
0003FF00
0007FE00
0003F800
ENDCHAR
STARTCHAR 0225
ENCODING 549
SWIDTH 480 0
DWIDTH 22 0
BBX 19 33 1 -9
BITMAP
7FFFE0
7FFFE0
7FFFE0
7FFFE0
000FC0
001F80
003F80
003F00
007E00
00FC00
00FC00
01F800
03F000
07F000
07E000
0FC000
1F8000
1F8000
3F0000
7E0000
7FFFE0
FFFFE0
FFFFE0
FFFFE0
0003E0
0003E0
0003E0
0003E0
0007E0
007FC0
007FC0
007F80
00BE00
ENDCHAR
STARTCHAR 0226
ENCODING 550
SWIDTH 698 0
DWIDTH 32 0
BBX 32 43 0 0
BITMAP
0003C000
0007E000
0007E000
0007F000
0007F000
0007E000
0003C000
00000000
00000000
00000000
0007E000
000FF000
000FF000
001FF800
001FF800
001FF800
003FFC00
003FFC00
007E7E00
007E7E00
007E7E00
00FC3F00
00FC3F00
01F81F00
01F81F80
01F81F80
03F00FC0
03F00FC0
07F00FC0
07E007E0
07E007E0
0FFFFFF0
0FFFFFF0
0FFFFFF0
1FFFFFF8
1F8001F8
3F8001FC
3F0000FC
3F0000FC
7E00007E
7E00007E
FE00007F
FC00003F
ENDCHAR
STARTCHAR 0227
ENCODING 551
SWIDTH 501 0
DWIDTH 23 0
BBX 20 34 1 0
BITMAP
00F000
01F800
01FC00
01FC00
01FC00
01F800
00F000
000000
000000
000000
01FC00
0FFF00
3FFF80
7FFFC0
3F0FE0
1C03E0
0003F0
0003F0
0003F0
0003F0
007FF0
07FFF0
1FFFF0
3FFFF0
7F83F0
FE03F0
FC03F0
FC03F0
FC07F0
FE0FF0
7FFFF0
7FFDF0
3FF9F0
0FC0F0
ENDCHAR
STARTCHAR 0228
ENCODING 552
SWIDTH 567 0
DWIDTH 26 0
BBX 21 42 4 -9
BITMAP
FFFFF8
FFFFF8
FFFFF8
FFFFF8
FFFFF8
FC0000
FC0000
FC0000
FC0000
FC0000
FC0000
FC0000
FC0000
FC0000
FC0000
FFFFC0
FFFFC0
FFFFC0
FFFFC0
FFFFC0
FC0000
FC0000
FC0000
FC0000
FC0000
FC0000
FC0000
FC0000
FFFFF8
FFFFF8
FFFFF8
FFFFF8
FFFFF8
007000
007000
007C00
00FE00
003F00
000F00
001F00
01FE00
01FC00
ENDCHAR
STARTCHAR 0229
ENCODING 553
SWIDTH 545 0
DWIDTH 25 0
BBX 21 33 2 -9
BITMAP
01FC00
07FF00
0FFFC0
1FFFE0
3F87E0
7E01F0
7C01F0
FC00F8
FC00F8
F800F8
FFFFF8
FFFFF8
FFFFF8
FFFFF8
F80000
F80000
FC0000
FC0000
7C0000
7E0060
3F81F0
3FFFF8
1FFFF0
0FFFE0
03FF80
007800
007000
007E00
00FF00
000F00
000F00
00FF00
01FC00
ENDCHAR
STARTCHAR 022A
ENCODING 554
SWIDTH 807 0
DWIDTH 37 0
BBX 33 47 2 0
BITMAP
007FFE0000
007FFE0000
007FFE0000
007FFE0000
0000000000
0000000000
00780E0000
007C1F0000
00FC3F0000
00FC3F0000
00FC1F0000
00781E0000
0000000000
0000000000
000FF80000
007FFF0000
01FFFFC000
03FFFFE000
07FFFFF800
0FF80FF800
1FE003FC00
3F8000FE00
3F80007F00
7F00007F00
7E00003F00
FE00003F80
FE00001F80
FC00001F80
FC00001F80
FC00001F80
FC00001F80
FC00001F80
FC00001F80
FC00001F80
FE00001F80
FE00003F80
7E00003F00
7F00007F00
3F00007F00
3F8000FE00
1FE003FC00
0FF80FFC00
07FFFFF800
03FFFFE000
01FFFFC000
007FFF0000
000FF80000
ENDCHAR
STARTCHAR 022B
ENCODING 555
SWIDTH 567 0
DWIDTH 26 0
BBX 23 40 2 0
BITMAP
0FFFC0
0FFFC0
0FFFC0
0FFFC0
000000
000000
000000
0703C0
0F87E0
1FC7E0
1FC7E0
0F87E0
0703C0
000000
000000
000000
01FE00
07FF80
0FFFE0
3FFFF0
3F83F8
7E01F8
7E00FC
FC00FC
FC007C
FC007E
F8007E
F8007E
F8007E
F8007E
FC007E
FC007C
FC00FC
7E00FC
7E01F8
3F83F8
3FFFF0
0FFFE0
07FF80
01FE00
ENDCHAR
STARTCHAR 022C
ENCODING 556
SWIDTH 807 0
DWIDTH 37 0
BBX 33 47 2 0
BITMAP
007FFE0000
007FFE0000
007FFE0000
007FFE0000
0000000000
0000000000
001E078000
003FCF0000
007FFF0000
007FFF0000
00F1FE0000
00F07C0000
0000000000
0000000000
000FF80000
007FFF0000
01FFFFC000
03FFFFE000
07FFFFF800
0FF80FF800
1FE003FC00
3F8000FE00
3F80007F00
7F00007F00
7E00003F00
FE00003F80
FE00001F80
FC00001F80
FC00001F80
FC00001F80
FC00001F80
FC00001F80
FC00001F80
FC00001F80
FE00001F80
FE00003F80
7E00003F00
7F00007F00
3F00007F00
3F8000FE00
1FE003FC00
0FF80FFC00
07FFFFF800
03FFFFE000
01FFFFC000
007FFF0000
000FF80000
ENDCHAR
STARTCHAR 022D
ENCODING 557
SWIDTH 567 0
DWIDTH 26 0
BBX 23 39 2 0
BITMAP
0FFFC0
0FFFC0
0FFFC0
0FFFC0
000000
000000
01E1E0
07F1C0
07FFC0
0FFFC0
0F3F80
0E0F00
000000
000000
000000
01FE00
07FF80
0FFFE0
3FFFF0
3F83F8
7E01F8
7E00FC
FC00FC
FC007C
FC007E
F8007E
F8007E
F8007E
F8007E
FC007E
FC007C
FC00FC
7E00FC
7E01F8
3F83F8
3FFFF0
0FFFE0
07FF80
01FE00
ENDCHAR
STARTCHAR 022E
ENCODING 558
SWIDTH 807 0
DWIDTH 37 0
BBX 33 43 2 0
BITMAP
0003C00000
0007E00000
0007E00000
0007F00000
0007F00000
0007E00000
0003C00000
0000000000
0000000000
0000000000
000FF80000
007FFF0000
01FFFFC000
03FFFFE000
07FFFFF800
0FF80FF800
1FE003FC00
3F8000FE00
3F80007F00
7F00007F00
7E00003F00
FE00003F80
FE00001F80
FC00001F80
FC00001F80
FC00001F80
FC00001F80
FC00001F80
FC00001F80
FC00001F80
FE00001F80
FE00003F80
7E00003F00
7F00007F00
3F00007F00
3F8000FE00
1FE003FC00
0FF80FFC00
07FFFFF800
03FFFFE000
01FFFFC000
007FFF0000
000FF80000
ENDCHAR
STARTCHAR 022F
ENCODING 559
SWIDTH 567 0
DWIDTH 26 0
BBX 23 34 2 0
BITMAP
007800
00FC00
00FE00
00FE00
00FE00
00FC00
007800
000000
000000
000000
01FE00
07FF80
0FFFE0
3FFFF0
3F83F8
7E01F8
7E00FC
FC00FC
FC007C
FC007E
F8007E
F8007E
F8007E
F8007E
FC007E
FC007C
FC00FC
7E00FC
7E01F8
3F83F8
3FFFF0
0FFFE0
07FF80
01FE00
ENDCHAR
STARTCHAR 0230
ENCODING 560
SWIDTH 807 0
DWIDTH 37 0
BBX 33 48 2 0
BITMAP
007FFE0000
007FFE0000
007FFE0000
007FFE0000
0000000000
0003C00000
0007E00000
0007E00000
0007F00000
0007F00000
0007E00000
0003C00000
0000000000
0000000000
0000000000
000FF80000
007FFF0000
01FFFFC000
03FFFFE000
07FFFFF800
0FF80FF800
1FE003FC00
3F8000FE00
3F80007F00
7F00007F00
7E00003F00
FE00003F80
FE00001F80
FC00001F80
FC00001F80
FC00001F80
FC00001F80
FC00001F80
FC00001F80
FC00001F80
FE00001F80
FE00003F80
7E00003F00
7F00007F00
3F00007F00
3F8000FE00
1FE003FC00
0FF80FFC00
07FFFFF800
03FFFFE000
01FFFFC000
007FFF0000
000FF80000
ENDCHAR
STARTCHAR 0231
ENCODING 561
SWIDTH 567 0
DWIDTH 26 0
BBX 23 39 2 0
BITMAP
0FFFC0
0FFFC0
0FFFC0
0FFFC0
000000
007800
00FC00
00FE00
00FE00
00FE00
00FC00
007800
000000
000000
000000
01FE00
07FF80
0FFFE0
3FFFF0
3F83F8
7E01F8
7E00FC
FC00FC
FC007C
FC007E
F8007E
F8007E
F8007E
F8007E
FC007E
FC007C
FC00FC
7E00FC
7E01F8
3F83F8
3FFFF0
0FFFE0
07FF80
01FE00
ENDCHAR
STARTCHAR 0232
ENCODING 562
SWIDTH 654 0
DWIDTH 30 0
BBX 30 40 0 0
BITMAP
00FFFC00
00FFFC00
00FFFC00
00FFFC00
00000000
00000000
00000000
FE0001FC
7E0001F8
7F0003F8
3F0007F0
3F8007E0
1F800FE0
0FC00FC0
0FE01FC0
07E01F80
07F03F00
03F03F00
01F87E00
01F87E00
00FCFC00
00FCF800
007FF800
003FF000
003FF000
001FE000
001FC000
000FC000
000FC000
000FC000
000FC000
000FC000
000FC000
000FC000
000FC000
000FC000
000FC000
000FC000
000FC000
000FC000
ENDCHAR
STARTCHAR 0233
ENCODING 563
SWIDTH 523 0
DWIDTH 24 0
BBX 24 40 0 -8
BITMAP
03FFF0
03FFF0
03FFF0
03FFF0
000000
000000
000000
000000
FC001F
7E003F
7E003E
3F007E
3F007C
3F00FC
1F80FC
1F80F8
0FC1F8
0FC1F0
07C1F0
07E3E0
07E3E0
03F7E0
03F7C0
01F7C0
01FF80
00FF80
00FF80
00FF00
007F00
007E00
003E00
007C00
007C00
00FC00
00F800
01F800
01F000
03F000
03F000
07E000
ENDCHAR
STARTCHAR 0234
ENCODING 564
SWIDTH 305 0
DWIDTH 14 0
BBX 15 43 2 -9
BITMAP
7E00
7E00
7E00
7E00
7E00
7E00
7E00
7E00
7E00
7E00
7E00
7E00
7E00
7E00
7E00
7E00
7E00
7E00
7E00
7E00
7E00
7E00
7E00
7E00
7E00
7E00
7E00
7E00
7E00
7E00
7E00
7E00
7E00
7FF0
7FFC
7FFE
7FFE
3F1E
3F1E
7FFE
FFFE
F7FC
21F0
ENDCHAR
STARTCHAR 0235
ENCODING 565
SWIDTH 632 0
DWIDTH 29 0
BBX 29 33 3 -9
BITMAP
F07E0000
F9FF8000
FBFFC000
FFFFE000
FF07E000
FE03F000
FC03F000
F801F000
F801F000
F801F000
F801F000
F801F000
F801F000
F801F000
F801F000
F801F000
F801F000
F801F000
F801F000
F801F000
F801F000
F801F000
F801F000
F801F7C0
0001FFF0
0001FFF0
0001FFF8
0000F878
0000FC78
0001FFF8
0003FFF0
0003DFF0
00008FC0
ENDCHAR
STARTCHAR 0236
ENCODING 566
SWIDTH 392 0
DWIDTH 18 0
BBX 18 39 1 -9
BITMAP
078000
078000
078000
0F8000
0F8000
0F8000
7FFE00
FFFE00
FFFE00
FFFE00
1F8000
1F8000
1F8000
1F8000
1F8000
1F8000
1F8000
1F8000
1F8000
1F8000
1F8000
1F8000
1F8000
1F8000
1F8000
1F8000
1F8000
1F8000
0F8000
0FBE00
0FFF00
0FFF80
0FFFC0
0FC3C0
0FE3C0
0FFFC0
1FFF80
1EFF00
047E00
ENDCHAR
STARTCHAR 0237
ENCODING 567
SWIDTH 261 0
DWIDTH 12 0
BBX 11 33 -2 -9
BITMAP
07E0
07E0
07E0
07E0
07E0
07E0
07E0
07E0
07E0
07E0
07E0
07E0
07E0
07E0
07E0
07E0
07E0
07E0
07E0
07E0
07E0
07E0
07E0
07E0
07E0
07E0
07E0
07C0
0FC0
7FC0
FF80
FF00
FC00
ENDCHAR
STARTCHAR 0238
ENCODING 568
SWIDTH 894 0
DWIDTH 41 0
BBX 37 34 2 0
BITMAP
0000F80000
0000F80000
0000F80000
0000F80000
0000F80000
0000F80000
0000F80000
0000F80000
0000F80000
0000F80000
01F8F87E00
07FEF9FF80
1FFFFBFFC0
3FFFFFFFE0
3F83FF07F0
7E01FE03F0
7E00FC01F8
FC00F801F8
FC00F801F8
FC00F801F8
FC00F801F8
F800F801F8
F800F801F8
F800F801F8
FC00F801F8
FC00F801F8
FC00F801F8
FC01F803F0
7E03FC07F0
7F07FE0FE0
3FFFFFFFE0
3FFEF7FFC0
0FFCF3FF00
07F060FC00
ENDCHAR
STARTCHAR 0239
ENCODING 569
SWIDTH 894 0
DWIDTH 41 0
BBX 37 32 2 -8
BITMAP
01F8F07E00
07FEF9FF80
1FFFFBFFC0
3FFFFFFFE0
3F83FF07F0
7E01FE03F0
7E00FC01F8
FC00F801F8
FC00F801F8
FC00F801F8
FC00F801F8
F800F801F8
F800F801F8
F800F801F8
FC00F801F8
FC00F801F8
FC00F801F8
FC01F803F0
7E03FC07F0
7F07FE0FE0
3FFFFFFFE0
3FFEFFFFC0
0FFCFBFF00
07F0F8FC00
0000F80000
0000F80000
0000F80000
0000F80000
0000F80000
0000F80000
0000F80000
0000F80000
ENDCHAR
STARTCHAR 023A
ENCODING 570
SWIDTH 698 0
DWIDTH 32 0
BBX 32 37 0 -2
BITMAP
0000001F
0000003E
0007E03C
000FF078
000FF0F8
001FF0F0
001FF9E0
001FFBE0
003FFFC0
003FFF80
007E7F80
007E7F00
007E7E00
00FC3F00
00FC7F00
01F8FF00
01F8FF80
01F9FF80
03F3EFC0
03F3CFC0
07F7CFC0
07EF87E0
07FF07E0
0FFFFFF0
0FFFFFF0
0FFFFFF0
1FFFFFF8
1FF001F8
3FE001FC
3FE000FC
3FC000FC
7F80007E
7F00007E
FF00007F
FE00003F
3C000000
F8000000
ENDCHAR
STARTCHAR 023B
ENCODING 571
SWIDTH 676 0
DWIDTH 31 0
BBX 32 37 0 -2
BITMAP
0000001F
0000003E
0003FC3C
001FFFFC
007FFFF8
00FFFFF8
03FFFFF8
03FE03F0
07F803F0
0FE007A0
0FE00F80
1FC01F00
1F801E00
3F803C00
3F807C00
3F00F800
3F00F000
3F01F000
3F03E000
3F07C000
3F078000
3F0F8000
3F9F0000
3FBE0000
1FBC0000
1FFC0000
1FF80000
0FF00020
0FF800F0
07FE03F8
07FFFFFC
0FFFFFF0
0F7FFFE0
1F3FFF80
3E07FC00
7C000000
F8000000
ENDCHAR
STARTCHAR 023C
ENCODING 572
SWIDTH 480 0
DWIDTH 22 0
BBX 24 33 -1 -4
BITMAP
000003
00000F
00000E
00001C
00003C
003FF8
00FFF0
03FFFC
07FFFC
07F1F8
0FC3D0
0FC380
1F8780
1F8700
1F8E00
1F1E00
1F1C00
1F3800
1F3800
1FF000
1FF000
1FE000
1FC000
0FC038
0FF07C
07FFFC
0FFFF8
0EFFF0
1C3F80
1C0000
380000
780000
F00000
ENDCHAR
STARTCHAR 023D
ENCODING 573
SWIDTH 523 0
DWIDTH 24 0
BBX 23 33 1 0
BITMAP
1F8000
1F8000
1F8000
1F8000
1F8000
1F8000
1F8000
1F8000
1F8000
1F8000
1F8000
1F8000
1F8000
1F8000
FFFC00
FFFC00
FFFC00
FFFC00
1F8000
1F8000
1F8000
1F8000
1F8000
1F8000
1F8000
1F8000
1F8000
1F8000
1FFFFE
1FFFFE
1FFFFE
1FFFFE
1FFFFE
ENDCHAR
STARTCHAR 023E
ENCODING 574
SWIDTH 610 0
DWIDTH 28 0
BBX 31 37 -1 -2
BITMAP
0000001E
0000003C
3FFFFFFC
3FFFFFF8
3FFFFFF0
3FFFFFF0
3FFFFFF0
000FC3C0
000FC7C0
000FCF80
000FDF00
000FDE00
000FFE00
000FFC00
000FF800
000FF000
000FF000
000FE000
000FC000
000FC000
000FC000
001FC000
001FC000
003FC000
007FC000
00FFC000
00FFC000
01FFC000
03EFC000
07CFC000
078FC000
0F8FC000
1F0FC000
1E0FC000
3C0FC000
7C000000
F8000000
ENDCHAR
STARTCHAR 023F
ENCODING 575
SWIDTH 436 0
DWIDTH 20 0
BBX 20 32 1 -8
BITMAP
03F800
0FFF00
1FFF80
3FFF80
7F0F00
7E0100
7C0000
7C0000
7E0000
7F8000
3FF000
3FFE00
1FFF00
07FF80
00FF80
001FC0
000FC0
000FC0
000FC0
380F80
7E3F80
FFFF00
7FFE00
3FFC00
07E000
03F000
01F800
00FC00
007FE0
007FE0
003FE0
000FD0
ENDCHAR
STARTCHAR 0240
ENCODING 576
SWIDTH 436 0
DWIDTH 20 0
BBX 23 32 1 -8
BITMAP
7FFFE0
7FFFE0
7FFFE0
7FFFE0
000FC0
001F80
003F80
003F00
007E00
00FC00
00FC00
01F800
03F000
07E000
07E000
0FC000
1F8000
3F0000
3F0000
7E0000
FFC000
FFF000
FFF800
FFFC00
01FC00
007E00
003F00
001F80
000FFC
0007FE
0003FE
0000FC
ENDCHAR
STARTCHAR 0241
ENCODING 577
SWIDTH 480 0
DWIDTH 22 0
BBX 21 33 0 0
BITMAP
07F800
3FFF00
7FFF80
FFFFC0
FC0FE0
7007F0
0003F0
0001F0
0001F8
0001F8
0001F8
0001F8
0001F8
0001F8
0001F0
0003F0
0007F0
000FE0
003FC0
01FF80
01FF00
01FC00
01F000
01F000
01F000
01F000
01F000
01F000
01F000
01F000
01F000
01F000
01F000
ENDCHAR
STARTCHAR 0242
ENCODING 578
SWIDTH 480 0
DWIDTH 22 0
BBX 20 24 0 0
BITMAP
03F800
1FFF00
7FFF80
FFFFC0
7C0FE0
7007F0
0003F0
0003F0
0001F0
0001F0
0003F0
0003F0
0003F0
0007E0
001FC0
007FC0
01FF80
01FE00
01F800
01F800
01F800
01F800
01F800
01F800
ENDCHAR
STARTCHAR 0243
ENCODING 579
SWIDTH 676 0
DWIDTH 31 0
BBX 29 33 0 0
BITMAP
0FFFF000
0FFFFF00
0FFFFF80
0FFFFFC0
0FFFFFE0
0FC01FE0
0FC007F0
0FC007F0
0FC003F0
0FC003F0
0FC007F0
0FC007E0
0FC00FE0
0FC01FC0
0FFFFF00
0FFFFC00
0FFFFF80
0FFFFFC0
0FC00FE0
0FC007F0
0FC003F0
FFFC03F8
FFFC01F8
FFFC01F8
FFFC03F8
0FC003F0
0FC007F0
0FC00FF0
0FFFFFE0
0FFFFFC0
0FFFFF80
0FFFFF00
0FFFF800
ENDCHAR
STARTCHAR 0244
ENCODING 580
SWIDTH 763 0
DWIDTH 35 0
BBX 35 33 0 0
BITMAP
0FC0007E00
0FC0007E00
0FC0007E00
0FC0007E00
0FC0007E00
0FC0007E00
0FC0007E00
0FC0007E00
0FC0007E00
0FC0007E00
0FC0007E00
0FC0007E00
0FC0007E00
0FC0007E00
FFFFFFFFE0
FFFFFFFFE0
FFFFFFFFE0
FFFFFFFFE0
0FC0007E00
0FC0007E00
0FC0007E00
0FC0007E00
0FC0007E00
0FE000FE00
0FE000FC00
07F001FC00
07F803FC00
03FE0FF800
01FFFFF000
00FFFFE000
007FFFC000
001FFF0000
0007FC0000
ENDCHAR
STARTCHAR 0245
ENCODING 581
SWIDTH 698 0
DWIDTH 32 0
BBX 32 33 0 0
BITMAP
0007E000
0007E000
000FF000
000FF000
001FF800
001FF800
003FF800
003EFC00
003EFC00
007EFE00
007E7E00
00FC7E00
00FC7F00
00F83F00
01F83F80
01F83F80
03F01F80
03F01FC0
03E00FC0
07E00FE0
07E00FE0
0FC007E0
0FC007F0
0FC003F0
1F8003F8
1F8003F8
3F0001FC
3F0001FC
3F0000FC
7E0000FE
7E0000FE
FC00007F
FC00007F
ENDCHAR
STARTCHAR 0246
ENCODING 582
SWIDTH 610 0
DWIDTH 28 0
BBX 32 37 -2 -2
BITMAP
0000001F
0000001E
03FFFFFC
03FFFFFC
03FFFFF8
03FFFFF0
03FFFFE0
03F003E0
03F003C0
03F00780
03F00F80
03F01F00
03F01E00
03F03C00
03F07C00
03F0F800
03FFFF00
03FFFF00
03FFFF00
03FFFF00
03FFFF00
03FF8000
03FF0000
03FE0000
03FE0000
03FC0000
03F80000
03F00000
03F00000
03F00000
07FFFFE0
07FFFFE0
0FFFFFE0
1FFFFFE0
3FFFFFE0
3C000000
FC000000
ENDCHAR
STARTCHAR 0247
ENCODING 583
SWIDTH 545 0
DWIDTH 25 0
BBX 25 33 0 -4
BITMAP
00000180
00000700
00000E00
00001E00
00001C00
007F3800
01FFF800
03FFF000
0FFFF800
0FC1FC00
1F81FC00
1F03FC00
3F07BE00
3E073E00
3FFFFE00
3FFFFE00
3FFFFE00
3FFFFE00
3E380000
3E780000
3F700000
3FE00000
1FE00000
1FC01800
0FE07C00
0FFFFE00
07FFFC00
0FFFF000
1E7FC000
1C000000
38000000
78000000
F0000000
ENDCHAR
STARTCHAR 0248
ENCODING 584
SWIDTH 436 0
DWIDTH 20 0
BBX 19 33 1 0
BITMAP
007E00
007E00
007E00
007E00
007E00
007E00
007E00
007E00
007E00
007E00
007E00
007E00
007E00
007E00
07FFE0
07FFE0
07FFE0
07FFE0
007E00
007E00
007E00
007E00
007E00
007E00
007E00
00FE00
00FC00
03FC00
FFFC00
FFF800
FFF000
FFE000
FF0000
ENDCHAR
STARTCHAR 0249
ENCODING 585
SWIDTH 283 0
DWIDTH 13 0
BBX 14 43 -1 -9
BITMAP
0380
07C0
0FE0
0FE0
0FE0
07E0
0380
0000
0000
0000
07C0
07C0
07C0
07C0
07C0
07C0
07C0
07C0
07C0
07C0
07C0
07C0
3FFC
3FFC
3FFC
3FFC
07C0
07C0
07C0
07C0
07C0
07C0
07C0
07C0
07C0
07C0
07C0
0FC0
0FC0
FFC0
FF80
FF00
FC00
ENDCHAR
STARTCHAR 024A
ENCODING 586
SWIDTH 785 0
DWIDTH 36 0
BBX 37 42 2 -9
BITMAP
001FE0FC00
00FFF8FC00
01FFFEFC00
07FFFFFC00
0FFFFFFC00
1FF81FFC00
1FE007FC00
3FC001FC00
3F8000FC00
7F0000FC00
7E0000FC00
7E0000FC00
FE0000FC00
FE0000FC00
FC0000FC00
FC0000FC00
FC0000FC00
FC0000FC00
FC0000FC00
FC0000FC00
FC0000FC00
FE0000FC00
FE0000FC00
7F0000FC00
7F0001FC00
3F8003FC00
3FC00FFC00
1FF03FFC00
1FFFFFFC00
0FFFFEFC00
03FFFCFC00
01FFF0FC00
003F80FC00
000000FC00
000000FC00
000000FC00
000000FE00
0000007E00
0000007FF0
0000003FF8
0000001FF8
00000007F0
ENDCHAR
STARTCHAR 024B
ENCODING 587
SWIDTH 567 0
DWIDTH 26 0
BBX 27 33 2 -9
BITMAP
01F87800
07FEF800
1FFFF800
3FFFF800
3F87F800
7E01F800
7E00F800
FC00F800
FC00F800
FC00F800
FC00F800
F800F800
F800F800
F800F800
FC00F800
FC00F800
FC00F800
FC01F800
7E03F800
7F07F800
3FFFF800
3FFEF800
0FFCF800
07F0F800
0000F800
0000F800
0000F800
0000F800
0000FC00
00007FE0
00007FE0
00003FE0
00000FC0
ENDCHAR
STARTCHAR 024C
ENCODING 588
SWIDTH 654 0
DWIDTH 30 0
BBX 30 33 0 0
BITMAP
0FFFE000
0FFFFC00
0FFFFF00
0FFFFF80
0FFFFFC0
0FC07FC0
0FC01FC0
0FC00FE0
0FC007E0
0FC007E0
0FC007E0
0FC007E0
0FC00FC0
0FC00FC0
0FC01FC0
0FC07F80
FFFFFF00
FFFFFE00
FFFFF800
FFFFF000
0FC1F800
0FC1FC00
0FC0FE00
0FC07E00
0FC07F00
0FC03F80
0FC01F80
0FC01FC0
0FC00FE0
0FC007F0
0FC007F0
0FC003F8
0FC001FC
ENDCHAR
STARTCHAR 024D
ENCODING 589
SWIDTH 392 0
DWIDTH 18 0
BBX 18 24 0 0
BITMAP
1F0FC0
1F1FC0
1FBF80
1FFF80
1FFF80
1FFF80
1FF000
1FC000
1FC000
1F8000
1F8000
FFF800
FFF800
FFF800
FFF800
1F8000
1F8000
1F8000
1F8000
1F8000
1F8000
1F8000
1F8000
1F8000
ENDCHAR
STARTCHAR 024E
ENCODING 590
SWIDTH 720 0
DWIDTH 33 0
BBX 33 33 0 0
BITMAP
7F00007F00
3F8000FE00
1F8000FC00
1FC001FC00
0FC003F800
07E003F000
FFFFFFFF80
FFFFFFFF80
FFFFFFFF80
FFFFFFFF80
00FC1F8000
00FC1F8000
007E3F0000
007E3F0000
003F7E0000
003F7E0000
001F7C0000
001FFC0000
000FF80000
000FF80000
0007F00000
0007F00000
0007F00000
0007F00000
0007F00000
0007F00000
0007F00000
0007F00000
0007F00000
0007F00000
0007F00000
0007F00000
0007F00000
ENDCHAR
STARTCHAR 024F
ENCODING 591
SWIDTH 589 0
DWIDTH 27 0
BBX 26 32 1 -8
BITMAP
7E001F80
7E003F00
3F003F00
3F003E00
3F007E00
1F807E00
FFFFFFC0
FFFFFFC0
FFFFFFC0
FFFFFFC0
07E1F800
07E1F000
03F1F000
03F3E000
01F3E000
01FFC000
00FFC000
00FFC000
00FF8000
007F8000
007F0000
003F0000
003E0000
003E0000
007E0000
007C0000
00FC0000
00F80000
01F80000
01F00000
03F00000
03E00000
ENDCHAR
STARTCHAR 0250
ENCODING 592
SWIDTH 501 0
DWIDTH 23 0
BBX 19 24 3 0
BITMAP
F07E00
F1FF80
F3FFC0
FFFFE0
FF07E0
FC03E0
F803E0
F803E0
F807E0
F83FC0
FFFFC0
FFFF00
FFFC00
FFE000
F80000
F80000
F80000
F80000
FC0380
7E0F80
7FFFC0
3FFF80
1FFE00
07F800
ENDCHAR
STARTCHAR 0251
ENCODING 593
SWIDTH 567 0
DWIDTH 26 0
BBX 21 24 2 0
BITMAP
01F878
0FFEF8
1FFFF8
3FFFF8
3F87F8
7E01F8
7E00F8
FC00F8
FC00F8
FC00F8
FC00F8
F800F8
F800F8
F800F8
FC00F8
FC00F8
FC00F8
FC01F8
7E03F8
7F07F8
3FFFF8
3FFEF8
0FFCF8
07F078
ENDCHAR
STARTCHAR 0252
ENCODING 594
SWIDTH 567 0
DWIDTH 26 0
BBX 22 24 3 0
BITMAP
F1FE00
FBFF80
FFFFC0
FFFFE0
FF0FE0
FC03F0
F803F0
F801F8
F801F8
F801F8
F800F8
F800FC
F800FC
F800F8
F800F8
F801F8
F801F8
FC01F8
FE03F0
FF07F0
FFFFE0
FBFFE0
F9FFC0
F07F00
ENDCHAR
STARTCHAR 0253
ENCODING 595
SWIDTH 567 0
DWIDTH 26 0
BBX 22 33 3 0
BITMAP
07F000
1FF800
3FF000
7FF000
7E0000
FC0000
FC0000
F80000
F80000
F87F00
F9FF80
FBFFE0
FFFFE0
FF07F0
FE03F0
FC01F8
F801F8
F801F8
F800F8
F800F8
F800FC
F800FC
F800F8
F801F8
F801F8
F801F8
F803F0
FC03F0
FF0FF0
FFFFE0
FFFFC0
FBFF80
F8FE00
ENDCHAR
STARTCHAR 0254
ENCODING 596
SWIDTH 480 0
DWIDTH 22 0
BBX 20 24 1 0
BITMAP
07F000
1FFE00
7FFF00
FFFF80
7C3FC0
700FC0
0007E0
0007E0
0007E0
0003F0
0003F0
0003F0
0003F0
0003F0
0003F0
0003E0
0007E0
0007E0
300FC0
783FC0
FFFF80
7FFF00
3FFC00
07F000
ENDCHAR
STARTCHAR 0255
ENCODING 597
SWIDTH 501 0
DWIDTH 23 0
BBX 20 28 2 -4
BITMAP
01FE00
07FF80
1FFFE0
3FFFE0
3F83C0
7E0080
7E0000
FC0000
FC0000
FC0000
F80000
F80000
F81F80
F83FC0
F87FE0
FCFFE0
FCF9F0
7CF1F0
7FF1F0
3FE3E0
1FFFE0
0FFFC0
07FF80
03FE00
03C000
03C000
03C000
03C000
ENDCHAR
STARTCHAR 0256
ENCODING 598
SWIDTH 567 0
DWIDTH 26 0
BBX 27 43 2 -9
BITMAP
0000F800
0000F800
0000F800
0000F800
0000F800
0000F800
0000F800
0000F800
0000F800
0000F800
01F8F800
07FEF800
1FFFF800
3FFFF800
3F87F800
7E01F800
7E00F800
FC00F800
FC00F800
FC00F800
FC00F800
F800F800
F800F800
F800F800
FC00F800
FC00F800
FC00F800
FC01F800
7E03F800
7F07F800
3FFFF800
3FFEF800
0FFCF800
07F0F800
0000F800
0000F800
0000F800
0000F800
0000FC00
00007FE0
00007FE0
00003FE0
00000FC0
ENDCHAR
STARTCHAR 0257
ENCODING 599
SWIDTH 567 0
DWIDTH 26 0
BBX 29 33 2 0
BITMAP
000007E8
00001FF0
00003FF0
00007FF0
0000FE00
0000FC00
0000F800
0000F800
0000F800
01F8F800
07FEF800
1FFFF800
3FFFF800
3F87F800
7E01F800
7E00F800
FC00F800
FC00F800
FC00F800
FC00F800
F800F800
F800F800
F800F800
FC00F800
FC00F800
FC00F800
FC01F800
7E03F800
7F07F800
3FFFF800
3FFEF800
0FFCF800
07F07800
ENDCHAR
STARTCHAR 0258
ENCODING 600
SWIDTH 545 0
DWIDTH 25 0
BBX 22 24 1 0
BITMAP
01FC00
07FF80
0FFFC0
1FFFE0
3F07F0
7E01F8
7C01F8
7C00F8
7C00FC
FFFFFC
FFFFFC
FFFFFC
7FFFFC
0000FC
0000FC
0000FC
0000F8
0001F8
3803F0
7E07F0
7FFFE0
3FFFC0
1FFF80
03FC00
ENDCHAR
STARTCHAR 0259
ENCODING 601
SWIDTH 545 0
DWIDTH 25 0
BBX 22 24 1 0
BITMAP
03FC00
1FFF00
3FFFC0
7FFFE0
7E07F0
3803F0
0001F8
0000F8
0000FC
0000FC
0000FC
7FFFFC
FFFFFC
FFFFFC
7FFFFC
7C00FC
7C00F8
7C01F8
7E01F8
3F07F0
1FFFE0
0FFFC0
07FF80
01FC00
ENDCHAR
STARTCHAR 025A
ENCODING 602
SWIDTH 720 0
DWIDTH 33 0
BBX 32 24 1 0
BITMAP
03FC0000
1FFF0000
3FFFC000
7FFFE000
7E0FF020
3803F1E0
0001FFE0
0001FFE0
0001FFE0
000FFFE0
007FFDF0
03FFFDFF
1FFEFCFF
7FF0FC7F
FFC0FC3E
FE00FC00
7C00F800
7C01F800
7E03F000
3F07F000
1FFFE000
0FFFC000
07FF8000
01FC0000
ENDCHAR
STARTCHAR 025B
ENCODING 603
SWIDTH 458 0
DWIDTH 21 0
BBX 18 24 2 0
BITMAP
07FC00
1FFF00
3FFFC0
7FFF80
FE0700
FC0000
FC0000
FC0000
7E0000
7FF800
1FF800
1FF800
7FF800
FE0000
FC0000
F80000
F80000
FC0000
FC0380
FE0FC0
7FFFC0
3FFF80
1FFF00
03F800
ENDCHAR
STARTCHAR 025C
ENCODING 604
SWIDTH 458 0
DWIDTH 21 0
BBX 18 24 1 0
BITMAP
07F000
3FFE00
FFFF00
7FFF80
381F80
000FC0
000FC0
000F80
001F80
07FF00
07FC00
07FE00
07FF80
001F80
000FC0
0007C0
0007C0
000FC0
700FC0
7C1F80
FFFF80
7FFF00
3FFE00
07F000
ENDCHAR
STARTCHAR 025D
ENCODING 605
SWIDTH 632 0
DWIDTH 29 0
BBX 28 24 1 0
BITMAP
07F80000
3FFE0000
FFFF0000
7FFF8000
381FC000
000FCC00
000FFC00
000FFC00
001FFC00
07FFBC00
07FE1E00
07FE1FE0
07FF1FE0
001F8FF0
000FC7C0
0007C000
0007C000
000FC000
700FC000
7C1FC000
FFFF8000
7FFF0000
3FFE0000
07F00000
ENDCHAR
STARTCHAR 025E
ENCODING 606
SWIDTH 567 0
DWIDTH 26 0
BBX 23 24 2 0
BITMAP
00FF80
07FFE0
0FFFF8
1FFFF8
3F80FC
7F007C
7E007C
FC007C
FC00FC
FC3FF8
F83FF0
F83FE0
F83FF8
F800FC
FC007C
FC007C
FC007E
7E007E
7F007E
3F81FC
1FFFFC
0FFFF8
07FFF0
00FF80
ENDCHAR
STARTCHAR 025F
ENCODING 607
SWIDTH 305 0
DWIDTH 14 0
BBX 13 33 0 -9
BITMAP
07C0
07C0
07C0
07C0
07C0
07C0
07C0
07C0
07C0
07C0
07C0
07C0
7FF8
7FF8
7FF8
7FF8
07C0
07C0
07C0
07C0
07C0
07C0
07C0
07C0
07C0
07C0
0FC0
0FC0
0FC0
FF80
FF80
FF00
FC00
ENDCHAR
STARTCHAR 0260
ENCODING 608
SWIDTH 567 0
DWIDTH 26 0
BBX 27 42 2 -9
BITMAP
00000FC0
00003FE0
00007FE0
0000FFE0
0000FC00
0000FC00
0000F800
0000F800
0000F800
01F8F800
07FEF800
1FFFF800
3FFFF800
3F87F800
7E01F800
7E00F800
FC00F800
FC00F800
FC00F800
FC00F800
F800F800
F800F800
F800F800
FC00F800
FC00F800
FC00F800
FC01F800
7E03F800
7F07F800
3FFFF800
1FFEF800
0FFCF800
03F0F800
0001F800
0001F800
0001F800
3803F000
3E0FF000
7FFFE000
7FFFC000
1FFF0000
07FC0000
ENDCHAR
STARTCHAR 0261
ENCODING 609
SWIDTH 567 0
DWIDTH 26 0
BBX 21 33 2 -9
BITMAP
01F878
07FEF8
1FFFF8
3FFFF8
3F87F8
7E01F8
7E00F8
FC00F8
FC00F8
FC00F8
FC00F8
F800F8
F800F8
F800F8
FC00F8
FC00F8
FC00F8
FC01F8
7E03F8
7F07F8
3FFFF8
1FFEF8
0FFCF8
03F0F8
0001F8
0001F8
0001F8
3803F0
3E0FF0
7FFFE0
7FFFC0
1FFF00
07FC00
ENDCHAR
STARTCHAR 0262
ENCODING 610
SWIDTH 545 0
DWIDTH 25 0
BBX 22 24 1 0
BITMAP
007F80
03FFF0
07FFFC
0FFFF8
1FC0F0
3F8030
3F0000
7E0000
7E0000
7C0000
7C0000
FC0000
FC07FC
7C07FC
7C07FC
7E07FC
7E007C
3F007C
3F807C
1FC0FC
0FFFFC
07FFFC
03FFF0
007F80
ENDCHAR
STARTCHAR 0263
ENCODING 611
SWIDTH 501 0
DWIDTH 23 0
BBX 25 33 -1 -9
BITMAP
FE001F80
7E003F00
3F007E00
3F007E00
1F80FC00
1F80FC00
0FC0F800
0FC1F800
07E1F000
07E3F000
03F3E000
03F7E000
01FFC000
01FFC000
00FF8000
00FF8000
007F0000
007F0000
007F0000
007F0000
00FF8000
00FF8000
01F7C000
01F7C000
03E7C000
03E3E000
03E3E000
03E3E000
03F7C000
01FFC000
01FFC000
00FF8000
003E0000
ENDCHAR
STARTCHAR 0264
ENCODING 612
SWIDTH 523 0
DWIDTH 24 0
BBX 24 24 0 0
BITMAP
7C003E
FE007F
FF00FF
FF81FF
1FC3F8
0FC3F0
07E7E0
03FFC0
01FF80
01FF80
00FF00
007E00
00FF00
01FF80
01FF80
03FFC0
03E7C0
03E7C0
03C3C0
03E7C0
03FFC0
01FF80
00FF00
007E00
ENDCHAR
STARTCHAR 0265
ENCODING 613
SWIDTH 567 0
DWIDTH 26 0
BBX 20 32 3 -8
BITMAP
F803F0
F803F0
F803F0
F803F0
F803F0
F803F0
F803F0
F803F0
F803F0
F803F0
F803F0
F803F0
F803F0
F803F0
F803F0
F803F0
F803F0
FC03F0
FC07F0
FE0FF0
7FFFF0
3FFFF0
1FFBF0
07E3F0
0003F0
0003F0
0003F0
0003F0
0003F0
0003F0
0003F0
0003F0
ENDCHAR
STARTCHAR 0266
ENCODING 614
SWIDTH 567 0
DWIDTH 26 0
BBX 20 33 3 0
BITMAP
07F000
1FF800
3FF000
7FF000
7E0000
FC0000
FC0000
F80000
F80000
F87E00
F9FF80
FBFFC0
FFFFE0
FF07F0
FE03F0
FC03F0
F801F0
F801F0
F801F0
F801F0
F801F0
F801F0
F801F0
F801F0
F801F0
F801F0
F801F0
F801F0
F801F0
F801F0
F801F0
F801F0
F801F0
ENDCHAR
STARTCHAR 0267
ENCODING 615
SWIDTH 567 0
DWIDTH 26 0
BBX 20 42 3 -9
BITMAP
07F000
1FF800
3FF000
7FF000
7E0000
FC0000
FC0000
F80000
F80000
F87E00
F9FF80
FBFFC0
FFFFE0
FF07E0
FE03F0
FC03F0
F801F0
F801F0
F801F0
F801F0
F801F0
F801F0
F801F0
F801F0
F801F0
F801F0
F801F0
F801F0
F801F0
F801F0
F801F0
F801F0
F801F0
0001F0
0001F0
0001F0
0003F0
0003F0
007FE0
007FE0
007FC0
003F00
ENDCHAR
STARTCHAR 0268
ENCODING 616
SWIDTH 305 0
DWIDTH 14 0
BBX 12 34 1 0
BITMAP
0F00
1F80
1FC0
1FC0
1FC0
1F80
0F00
0000
0000
0000
1F80
1F80
1F80
1F80
1F80
1F80
1F80
1F80
1F80
1F80
1F80
FFF0
FFF0
FFF0
FFF0
1F80
1F80
1F80
1F80
1F80
1F80
1F80
1F80
1F80
ENDCHAR
STARTCHAR 0269
ENCODING 617
SWIDTH 283 0
DWIDTH 13 0
BBX 10 24 3 0
BITMAP
F800
F800
F800
F800
F800
F800
F800
F800
F800
F800
F800
F800
F800
F800
F800
F800
F800
F800
FC00
FC00
FFC0
7FC0
3FC0
1F00
ENDCHAR
STARTCHAR 026A
ENCODING 618
SWIDTH 240 0
DWIDTH 11 0
BBX 5 24 3 0
BITMAP
F8
F8
F8
F8
F8
F8
F8
F8
F8
F8
F8
F8
F8
F8
F8
F8
F8
F8
F8
F8
F8
F8
F8
F8
ENDCHAR
STARTCHAR 026B
ENCODING 619
SWIDTH 414 0
DWIDTH 19 0
BBX 18 34 0 0
BITMAP
03F000
03F000
03F000
03F000
03F000
03F000
03F000
03F000
03F000
03F000
03F000
03F000
0FF3C0
3FF7C0
7FFFC0
7FFF80
FBFF00
FBFE00
03F000
03F000
03F000
03F000
03F000
03F000
03F000
03F000
03F000
03F000
03F000
03F000
03F000
03F000
03F000
03F000
ENDCHAR
STARTCHAR 026C
ENCODING 620
SWIDTH 414 0
DWIDTH 19 0
BBX 18 34 0 0
BITMAP
00FC00
00FC00
00FC00
00FC00
00FC00
00FC00
00FC00
00FC00
00FC00
00FC00
1EFC00
3FFC00
7FFC00
7FFC00
F8FC00
F8FC00
7FFFC0
7FFFC0
3FFFC0
0FFFC0
00FC00
00FC00
00FC00
00FC00
00FC00
00FC00
00FC00
00FC00
00FC00
00FC00
00FC00
00FC00
00FC00
00FC00
ENDCHAR
STARTCHAR 026D
ENCODING 621
SWIDTH 240 0
DWIDTH 11 0
BBX 13 43 3 -9
BITMAP
F800
F800
F800
F800
F800
F800
F800
F800
F800
F800
F800
F800
F800
F800
F800
F800
F800
F800
F800
F800
F800
F800
F800
F800
F800
F800
F800
F800
F800
F800
F800
F800
F800
F800
F800
FC00
FC00
FC00
7E00
7FF0
3FF0
1FF8
07F0
ENDCHAR
STARTCHAR 026E
ENCODING 622
SWIDTH 610 0
DWIDTH 28 0
BBX 24 43 3 -9
BITMAP
F80000
F80000
F80000
F80000
F80000
F80000
F80000
F80000
F80000
F80000
FFFFFE
FFFFFE
FFFFFE
FFFFFE
F800FC
F801F8
F803F8
F803F0
F807E0
F80FC0
F80FC0
F81F80
F83F00
F83FC0
F87FF0
F87FFC
F803FE
F8007E
F8003F
F8003F
F8003F
F8001F
F8001F
F8003F
00003F
00003F
00007E
03007E
07C1FC
0FFFF8
0FFFF0
03FFE0
00FF00
ENDCHAR
STARTCHAR 026F
ENCODING 623
SWIDTH 850 0
DWIDTH 39 0
BBX 33 24 3 0
BITMAP
F807E01F80
F807E01F80
F807E01F80
F807E01F80
F807E01F80
F807E01F80
F807E01F80
F807E01F80
F807E01F80
F807E01F80
F807E01F80
F807E01F80
F807E01F80
F807E01F80
F807E01F80
F807E01F80
F807E01F80
FC07E01F80
FC0FF03F80
FE1FF87F80
7FFFFFFF80
3FFCFFFF80
1FF87FCF80
07E03F0F80
ENDCHAR
STARTCHAR 0270
ENCODING 624
SWIDTH 850 0
DWIDTH 39 0
BBX 33 32 3 -8
BITMAP
F807E01F80
F807E01F80
F807E01F80
F807E01F80
F807E01F80
F807E01F80
F807E01F80
F807E01F80
F807E01F80
F807E01F80
F807E01F80
F807E01F80
F807E01F80
F807E01F80
F807E01F80
F807E01F80
F807E01F80
FC07E01F80
FC0FF03F80
FE1FF87F80
7FFFFFFF80
3FFCFFFF80
1FF87FDF80
07E03F1F80
0000001F80
0000001F80
0000001F80
0000001F80
0000001F80
0000001F80
0000001F80
0000001F80
ENDCHAR
ENDFONT
